<?xml version="1.0" encoding="UTF-8" standalone="no"?>
<svg
   xmlns:dc="http://purl.org/dc/elements/1.1/"
   xmlns:cc="http://creativecommons.org/ns#"
   xmlns:rdf="http://www.w3.org/1999/02/22-rdf-syntax-ns#"
   xmlns:svg="http://www.w3.org/2000/svg"
   xmlns="http://www.w3.org/2000/svg"
   xmlns:sodipodi="http://sodipodi.sourceforge.net/DTD/sodipodi-0.dtd"
   xmlns:inkscape="http://www.inkscape.org/namespaces/inkscape"
   id="Capa_1"
   data-name="Capa 1"
   viewBox="0 0 451.5 139.47"
   version="1.1"
   sodipodi:docname="logo2.svg"
   width="451.5"
   height="139.47"
   inkscape:version="0.92.0 r15299">
  <metadata
     id="metadata101">
    <rdf:RDF>
      <cc:Work
         rdf:about="">
        <dc:format>image/svg+xml</dc:format>
        <dc:type
           rdf:resource="http://purl.org/dc/dcmitype/StillImage" />
        <dc:title></dc:title>
      </cc:Work>
    </rdf:RDF>
  </metadata>
  <sodipodi:namedview
     pagecolor="#ffffff"
     bordercolor="#666666"
     borderopacity="1"
     objecttolerance="10"
     gridtolerance="10"
     guidetolerance="10"
     inkscape:pageopacity="0"
     inkscape:pageshadow="2"
     inkscape:window-width="1920"
     inkscape:window-height="1001"
     id="namedview99"
     showgrid="false"
     inkscape:zoom="1.7598385"
     inkscape:cx="288.5657"
     inkscape:cy="154.84559"
     inkscape:window-x="-9"
     inkscape:window-y="-9"
     inkscape:window-maximized="1"
     inkscape:current-layer="Capa_1" />
  <defs
     id="defs4">
    <style
       id="style2">.cls-1,.cls-3,.cls-5,.cls-6,.cls-8,.cls-9{fill:none;stroke:#fff;stroke-linecap:round;stroke-linejoin:round;}.cls-1{stroke-width:2.74px;}.cls-10,.cls-2{fill:#d68500;}.cls-2,.cls-4{fill-rule:evenodd;}.cls-3{stroke-width:2.74px;}.cls-4,.cls-7{fill:#2d6fb1;}.cls-5{stroke-width:2.74px;}.cls-6{stroke-width:2.46px;}.cls-8{stroke-width:2.77px;}.cls-9{stroke-width:2.77px;}</style>
  </defs>
  <path
     class="cls-1"
     d="m 73.945367,15.852291 c 1.3,0.2 2.57,0.45 3.83,0.75 0.46,1.900001 2.43,3.940001 5.21,5.130001 3,1.250001 5.94,1.200001 7.59,0 1,0.590001 1.95,1.220001 2.88,1.880001 -0.1,2 1.24,4.48 3.61,6.41 a 9.87,9.87 0 0 0 5.570003,2.35 c 0.65,0.83 1.26,1.69 1.83,2.56 -1.12,1.7 -1,4.75 0.45,7.67 a 9.17,9.17 0 0 0 4.87,4.74 c 0.14,0.61 0.27,1.22 0.38,1.83 -1.59,1.159998 -2.7,3.759998 -2.73,6.799999 -0.03,3.040004 1.08,5.700006 2.66,6.860007 -0.1,0.560001 -0.22,1.120001 -0.35,1.680002 -1.77,0.18 -3.8,1.850002 -5.05,4.370004 -1.47,2.940003 -1.38,6.000006 0.09,7.330003 a 38.62,38.62 0 0 1 -2.65,3.72001 c -1.52,-0.94 -4.220003,-0.2 -6.390003,1.84 -2.17,2.04001 -3.07,4.67001 -2.25,6.25002 a 44.12,44.12 0 0 1 -4.1,2.57 c -0.89,-1.8 -4,-2.07 -7,-0.61 -2.49,1.22 -4.08,3.27001 -4,5.00001 a 48.15,48.15 0 0 1 -5.45,1.05 c -0.18,-2 -3,-3.4 -6.26,-3.15 -2.83,0.21 -5.11,1.58 -5.61,3.23 -1.47,-0.18 -2.91,-0.41 -4.33,-0.71 0.24,-1.79 -1.58,-4.00001 -4.38,-5.07001 -3,-1.21 -6.11,-0.71 -6.89,1.1 a 45,45 0 0 1 -5,-2.94 c 1.1,-1.52001 0.26,-4.35001 -2,-6.53002 -2.26,-2.18 -5.44,-3 -6.84,-1.56 0,0 0,0 0,0 a 39.47,39.47 0 0 1 -2.58,-3.47001 h 0.06 0.06 v 0 c 1.81,-0.85 2.14,-3.999999 0.73,-7.000002 -1.41,-3.000003 -4,-4.730004 -5.84,-3.880003 v 0 a 38.24,38.24 0 0 1 -0.95,-4.300005 c 1.86,-0.26 3.33,-2.820003 3.35,-6.000006 0.02,-3.180001 -1.44,-5.769999 -3.32,-5.999999 a 37.79,37.79 0 0 1 1.03,-4.71 1.57,1.57 0 0 0 0.28,0.1 c 1.93,0.56 4.24,-1.58 5.15,-4.76 a 7,7 0 0 0 -0.49,-5.77 41.74,41.74 0 0 1 2.92,-3.84 c 1.44,1.24 4.36,0.57 6.69,-1.59 2.33,-2.16 3.11,-4.7 2.26,-6.29 1.29,-0.85 2.64,-1.640001 4,-2.370001 1.08,1.42 3.85,1.730001 6.61,0.64 2.61,-1 4.37,-3 4.41,-4.670001 1.47,-0.34 3,-0.61 4.5,-0.81 1.22,1.550001 3.81,2.620001 6.81,2.620001 3,0 5.4,-1 6.64,-2.450001 z m -7.27,8.190002 c 19.11,0 34.640003,14.24 34.640003,31.829999 0,17.590018 -15.500003,31.840046 -34.610003,31.840046 -19.11,0 -34.64,-14.250028 -34.64,-31.840046 0,-17.589999 15.5,-31.829999 34.61,-31.829999 z"
     id="path6"
     inkscape:connector-curvature="0"
     style="fill:none;stroke:#ffffff;stroke-width:2.74000001px;stroke-linecap:round;stroke-linejoin:round" />
  <path
     class="cls-2"
     d="m 73.945367,15.852291 c 1.3,0.2 2.57,0.45 3.83,0.75 0.46,1.900001 2.43,3.940001 5.21,5.130001 3,1.250001 5.94,1.200001 7.59,0 1,0.590001 1.95,1.220001 2.88,1.880001 -0.1,2 1.24,4.48 3.61,6.41 a 9.87,9.87 0 0 0 5.570003,2.35 c 0.65,0.83 1.26,1.69 1.83,2.56 -1.12,1.7 -1,4.75 0.45,7.67 a 9.17,9.17 0 0 0 4.87,4.74 c 0.14,0.61 0.27,1.22 0.38,1.83 -1.59,1.159998 -2.7,3.759998 -2.73,6.799999 -0.03,3.040004 1.08,5.700006 2.66,6.860007 -0.1,0.560001 -0.22,1.120001 -0.35,1.680002 -1.77,0.18 -3.8,1.850002 -5.05,4.370004 -1.47,2.940003 -1.38,6.000006 0.09,7.330003 a 38.62,38.62 0 0 1 -2.65,3.72001 c -1.52,-0.94 -4.220003,-0.2 -6.390003,1.84 -2.17,2.04001 -3.07,4.67001 -2.25,6.25002 a 44.12,44.12 0 0 1 -4.1,2.57 c -0.89,-1.8 -4,-2.07 -7,-0.61 -2.49,1.22 -4.08,3.27001 -4,5.00001 a 48.15,48.15 0 0 1 -5.45,1.05 c -0.18,-2 -3,-3.4 -6.26,-3.15 -2.83,0.21 -5.11,1.58 -5.61,3.23 -1.47,-0.18 -2.91,-0.41 -4.33,-0.71 0.24,-1.79 -1.58,-4.00001 -4.38,-5.07001 -3,-1.21 -6.11,-0.71 -6.89,1.1 a 45,45 0 0 1 -5,-2.94 c 1.1,-1.52001 0.26,-4.35001 -2,-6.53002 -2.26,-2.18 -5.44,-3 -6.84,-1.56 0,0 0,0 0,0 a 39.47,39.47 0 0 1 -2.58,-3.47001 h 0.06 0.06 v 0 c 1.81,-0.85 2.14,-3.999999 0.73,-7.000002 -1.41,-3.000003 -4,-4.730004 -5.84,-3.880003 v 0 a 38.24,38.24 0 0 1 -0.95,-4.300005 c 1.86,-0.26 3.33,-2.820003 3.35,-6.000006 0.02,-3.180001 -1.44,-5.769999 -3.32,-5.999999 a 37.79,37.79 0 0 1 1.03,-4.71 1.57,1.57 0 0 0 0.28,0.1 c 1.93,0.56 4.24,-1.58 5.15,-4.76 a 7,7 0 0 0 -0.49,-5.77 41.74,41.74 0 0 1 2.92,-3.84 c 1.44,1.24 4.36,0.57 6.69,-1.59 2.33,-2.16 3.11,-4.7 2.26,-6.29 1.29,-0.85 2.64,-1.640001 4,-2.370001 1.08,1.42 3.85,1.730001 6.61,0.64 2.61,-1 4.37,-3 4.41,-4.670001 1.47,-0.34 3,-0.61 4.5,-0.81 1.22,1.550001 3.81,2.620001 6.81,2.620001 3,0 5.4,-1 6.64,-2.450001 z m -7.27,8.190002 c 19.11,0 34.640003,14.24 34.640003,31.829999 0,17.590018 -15.500003,31.840046 -34.610003,31.840046 -19.11,0 -34.64,-14.250028 -34.64,-31.840046 0,-17.589999 15.5,-31.829999 34.61,-31.829999 z"
     id="path8"
     inkscape:connector-curvature="0"
     style="fill:#d68500;fill-rule:evenodd" />
  <path
     class="cls-3"
     d="m 87.875367,8.2522796 c 4,1.15 6.61,4.0000104 5.91,6.4200114 -0.7,2.420001 -4.47,3.370001 -8.47,2.26 -4,-1.11 -6.61,-4.000001 -5.91,-6.420001 0.7,-2.4200104 4.47,-3.4100114 8.43,-2.2600104 z"
     id="path10"
     inkscape:connector-curvature="0"
     style="fill:none;stroke:#ffffff;stroke-width:2.74000001px;stroke-linecap:round;stroke-linejoin:round" />
  <path
     class="cls-4"
     d="m 87.875367,8.2522796 c 4,1.15 6.61,4.0000104 5.91,6.4200114 -0.7,2.420001 -4.47,3.370001 -8.47,2.26 -4,-1.11 -6.61,-4.000001 -5.91,-6.420001 0.7,-2.4200104 4.47,-3.4100114 8.43,-2.2600104 z"
     id="path12"
     inkscape:connector-curvature="0"
     style="fill:#2d6fb1;fill-rule:evenodd" />
  <path
     class="cls-3"
     d="m 106.20537,19.642292 c 3.21,2.580001 4.56,6.250001 3,8.200001 -1.56,1.95 -5.43,1.44 -8.65,-1.14 -3.220003,-2.58 -4.560003,-6.250001 -3.000003,-8.200001 1.56,-1.950001 5.440003,-1.44 8.660003,1.14 z"
     id="path14"
     inkscape:connector-curvature="0"
     style="fill:none;stroke:#ffffff;stroke-width:2.74000001px;stroke-linecap:round;stroke-linejoin:round" />
  <path
     class="cls-4"
     d="m 106.20537,19.642292 c 3.21,2.580001 4.56,6.250001 3,8.200001 -1.56,1.95 -5.43,1.44 -8.65,-1.14 -3.220003,-2.58 -4.560003,-6.250001 -3.000003,-8.200001 1.56,-1.950001 5.440003,-1.44 8.660003,1.14 z"
     id="path16"
     inkscape:connector-curvature="0"
     style="fill:#2d6fb1;fill-rule:evenodd" />
  <path
     class="cls-3"
     d="m 117.49537,37.712293 c 0.8,4 -0.54,7.72 -3,8.2 -2.46,0.48 -5.08,-2.4 -5.88,-6.44 -0.8,-4.04 0.54,-7.72 3,-8.2 2.46,-0.48 5.08,2.4 5.88,6.44 z"
     id="path18"
     inkscape:connector-curvature="0"
     style="fill:none;stroke:#ffffff;stroke-width:2.74000001px;stroke-linecap:round;stroke-linejoin:round" />
  <path
     class="cls-4"
     d="m 117.49537,37.712293 c 0.8,4 -0.54,7.72 -3,8.2 -2.46,0.48 -5.08,-2.4 -5.88,-6.44 -0.8,-4.04 0.54,-7.72 3,-8.2 2.46,-0.48 5.08,2.4 5.88,6.44 z"
     id="path20"
     inkscape:connector-curvature="0"
     style="fill:#2d6fb1;fill-rule:evenodd" />
  <path
     class="cls-3"
     d="m 121.87537,56.282293 c -0.31,4.110004 -2.57,7.290007 -5.06,7.110007 -2.49,-0.18 -4.27,-3.660004 -4,-7.780008 0.27,-4.120001 2.56,-7.289999 5.05,-7.109999 2.49,0.18 4.27,3.669998 4,7.78 z"
     id="path22"
     inkscape:connector-curvature="0"
     style="fill:none;stroke:#ffffff;stroke-width:2.74000001px;stroke-linecap:round;stroke-linejoin:round" />
  <path
     class="cls-2"
     d="m 121.87537,56.282293 c -0.31,4.110004 -2.57,7.290007 -5.06,7.110007 -2.49,-0.18 -4.27,-3.660004 -4,-7.780008 0.27,-4.120001 2.56,-7.289999 5.05,-7.109999 2.49,0.18 4.27,3.669998 4,7.78 z"
     id="path24"
     inkscape:connector-curvature="0"
     style="fill:#d68500;fill-rule:evenodd" />
  <path
     class="cls-3"
     d="m 117.96537,74.382311 c -1.05,4.000007 -3.85,6.700007 -6.27,6.070007 -2.42,-0.63 -3.53,-4.41001 -2.48,-8.410009 1.05,-4.000004 3.85,-6.710007 6.27,-6.070007 2.42,0.640001 3.52,4.380005 2.48,8.370009 z"
     id="path26"
     inkscape:connector-curvature="0"
     style="fill:none;stroke:#ffffff;stroke-width:2.74000001px;stroke-linecap:round;stroke-linejoin:round" />
  <path
     class="cls-4"
     d="m 117.96537,74.382311 c -1.05,4.000007 -3.85,6.700007 -6.27,6.070007 -2.42,-0.63 -3.53,-4.41001 -2.48,-8.410009 1.05,-4.000004 3.85,-6.710007 6.27,-6.070007 2.42,0.640001 3.52,4.380005 2.48,8.370009 z"
     id="path28"
     inkscape:connector-curvature="0"
     style="fill:#2d6fb1;fill-rule:evenodd" />
  <path
     class="cls-5"
     d="m 105.90537,91.722338 c -2.8,3.00001 -6.560003,4.10001 -8.390003,2.41001 -1.83,-1.69 -1,-5.53001 1.75,-8.56002 2.750003,-3.03 6.560003,-4.10001 8.390003,-2.4 1.83,1.7 1,5.52001 -1.75,8.55001 z"
     id="path30"
     inkscape:connector-curvature="0"
     style="fill:none;stroke:#ffffff;stroke-width:2.74000001px;stroke-linecap:round;stroke-linejoin:round" />
  <path
     class="cls-4"
     d="m 105.90537,91.722338 c -2.8,3.00001 -6.560003,4.10001 -8.390003,2.41001 -1.83,-1.69 -1,-5.53001 1.75,-8.56002 2.750003,-3.03 6.560003,-4.10001 8.390003,-2.4 1.83,1.7 1,5.52001 -1.75,8.55001 z"
     id="path32"
     inkscape:connector-curvature="0"
     style="fill:#2d6fb1;fill-rule:evenodd" />
  <path
     class="cls-3"
     d="m 88.315367,102.86242 c -3.85,1.47 -7.69,0.78 -8.59,-1.56 -0.9,-2.340062 1.51,-5.420072 5.36,-6.890072 3.85,-1.47 7.69,-0.78 8.59,1.55 0.9,2.33001 -1.51,5.420072 -5.36,6.900072 z"
     id="path34"
     inkscape:connector-curvature="0"
     style="fill:none;stroke:#ffffff;stroke-width:2.74000001px;stroke-linecap:round;stroke-linejoin:round" />
  <path
     class="cls-4"
     d="m 88.315367,102.86242 c -3.85,1.47 -7.69,0.78 -8.59,-1.56 -0.9,-2.340062 1.51,-5.420072 5.36,-6.890072 3.85,-1.47 7.69,-0.78 8.59,1.55 0.9,2.33001 -1.51,5.420072 -5.36,6.900072 z"
     id="path36"
     inkscape:connector-curvature="0"
     style="fill:#2d6fb1;fill-rule:evenodd" />
  <path
     class="cls-3"
     d="m 67.315367,107.23242 c -4.12,0.2 -7.56,-1.65 -7.68,-4.15 -0.12,-2.5 3.11,-4.680062 7.23,-4.890062 4.12,-0.21 7.55,1.65001 7.68,4.140062 0.13,2.49 -3.11,4.69 -7.23,4.9 z"
     id="path38"
     inkscape:connector-curvature="0"
     style="fill:none;stroke:#ffffff;stroke-width:2.74000001px;stroke-linecap:round;stroke-linejoin:round" />
  <path
     class="cls-4"
     d="m 67.315367,107.23242 c -4.12,0.2 -7.56,-1.65 -7.68,-4.15 -0.12,-2.5 3.11,-4.680062 7.23,-4.890062 4.12,-0.21 7.55,1.65001 7.68,4.140062 0.13,2.49 -3.11,4.69 -7.23,4.9 z"
     id="path40"
     inkscape:connector-curvature="0"
     style="fill:#2d6fb1;fill-rule:evenodd" />
  <path
     class="cls-3"
     d="m 47.075367,103.65242 c -4,-1.16 -6.59,-4.050052 -5.88,-6.450062 0.71,-2.40001 4.48,-3.39001 8.44,-2.23001 3.96,1.16 6.59,4.00001 5.88,6.450072 -0.71,2.45 -4.48,3.39 -8.44,2.23 z"
     id="path42"
     inkscape:connector-curvature="0"
     style="fill:none;stroke:#ffffff;stroke-width:2.74000001px;stroke-linecap:round;stroke-linejoin:round" />
  <path
     class="cls-4"
     d="m 47.075367,103.65242 c -4,-1.16 -6.59,-4.050052 -5.88,-6.450062 0.71,-2.40001 4.48,-3.39001 8.44,-2.23001 3.96,1.16 6.59,4.00001 5.88,6.450072 -0.71,2.45 -4.48,3.39 -8.44,2.23 z"
     id="path44"
     inkscape:connector-curvature="0"
     style="fill:#2d6fb1;fill-rule:evenodd" />
  <path
     class="cls-3"
     d="m 16.215367,76.162308 c -1.76,-3.729999 -1.36,-7.610003 0.89,-8.680004 2.25,-1.070001 5.52,1.080001 7.29,4.810005 1.77,3.729999 1.36,7.610009 -0.9,8.680009 -2.26,1.07001 -5.52,-1.08 -7.28,-4.81001 z"
     id="path46"
     inkscape:connector-curvature="0"
     style="fill:none;stroke:#ffffff;stroke-width:2.74000001px;stroke-linecap:round;stroke-linejoin:round" />
  <path
     class="cls-4"
     d="m 16.215367,76.162308 c -1.76,-3.729999 -1.36,-7.610003 0.89,-8.680004 2.25,-1.070001 5.52,1.080001 7.29,4.810005 1.77,3.729999 1.36,7.610009 -0.9,8.680009 -2.26,1.07001 -5.52,-1.08 -7.28,-4.81001 z"
     id="path48"
     inkscape:connector-curvature="0"
     style="fill:#2d6fb1;fill-rule:evenodd" />
  <path
     class="cls-3"
     d="m 11.775367,55.392292 c 0.5,-4.090001 2.91,-7.159999 5.39,-6.859999 2.48,0.3 4.09,3.859998 3.59,8 -0.5,4.140004 -2.91,7.170007 -5.39,6.870007 -2.48,-0.3 -4.09,-3.860004 -3.59,-8.000008 z"
     id="path50"
     inkscape:connector-curvature="0"
     style="fill:none;stroke:#ffffff;stroke-width:2.74000001px;stroke-linecap:round;stroke-linejoin:round" />
  <path
     class="cls-4"
     d="m 11.775367,55.392292 c 0.5,-4.090001 2.91,-7.159999 5.39,-6.859999 2.48,0.3 4.09,3.859998 3.59,8 -0.5,4.140004 -2.91,7.170007 -5.39,6.870007 -2.48,-0.3 -4.09,-3.860004 -3.59,-8.000008 z"
     id="path52"
     inkscape:connector-curvature="0"
     style="fill:#2d6fb1;fill-rule:evenodd" />
  <path
     class="cls-3"
     d="m 16.255367,36.042293 c 1.42,-3.88 4.47,-6.32 6.81,-5.46 2.34,0.86 3.1,4.7 1.68,8.57 -1.42,3.87 -4.43,6.3 -6.81,5.44 -2.38,-0.86 -3.1,-4.69 -1.68,-8.56 z"
     id="path54"
     inkscape:connector-curvature="0"
     style="fill:none;stroke:#ffffff;stroke-width:2.74000001px;stroke-linecap:round;stroke-linejoin:round" />
  <path
     class="cls-4"
     d="m 16.255367,36.042293 c 1.42,-3.88 4.47,-6.32 6.81,-5.46 2.34,0.86 3.1,4.7 1.68,8.57 -1.42,3.87 -4.43,6.3 -6.81,5.44 -2.38,-0.86 -3.1,-4.69 -1.68,-8.56 z"
     id="path56"
     inkscape:connector-curvature="0"
     style="fill:#2d6fb1;fill-rule:evenodd" />
  <path
     class="cls-3"
     d="m 28.655367,19.152292 c 3,-2.820001 6.84,-3.610001 8.54,-1.79 1.7,1.82 0.64,5.590001 -2.37,8.400001 -3.01,2.81 -6.84,3.61 -8.51,1.78 -1.67,-1.83 -0.64,-5.580001 2.38,-8.390001 z"
     id="path58"
     inkscape:connector-curvature="0"
     style="fill:none;stroke:#ffffff;stroke-width:2.74000001px;stroke-linecap:round;stroke-linejoin:round" />
  <path
     class="cls-4"
     d="m 28.655367,19.152292 c 3,-2.820001 6.84,-3.610001 8.54,-1.79 1.7,1.82 0.64,5.590001 -2.37,8.400001 -3.01,2.81 -6.84,3.61 -8.51,1.78 -1.67,-1.83 -0.64,-5.580001 2.38,-8.390001 z"
     id="path60"
     inkscape:connector-curvature="0"
     style="fill:#2d6fb1;fill-rule:evenodd" />
  <path
     class="cls-3"
     d="m 66.665367,3.8822766 c 4.12,0 7.47,2.000001 7.48,4.500003 0.01,2.5000104 -3.33,4.5300104 -7.45,4.5500114 -4.12,0.02 -7.47,-2.000001 -7.48,-4.5000114 -0.01,-2.500002 3.32,-4.530003 7.45,-4.550003 z"
     id="path62"
     inkscape:connector-curvature="0"
     style="fill:none;stroke:#ffffff;stroke-width:2.74000001px;stroke-linecap:round;stroke-linejoin:round" />
  <path
     class="cls-4"
     d="m 66.665367,3.8822766 c 4.12,0 7.47,2.000001 7.48,4.500003 0.01,2.5000104 -3.33,4.5300104 -7.45,4.5500114 -4.12,0.02 -7.47,-2.000001 -7.48,-4.5000114 -0.01,-2.500002 3.32,-4.530003 7.45,-4.550003 z"
     id="path64"
     inkscape:connector-curvature="0"
     style="fill:#2d6fb1;fill-rule:evenodd" />
  <path
     class="cls-3"
     d="m 46.625367,8.2522796 c -4,1.15 -6.6,4.0000104 -5.91,6.4200114 0.69,2.420001 4.48,3.410001 8.43,2.26 3.95,-1.15 6.61,-4.000001 5.91,-6.420001 -0.7,-2.4200104 -4.47,-3.4100114 -8.43,-2.2600104 z"
     id="path66"
     inkscape:connector-curvature="0"
     style="fill:none;stroke:#ffffff;stroke-width:2.74000001px;stroke-linecap:round;stroke-linejoin:round" />
  <path
     class="cls-4"
     d="m 46.625367,8.2522796 c -4,1.15 -6.6,4.0000104 -5.91,6.4200114 0.69,2.420001 4.48,3.410001 8.43,2.26 3.95,-1.15 6.61,-4.000001 5.91,-6.420001 -0.7,-2.4200104 -4.47,-3.4100114 -8.43,-2.2600104 z"
     id="path68"
     inkscape:connector-curvature="0"
     style="fill:#2d6fb1;fill-rule:evenodd" />
  <path
     class="cls-5"
     d="m 28.835367,92.572348 c -2.91,-2.93001 -3.83,-6.72002 -2.06,-8.49002 1.77,-1.77 5.56,-0.82 8.47,2.11 2.91,2.93001 3.83,6.72002 2.06,8.48002 -1.77,1.76 -5.56,0.82 -8.47,-2.1 z"
     id="path70"
     inkscape:connector-curvature="0"
     style="fill:none;stroke:#ffffff;stroke-width:2.74000001px;stroke-linecap:round;stroke-linejoin:round" />
  <path
     class="cls-4"
     d="m 28.835367,92.572348 c -2.91,-2.93001 -3.83,-6.72002 -2.06,-8.49002 1.77,-1.77 5.56,-0.82 8.47,2.11 2.91,2.93001 3.83,6.72002 2.06,8.48002 -1.77,1.76 -5.56,0.82 -8.47,-2.1 z"
     id="path72"
     inkscape:connector-curvature="0"
     style="fill:#2d6fb1;fill-rule:evenodd" />
  <g
     id="g113"
     transform="matrix(1.528431,6.3954469e-4,-5.4999883e-4,1.7772764,-389.39058,-121.92295)">
    <path
       style="fill:#2d6fb1"
       inkscape:connector-curvature="0"
       id="path76"
       d="m 380.31949,129.54335 a 3.61,3.61 0 0 1 1.21,0.71 3.79,3.79 0 0 1 0.88,1.05 3.43,3.43 0 0 1 0.42,1.21 2.24,2.24 0 0 1 -0.17,1.18 0.47,0.47 0 0 1 -0.28,0.23 1.43,1.43 0 0 1 -0.43,0.09 1.94,1.94 0 0 1 -0.48,0 1.6,1.6 0 0 1 -0.42,-0.13 0.47,0.47 0 0 1 -0.24,-0.22 c 0,-0.08 0,-0.17 0.07,-0.27 a 2,2 0 0 0 0.45,-0.81 2.63,2.63 0 0 0 0.09,-0.87 1.91,1.91 0 0 0 -0.23,-0.79 1.48,1.48 0 0 0 -0.48,-0.56 1.28,1.28 0 0 0 -0.71,-0.2 1.62,1.62 0 0 0 -0.89,0.31 3.37,3.37 0 0 0 -0.86,0.78 4.16,4.16 0 0 0 -0.57,1 3.93,3.93 0 0 0 -0.24,1.17 3.14,3.14 0 0 0 0.14,1.18 c 0,0 0,0 0,0 v 0 a 4.76,4.76 0 0 1 1.05,0 2.42,2.42 0 0 1 1,0.28 1.45,1.45 0 0 1 0.36,0.28 0.69,0.69 0 0 1 0.18,0.36 0.8,0.8 0 0 1 0,0.26 0.67,0.67 0 0 1 -0.18,0.31 1.37,1.37 0 0 1 -0.26,0.2 1.5,1.5 0 0 1 -0.36,0.17 l -0.26,0.1 a 3.67,3.67 0 0 1 -2.58,-0.19 h -0.05 a 4.6,4.6 0 0 0 -1.09,0.93 6.14,6.14 0 0 0 -0.73,1.12 5,5 0 0 0 -0.44,1.2 3.2,3.2 0 0 0 -0.09,0.62 3,3 0 0 0 0,0.6 3,3 0 0 0 0.4,1.18 3.35,3.35 0 0 0 1.09,1.17 2.53,2.53 0 0 0 1.3,0.4 3,3 0 0 0 1.35,-0.31 4.15,4.15 0 0 0 1.25,-1 3.31,3.31 0 0 0 0.54,-0.8 2.75,2.75 0 0 0 0.26,-0.88 1.92,1.92 0 0 0 -0.09,-0.83 1.42,1.42 0 0 0 -0.49,-0.68 1.46,1.46 0 0 0 -0.71,-0.3 1.64,1.64 0 0 0 -1.47,0.47 1.44,1.44 0 0 0 -0.39,0.79 c 0,0.14 -0.12,0.23 -0.3,0.29 a 1.78,1.78 0 0 1 -0.57,0.06 1.64,1.64 0 0 1 -0.56,-0.12 c -0.16,-0.08 -0.24,-0.18 -0.23,-0.32 a 1.27,1.27 0 0 1 0.29,-0.77 2.6,2.6 0 0 1 0.71,-0.6 3.72,3.72 0 0 1 1,-0.39 3.81,3.81 0 0 1 1.05,-0.15 3.19,3.19 0 0 1 1,0.16 1.73,1.73 0 0 1 0.76,0.49 2.38,2.38 0 0 1 0.51,0.9 2.69,2.69 0 0 1 0.11,1 3.33,3.33 0 0 1 -0.27,1 3.89,3.89 0 0 1 -0.65,1 4.84,4.84 0 0 1 -1.14,1 5,5 0 0 1 -1.35,0.58 c -0.24,0 -0.47,0.09 -0.71,0.12 a 4.28,4.28 0 0 1 -0.72,0 4.4,4.4 0 0 1 -0.73,0 5.1,5.1 0 0 1 -0.7,-0.14 4.09,4.09 0 0 1 -2.51,-1.89 3.8,3.8 0 0 1 -0.4,-2.85 6,6 0 0 1 1.3,-2.55 4.8,4.8 0 0 1 1,-0.89 7.86,7.86 0 0 1 1.31,-0.75 c -0.05,-0.08 -0.09,-0.16 -0.13,-0.24 l -0.09,-0.28 a 3.66,3.66 0 0 1 -0.17,-1.36 4.42,4.42 0 0 1 0.29,-1.38 4.06,4.06 0 0 1 0.68,-1.2 3.55,3.55 0 0 1 1,-0.88 4.38,4.38 0 0 1 0.65,-0.32 3.93,3.93 0 0 1 0.82,-0.23 4.11,4.11 0 0 1 0.94,-0.05 3.48,3.48 0 0 1 1,0.2 z m 8.42,5.34 a 4.27,4.27 0 0 1 -0.22,1.06 c -0.13,0.37 -0.28,0.73 -0.44,1.08 -0.16,0.35 -0.32,0.69 -0.49,1 a 8.77,8.77 0 0 0 -0.37,0.84 1.21,1.21 0 0 0 -0.11,0.57 c 0,0.14 0.12,0.21 0.31,0.21 a 0.64,0.64 0 0 0 0.37,-0.21 5.13,5.13 0 0 0 0.52,-0.57 c 0.19,-0.23 0.38,-0.49 0.58,-0.78 0.2,-0.29 0.39,-0.58 0.57,-0.86 0.18,-0.28 0.34,-0.56 0.47,-0.82 a 5.46,5.46 0 0 0 0.3,-0.64 0.22,0.22 0 0 1 0.15,-0.15 0.31,0.31 0 0 1 0.19,0 0.27,0.27 0 0 1 0.14,0.12 0.19,0.19 0 0 1 0,0.19 c -0.08,0.17 -0.19,0.4 -0.34,0.69 -0.15,0.29 -0.32,0.6 -0.52,0.93 -0.2,0.33 -0.42,0.66 -0.66,1 a 10.19,10.19 0 0 1 -0.73,0.92 4.71,4.71 0 0 1 -0.76,0.68 1.36,1.36 0 0 1 -0.74,0.26 0.71,0.71 0 0 1 -0.5,-0.14 1.11,1.11 0 0 1 -0.34,-0.42 1.91,1.91 0 0 1 -0.18,-0.6 2.15,2.15 0 0 1 0,-0.67 5.56,5.56 0 0 1 0.28,-1.19 c 0.14,-0.4 0.29,-0.77 0.45,-1.13 0.16,-0.36 0.32,-0.69 0.48,-1 a 6,6 0 0 0 0.35,-0.78 1,1 0 0 0 0.08,-0.51 c 0,-0.12 -0.14,-0.18 -0.34,-0.17 a 1,1 0 0 0 -0.46,0.26 6,6 0 0 0 -0.64,0.62 c -0.23,0.25 -0.47,0.53 -0.7,0.83 -0.23,0.3 -0.45,0.59 -0.64,0.86 -0.19,0.27 -0.38,0.77 -0.58,1.15 -0.2,0.38 -0.38,0.73 -0.54,1.07 a 6.64,6.64 0 0 0 -0.35,0.88 0.83,0.83 0 0 0 0,0.59 c 0,0.08 0,0.16 -0.1,0.25 a 0.71,0.71 0 0 1 -0.4,0.13 0.92,0.92 0 0 1 -0.5,-0.16 1,1 0 0 1 -0.39,-0.6 1.72,1.72 0 0 1 0,-0.93 9.07,9.07 0 0 1 0.39,-1.23 c 0.16,-0.44 0.35,-0.89 0.56,-1.35 l 0.56,-1.26 a 7.5,7.5 0 0 0 0.37,-1 c 0.08,-0.27 0.08,-0.45 0,-0.53 -0.08,-0.08 0,-0.13 0.09,-0.21 a 1.23,1.23 0 0 1 0.51,-0.13 1.37,1.37 0 0 1 0.61,0.13 0.93,0.93 0 0 1 0.44,0.59 1.45,1.45 0 0 1 0.05,0.43 3,3 0 0 1 -0.08,0.48 c 0.19,-0.22 0.38,-0.43 0.57,-0.62 a 5.43,5.43 0 0 1 0.56,-0.5 3.4,3.4 0 0 1 0.58,-0.36 1.42,1.42 0 0 1 0.54,-0.13 0.89,0.89 0 0 1 0.86,0.5 2.16,2.16 0 0 1 0.18,1.33 z m 7.33,0.75 a 0.24,0.24 0 0 1 0.09,0.33 11.21,11.21 0 0 1 -0.6,1.11 10.47,10.47 0 0 1 -0.78,1.14 10.08,10.08 0 0 1 -0.92,1 5.34,5.34 0 0 1 -1,0.76 3.2,3.2 0 0 1 -1.07,0.38 1.91,1.91 0 0 1 -1.08,-0.13 1.66,1.66 0 0 1 -0.85,-0.69 2.38,2.38 0 0 1 -0.3,-1 3.65,3.65 0 0 1 0.09,-1.13 7.12,7.12 0 0 1 0.32,-1.07 7.78,7.78 0 0 1 0.79,-1.53 5.21,5.21 0 0 1 0.92,-1 3.75,3.75 0 0 1 1,-0.59 3.14,3.14 0 0 1 1.05,-0.19 1.06,1.06 0 0 1 0.8,0.27 1,1 0 0 1 0.26,0.69 2.29,2.29 0 0 1 -0.24,0.95 4,4 0 0 1 -0.67,1 5.17,5.17 0 0 1 -1.05,0.9 5,5 0 0 1 -1.39,0.61 5.37,5.37 0 0 0 -0.15,0.76 3.22,3.22 0 0 0 0,0.69 1.23,1.23 0 0 0 0.14,0.51 0.45,0.45 0 0 0 0.33,0.25 1.25,1.25 0 0 0 0.7,-0.09 3.39,3.39 0 0 0 0.77,-0.47 6.34,6.34 0 0 0 0.77,-0.72 c 0.25,-0.28 0.48,-0.57 0.7,-0.87 a 10.74,10.74 0 0 0 0.59,-0.91 5.75,5.75 0 0 0 0.41,-0.83 0.24,0.24 0 0 1 0.15,-0.16 0.27,0.27 0 0 1 0.23,0 z m -4.32,0.93 a 3.11,3.11 0 0 0 -0.12,0.3 4,4 0 0 0 1.45,-0.85 4.11,4.11 0 0 0 0.85,-1.06 2,2 0 0 0 0.29,-0.91 c 0,-0.26 -0.08,-0.39 -0.26,-0.4 -0.18,-0.01 -0.6,0.25 -1,0.77 a 10.53,10.53 0 0 0 -1.21,2.15 z m 4.37,-0.48 a 0.24,0.24 0 0 1 -0.14,0.12 0.28,0.28 0 0 1 -0.18,0 0.25,0.25 0 0 1 -0.13,-0.12 0.18,0.18 0 0 1 0,-0.19 c 0,-0.09 0.08,-0.23 0.16,-0.41 0.08,-0.18 0.16,-0.37 0.24,-0.58 l 0.24,-0.59 a 4.45,4.45 0 0 0 0.16,-0.48 1.5,1.5 0 0 1 -0.59,-0.51 1.29,1.29 0 0 1 -0.24,-0.71 1.25,1.25 0 0 1 0.24,-0.78 0.8,0.8 0 0 1 0.69,-0.29 0.63,0.63 0 0 1 0.5,0.25 0.86,0.86 0 0 1 0.23,0.58 c 0,0.13 0,0.3 0,0.53 a 2.58,2.58 0 0 1 -0.08,0.56 0.4,0.4 0 0 0 0.2,0.07 h 0.27 a 1.64,1.64 0 0 0 0.51,-0.07 3.17,3.17 0 0 0 0.32,-0.16 l 0.26,-0.15 a 0.74,0.74 0 0 1 0.36,-0.08 1.29,1.29 0 0 1 0.59,0.15 0.9,0.9 0 0 1 0.43,0.57 1.83,1.83 0 0 1 -0.05,1.05 7.83,7.83 0 0 1 -0.49,1.27 c -0.21,0.45 -0.44,0.88 -0.68,1.32 -0.24,0.44 -0.44,0.82 -0.61,1.15 a 3,3 0 0 0 -0.28,0.82 c 0,0.2 0.08,0.29 0.31,0.27 a 0.79,0.79 0 0 0 0.37,-0.24 5,5 0 0 0 0.51,-0.56 c 0.19,-0.24 0.38,-0.49 0.58,-0.78 0.2,-0.29 0.38,-0.57 0.56,-0.86 0.18,-0.29 0.33,-0.55 0.47,-0.81 a 4.77,4.77 0 0 0 0.3,-0.63 0.23,0.23 0 0 1 0.14,-0.15 0.34,0.34 0 0 1 0.2,0 0.27,0.27 0 0 1 0.14,0.12 0.19,0.19 0 0 1 0,0.19 c -0.08,0.17 -0.19,0.4 -0.34,0.69 -0.15,0.29 -0.32,0.6 -0.52,0.93 -0.2,0.33 -0.43,0.66 -0.66,1 a 10.19,10.19 0 0 1 -0.73,0.92 5.17,5.17 0 0 1 -0.76,0.68 1.36,1.36 0 0 1 -0.74,0.26 0.84,0.84 0 0 1 -0.51,-0.12 1,1 0 0 1 -0.35,-0.37 1.64,1.64 0 0 1 -0.17,-0.59 3.13,3.13 0 0 1 0,-0.75 5.45,5.45 0 0 1 0.28,-1.22 c 0.14,-0.44 0.31,-0.86 0.48,-1.28 0.17,-0.42 0.35,-0.81 0.52,-1.17 a 8.41,8.41 0 0 0 0.37,-0.93 2.48,2.48 0 0 1 -0.7,0.14 3,3 0 0 1 -0.78,-0.08 c 0,0.06 -0.08,0.19 -0.15,0.37 -0.07,0.18 -0.16,0.38 -0.24,0.59 l -0.27,0.62 c -0.09,0.2 -0.16,0.36 -0.22,0.47 z m 8.74,-1.86 a 0.4,0.4 0 0 1 0.06,-0.22 0.73,0.73 0 0 1 0.17,-0.18 0.25,0.25 0 0 0 -0.23,-0.18 0.66,0.66 0 0 0 -0.46,0.19 3,3 0 0 0 -0.54,0.57 8.42,8.42 0 0 0 -0.6,0.93 c -0.2,0.37 -0.41,0.78 -0.62,1.23 a 6.35,6.35 0 0 0 -0.32,0.93 4.65,4.65 0 0 0 -0.14,0.94 2.39,2.39 0 0 0 0.09,0.79 0.62,0.62 0 0 0 0.37,0.44 c 0.22,0.09 0.45,0 0.7,-0.24 a 5.08,5.08 0 0 0 0.73,-1 15,15 0 0 0 0.72,-1.33 c 0.23,-0.48 0.45,-0.9 0.64,-1.26 a 0.08,0.08 0 0 1 0,-0.06 c 0.26,-0.63 0.47,-1.17 0.61,-1.61 0.14,-0.44 0.17,-0.72 0.1,-0.83 -0.07,-0.11 0,-0.13 0.13,-0.2 a 1.13,1.13 0 0 1 0.51,-0.14 1.16,1.16 0 0 1 0.62,0.15 1,1 0 0 1 0.43,0.62 1.59,1.59 0 0 1 -0.07,0.8 c -0.1,0.37 -0.24,0.79 -0.41,1.25 -0.17,0.46 -0.38,1 -0.61,1.46 -0.23,0.46 -0.44,1 -0.65,1.43 -0.21,0.43 -0.39,0.84 -0.55,1.17 -0.16,0.33 -0.25,0.57 -0.29,0.69 a 6,6 0 0 0 1.11,-1 17,17 0 0 0 1.07,-1.34 c 0.34,-0.47 0.63,-0.93 0.89,-1.37 a 7.33,7.33 0 0 0 0.53,-1.06 0.24,0.24 0 0 1 0.15,-0.17 0.25,0.25 0 0 1 0.19,0 0.24,0.24 0 0 1 0.14,0.12 0.18,0.18 0 0 1 0,0.19 15.75,15.75 0 0 1 -0.85,1.59 17.55,17.55 0 0 1 -1.11,1.6 13.07,13.07 0 0 1 -1.27,1.38 6.29,6.29 0 0 1 -1.3,0.94 l -0.24,0.56 -0.3,0.7 c -0.11,0.24 -0.2,0.46 -0.28,0.67 l -0.19,0.46 a 1.75,1.75 0 0 1 -0.46,0.7 2.22,2.22 0 0 1 -0.72,0.44 2.87,2.87 0 0 1 -0.82,0.18 2.55,2.55 0 0 1 -0.8,-0.09 1.52,1.52 0 0 1 -0.64,-0.37 1.12,1.12 0 0 1 -0.35,-0.66 0.72,0.72 0 0 1 0,-0.31 0.94,0.94 0 0 1 0.25,-0.4 2.81,2.81 0 0 1 0.57,-0.42 c 0.22,-0.13 0.46,-0.25 0.7,-0.37 l 0.71,-0.36 a 3.06,3.06 0 0 0 0.59,-0.41 c 0.1,-0.28 0.22,-0.58 0.35,-0.91 0.13,-0.33 0.28,-0.69 0.44,-1.05 a 2.22,2.22 0 0 1 -0.94,0.55 1.82,1.82 0 0 1 -1.15,-0.11 1.63,1.63 0 0 1 -0.84,-0.69 2.34,2.34 0 0 1 -0.31,-1 3.61,3.61 0 0 1 0.09,-1.12 7.1,7.1 0 0 1 0.33,-1.07 7.37,7.37 0 0 1 0.79,-1.54 4.81,4.81 0 0 1 0.92,-1.05 3.25,3.25 0 0 1 1,-0.59 3.19,3.19 0 0 1 1.05,-0.16 1.92,1.92 0 0 1 0.38,0.07 1.12,1.12 0 0 1 0.37,0.17 1,1 0 0 1 0.28,0.32 0.91,0.91 0 0 1 0.12,0.49 0.58,0.58 0 0 1 -0.13,0.43 0.4,0.4 0 0 1 -0.33,0.15 0.47,0.47 0 0 1 -0.31,-0.12 0.37,0.37 0 0 1 -0.14,-0.31 z m -2.17,8.2 a 2.17,2.17 0 0 1 -0.51,0.31 l -0.56,0.27 a 5.54,5.54 0 0 0 -0.53,0.3 1.32,1.32 0 0 0 -0.43,0.38 0.53,0.53 0 0 0 -0.08,0.32 0.62,0.62 0 0 0 0.14,0.32 0.69,0.69 0 0 0 0.28,0.22 0.58,0.58 0 0 0 0.37,0 1.05,1.05 0 0 0 0.43,-0.29 2,2 0 0 0 0.41,-0.7 c 0.06,-0.14 0.13,-0.3 0.22,-0.49 0.09,-0.19 0.17,-0.4 0.26,-0.65 z m 10.05,-6.49 a 0.19,0.19 0 0 0 0,-0.19 0.31,0.31 0 0 0 -0.14,-0.12 0.34,0.34 0 0 0 -0.2,0 0.23,0.23 0 0 0 -0.14,0.15 4.77,4.77 0 0 1 -0.3,0.63 c -0.14,0.26 -0.29,0.53 -0.47,0.81 -0.18,0.28 -0.37,0.57 -0.56,0.86 -0.19,0.29 -0.39,0.54 -0.58,0.78 a 4.16,4.16 0 0 1 -0.51,0.56 0.75,0.75 0 0 1 -0.37,0.24 c -0.23,0 -0.33,-0.07 -0.31,-0.27 a 3,3 0 0 1 0.28,-0.82 c 0.17,-0.33 0.37,-0.72 0.61,-1.15 0.24,-0.43 0.47,-0.87 0.68,-1.32 a 8.88,8.88 0 0 0 0.49,-1.27 1.83,1.83 0 0 0 0,-1.05 0.91,0.91 0 0 0 -0.45,-0.59 1.41,1.41 0 0 0 -0.62,-0.13 1.18,1.18 0 0 0 -0.49,0.13 c -0.13,0.08 -0.16,0.15 -0.1,0.21 a 0.38,0.38 0 0 1 0,0.38 3.89,3.89 0 0 1 -0.24,0.7 c -0.11,0.27 -0.24,0.58 -0.39,0.92 -0.15,0.34 -0.31,0.69 -0.45,1.06 -0.14,0.37 -0.28,0.72 -0.4,1.09 a 6.15,6.15 0 0 0 -0.22,1 3.13,3.13 0 0 0 0,0.75 1.64,1.64 0 0 0 0.17,0.59 1,1 0 0 0 0.35,0.37 0.84,0.84 0 0 0 0.51,0.12 1.36,1.36 0 0 0 0.74,-0.26 5.17,5.17 0 0 0 0.76,-0.68 10.19,10.19 0 0 0 0.73,-0.92 q 0.35,-0.5 0.66,-1 c 0.2,-0.33 0.37,-0.64 0.52,-0.93 0.15,-0.29 0.26,-0.52 0.34,-0.69 z m -1.83,-6.33 c 0,-0.07 0,-0.11 0.17,-0.12 a 1.27,1.27 0 0 1 0.45,0.06 1.53,1.53 0 0 1 0.46,0.23 0.5,0.5 0 0 1 0.22,0.42 2,2 0 0 1 -0.18,0.86 3.27,3.27 0 0 1 -0.48,0.79 2.2,2.2 0 0 1 -0.6,0.52 0.46,0.46 0 0 1 -0.51,0 c -0.09,-0.06 -0.11,-0.21 -0.07,-0.47 a 6.82,6.82 0 0 1 0.2,-0.85 c 0.09,-0.31 0.17,-0.6 0.26,-0.88 a 1.36,1.36 0 0 0 0.08,-0.6 z m 5.09,4.62 a 0.34,0.34 0 0 1 0.07,-0.22 0.58,0.58 0 0 1 0.17,-0.18 0.25,0.25 0 0 0 -0.24,-0.18 0.66,0.66 0 0 0 -0.46,0.19 3.81,3.81 0 0 0 -0.54,0.57 7.21,7.21 0 0 0 -0.59,0.93 c -0.21,0.37 -0.42,0.78 -0.62,1.23 a 5.36,5.36 0 0 0 -0.32,0.93 4.65,4.65 0 0 0 -0.14,0.94 2.39,2.39 0 0 0 0.09,0.79 0.6,0.6 0 0 0 0.37,0.44 0.45,0.45 0 0 0 0.43,0 1.89,1.89 0 0 0 0.46,-0.41 7.2,7.2 0 0 0 0.47,-0.68 c 0.16,-0.27 0.32,-0.55 0.47,-0.84 0.15,-0.29 0.3,-0.58 0.45,-0.87 0.15,-0.29 0.28,-0.56 0.4,-0.8 0.12,-0.24 0.28,-0.63 0.41,-0.92 0.13,-0.29 0.24,-0.56 0.33,-0.79 a 3.16,3.16 0 0 0 0.18,-0.59 0.36,0.36 0 0 0 -0.05,-0.33 c -0.06,-0.06 0,-0.13 0.1,-0.21 a 1.18,1.18 0 0 1 0.49,-0.13 1.41,1.41 0 0 1 0.62,0.13 0.91,0.91 0 0 1 0.45,0.59 1.83,1.83 0 0 1 -0.05,1.05 8.88,8.88 0 0 1 -0.49,1.27 c -0.21,0.45 -0.44,0.88 -0.68,1.32 -0.24,0.44 -0.44,0.82 -0.61,1.15 a 3,3 0 0 0 -0.28,0.82 c 0,0.2 0.08,0.29 0.31,0.27 a 0.79,0.79 0 0 0 0.37,-0.24 5,5 0 0 0 0.51,-0.56 c 0.19,-0.24 0.38,-0.49 0.59,-0.78 0.21,-0.29 0.38,-0.57 0.56,-0.86 0.18,-0.29 0.32,-0.55 0.46,-0.81 a 4.77,4.77 0 0 0 0.3,-0.63 0.21,0.21 0 0 1 0.14,-0.15 0.34,0.34 0 0 1 0.2,0 0.31,0.31 0 0 1 0.14,0.12 0.19,0.19 0 0 1 0,0.19 c -0.08,0.17 -0.19,0.4 -0.34,0.69 -0.15,0.29 -0.32,0.6 -0.53,0.93 -0.21,0.33 -0.42,0.66 -0.65,1 a 10.19,10.19 0 0 1 -0.73,0.92 5.17,5.17 0 0 1 -0.76,0.68 1.36,1.36 0 0 1 -0.74,0.26 0.84,0.84 0 0 1 -0.84,-0.46 2,2 0 0 1 -0.21,-1.24 6.91,6.91 0 0 1 -0.59,0.84 2.87,2.87 0 0 1 -0.67,0.6 2,2 0 0 1 -0.77,0.26 1.74,1.74 0 0 1 -0.89,-0.16 1.66,1.66 0 0 1 -0.85,-0.69 2.48,2.48 0 0 1 -0.3,-1 3.61,3.61 0 0 1 0.09,-1.12 6.12,6.12 0 0 1 0.32,-1.07 7.88,7.88 0 0 1 0.79,-1.54 5.08,5.08 0 0 1 0.92,-1.05 3.29,3.29 0 0 1 1,-0.59 3.09,3.09 0 0 1 1,-0.16 1.8,1.8 0 0 1 0.38,0.07 1,1 0 0 1 0.37,0.17 1,1 0 0 1 0.29,0.32 0.91,0.91 0 0 1 0.12,0.49 0.53,0.53 0 0 1 -0.15,0.44 0.4,0.4 0 0 1 -0.31,0.14 0.47,0.47 0 0 1 -0.32,-0.12 0.4,0.4 0 0 1 -0.14,-0.31 z"
       class="cls-7" />
    <path
       style="fill:#2d6fb1"
       inkscape:connector-curvature="0"
       id="path80"
       d="m 433.16949,129.66335 a 4.76,4.76 0 0 1 1.29,0.84 4.28,4.28 0 0 1 1,1.21 3.5,3.5 0 0 1 0.42,1.4 2.36,2.36 0 0 1 -0.31,1.43 0.58,0.58 0 0 1 -0.42,0.27 1.57,1.57 0 0 1 -0.61,0 1.18,1.18 0 0 1 -0.48,-0.2 0.22,0.22 0 0 1 -0.07,-0.33 2.81,2.81 0 0 0 0.47,-1.42 3,3 0 0 0 -0.23,-1.25 2.37,2.37 0 0 0 -0.69,-0.89 1.42,1.42 0 0 0 -0.89,-0.34 0.43,0.43 0 0 0 -0.43,0.33 2.16,2.16 0 0 0 -0.1,0.81 8,8 0 0 0 0.11,1.11 c 0.07,0.41 0.15,0.81 0.25,1.19 0.1,0.38 0.18,0.74 0.28,1.06 0.1,0.32 0.16,0.55 0.21,0.7 0.17,0.5 0.33,1 0.5,1.52 a 12.08,12.08 0 0 1 0.37,1.58 6.16,6.16 0 0 1 -0.19,3.18 3.36,3.36 0 0 1 -0.81,1.27 4.43,4.43 0 0 1 -1.39,0.92 5.89,5.89 0 0 1 -2.29,0.46 c -0.4,0 -0.83,0 -1.28,-0.05 a 6.38,6.38 0 0 1 -1.24,-0.22 3.71,3.71 0 0 1 -1.82,-1 3,3 0 0 1 -0.76,-1.69 4.18,4.18 0 0 1 1.21,-3.41 2.76,2.76 0 0 1 1.59,-0.8 2.5,2.5 0 0 1 1.06,0.09 3,3 0 0 1 1.11,0.55 2.41,2.41 0 0 1 0.75,1 1.88,1.88 0 0 1 0,1.38 0.51,0.51 0 0 1 -0.42,0.33 1.77,1.77 0 0 1 -0.65,0 1.34,1.34 0 0 1 -0.56,-0.22 0.26,0.26 0 0 1 -0.11,-0.38 2,2 0 0 0 0.23,-0.92 1.52,1.52 0 0 0 -0.2,-0.73 1.17,1.17 0 0 0 -0.5,-0.44 1.08,1.08 0 0 0 -0.61,-0.1 2.36,2.36 0 0 0 -1.26,0.63 3.66,3.66 0 0 0 -1,3 2.33,2.33 0 0 0 0.62,1.31 3.08,3.08 0 0 0 1.46,0.89 3.93,3.93 0 0 0 1.87,0 4,4 0 0 0 1.63,-0.74 2.92,2.92 0 0 0 1,-1.3 4.75,4.75 0 0 0 0.26,-1.44 7.35,7.35 0 0 0 -0.12,-1.47 13.61,13.61 0 0 0 -0.36,-1.5 c -0.15,-0.5 -0.31,-1 -0.48,-1.51 -0.17,-0.51 -0.41,-1.27 -0.58,-1.87 a 7.43,7.43 0 0 1 -0.29,-1.77 3,3 0 0 1 0.25,-1.45 2,2 0 0 1 0.32,-0.53 1.9,1.9 0 0 1 0.45,-0.4 1.62,1.62 0 0 1 0.55,-0.22 3.11,3.11 0 0 1 0.69,-0.07 4.06,4.06 0 0 1 0.7,0.08 2.9,2.9 0 0 1 0.63,0.18 z m 8,4.44 a 0.5,0.5 0 0 1 -0.09,0.34 0.39,0.39 0 0 1 -0.37,0.23 0.49,0.49 0 0 1 -0.32,-0.12 0.4,0.4 0 0 1 -0.14,-0.31 0.34,0.34 0 0 1 0.07,-0.22 0.58,0.58 0 0 1 0.17,-0.18 q -0.12,-0.21 -0.27,-0.21 a 0.56,0.56 0 0 0 -0.34,0.13 2.19,2.19 0 0 0 -0.36,0.34 l -0.36,0.43 a 6.79,6.79 0 0 0 -0.6,0.93 9.56,9.56 0 0 0 -0.51,1.07 10,10 0 0 0 -0.35,1.1 4,4 0 0 0 -0.14,1 1.74,1.74 0 0 0 0.12,0.73 0.59,0.59 0 0 0 0.45,0.34 0.57,0.57 0 0 0 0.49,-0.2 3.83,3.83 0 0 0 0.55,-0.62 c 0.18,-0.26 0.36,-0.54 0.53,-0.84 0.17,-0.3 0.32,-0.57 0.45,-0.83 a 0.75,0.75 0 0 1 -0.43,-0.44 1.16,1.16 0 0 1 -0.07,-0.61 1.14,1.14 0 0 1 0.23,-0.54 0.6,0.6 0 0 1 0.49,-0.24 h 0.27 a 0.45,0.45 0 0 1 0.28,0.16 0.73,0.73 0 0 1 0.13,0.45 2.83,2.83 0 0 1 -0.16,0.9 2.61,2.61 0 0 0 0.94,-0.16 2.07,2.07 0 0 0 0.56,-0.33 0.93,0.93 0 0 0 0.26,-0.34 1.79,1.79 0 0 1 0.1,-0.22 0.17,0.17 0 0 1 0.14,-0.12 0.23,0.23 0 0 1 0.18,0 0.23,0.23 0 0 1 0.13,0.14 0.26,0.26 0 0 1 0,0.21 1.48,1.48 0 0 1 -0.36,0.52 2.45,2.45 0 0 1 -0.59,0.4 3.06,3.06 0 0 1 -0.74,0.25 3.17,3.17 0 0 1 -0.81,0.07 c -0.14,0.31 -0.32,0.65 -0.53,1 a 5.88,5.88 0 0 1 -0.73,1 4,4 0 0 1 -0.91,0.79 1.66,1.66 0 0 1 -1,0.27 1.62,1.62 0 0 1 -1.16,-0.62 2.29,2.29 0 0 1 -0.45,-1.33 5.28,5.28 0 0 1 0.12,-1.23 6.83,6.83 0 0 1 1,-2.44 5.42,5.42 0 0 1 0.87,-1 3.76,3.76 0 0 1 1.05,-0.63 2.79,2.79 0 0 1 1.18,-0.19 1,1 0 0 1 0.47,0.12 1.31,1.31 0 0 1 0.3,0.27 1,1 0 0 1 0.18,0.34 2.9,2.9 0 0 1 0.09,0.34 z m 5.36,0.14 a 0.4,0.4 0 0 1 0.06,-0.22 0.73,0.73 0 0 1 0.17,-0.18 0.25,0.25 0 0 0 -0.23,-0.18 0.66,0.66 0 0 0 -0.46,0.19 3,3 0 0 0 -0.54,0.57 8.42,8.42 0 0 0 -0.6,0.93 c -0.2,0.37 -0.41,0.78 -0.62,1.23 a 5.87,5.87 0 0 0 -0.32,1 5,5 0 0 0 -0.14,1 2.14,2.14 0 0 0 0.08,0.79 0.51,0.51 0 0 0 0.38,0.39 1.25,1.25 0 0 0 0.7,-0.09 3.39,3.39 0 0 0 0.77,-0.47 5.68,5.68 0 0 0 0.77,-0.72 c 0.25,-0.28 0.49,-0.57 0.71,-0.87 0.22,-0.3 0.41,-0.61 0.59,-0.91 a 6.82,6.82 0 0 0 0.4,-0.83 0.26,0.26 0 0 1 0.15,-0.16 0.34,0.34 0 0 1 0.22,0 0.23,0.23 0 0 1 0.11,0.31 10.93,10.93 0 0 1 -0.59,1.1 10.72,10.72 0 0 1 -0.77,1.13 10.17,10.17 0 0 1 -0.93,1 4.81,4.81 0 0 1 -1,0.78 3.2,3.2 0 0 1 -1.08,0.39 2,2 0 0 1 -1.09,-0.13 1.63,1.63 0 0 1 -0.84,-0.69 2.34,2.34 0 0 1 -0.31,-1 3.61,3.61 0 0 1 0.09,-1.12 7.1,7.1 0 0 1 0.33,-1.07 7.37,7.37 0 0 1 0.79,-1.54 4.81,4.81 0 0 1 0.92,-1.05 3.25,3.25 0 0 1 1,-0.59 3.19,3.19 0 0 1 1.05,-0.16 1.92,1.92 0 0 1 0.38,0.07 1.12,1.12 0 0 1 0.37,0.17 1,1 0 0 1 0.28,0.32 0.91,0.91 0 0 1 0.12,0.49 0.58,0.58 0 0 1 -0.13,0.43 0.4,0.4 0 0 1 -0.33,0.15 0.47,0.47 0 0 1 -0.31,-0.12 0.37,0.37 0 0 1 -0.14,-0.31 z m 4.53,-1.92 q 0,0.12 -0.24,0.12 a 1.42,1.42 0 0 1 -0.51,-0.11 1.7,1.7 0 0 1 -0.51,-0.36 0.85,0.85 0 0 1 -0.23,-0.61 0.6,0.6 0 0 1 0.09,-0.27 c 0.05,-0.12 0.12,-0.24 0.19,-0.37 0.07,-0.13 0.14,-0.24 0.2,-0.35 a 0.58,0.58 0 0 0 0.09,-0.25 c 0,-0.07 0.08,-0.1 0.22,-0.1 a 1.35,1.35 0 0 1 1,0.47 0.84,0.84 0 0 1 0.22,0.6 0.51,0.51 0 0 1 -0.08,0.25 l -0.17,0.34 a 3,3 0 0 0 -0.18,0.36 0.63,0.63 0 0 0 -0.08,0.28 z m 1.06,3.63 a 0.19,0.19 0 0 0 0,-0.19 0.27,0.27 0 0 0 -0.14,-0.12 0.31,0.31 0 0 0 -0.19,0 0.22,0.22 0 0 0 -0.15,0.15 4.77,4.77 0 0 1 -0.3,0.63 c -0.14,0.26 -0.29,0.53 -0.47,0.81 -0.18,0.28 -0.36,0.57 -0.56,0.86 -0.2,0.29 -0.39,0.54 -0.58,0.78 a 4.16,4.16 0 0 1 -0.51,0.56 0.71,0.71 0 0 1 -0.37,0.24 q -0.35,0 -0.3,-0.27 a 2.47,2.47 0 0 1 0.28,-0.82 c 0.16,-0.33 0.36,-0.72 0.6,-1.15 0.24,-0.43 0.47,-0.87 0.68,-1.32 a 7.83,7.83 0 0 0 0.49,-1.27 1.83,1.83 0 0 0 0,-1.05 0.91,0.91 0 0 0 -0.45,-0.59 1.4,1.4 0 0 0 -0.61,-0.13 1.18,1.18 0 0 0 -0.5,0.13 q -0.19,0.12 -0.09,0.21 a 0.42,0.42 0 0 1 0,0.38 4.66,4.66 0 0 1 -0.23,0.7 l -0.4,0.92 c -0.15,0.34 -0.3,0.69 -0.45,1.06 a 10.9,10.9 0 0 0 -0.3,1.07 5.36,5.36 0 0 0 -0.23,1 3.13,3.13 0 0 0 0,0.75 1.87,1.87 0 0 0 0.17,0.59 1,1 0 0 0 0.35,0.37 0.84,0.84 0 0 0 0.51,0.12 1.36,1.36 0 0 0 0.74,-0.26 4.71,4.71 0 0 0 0.76,-0.68 10.19,10.19 0 0 0 0.7,-0.89 q 0.36,-0.5 0.66,-1 c 0.2,-0.33 0.37,-0.64 0.52,-0.93 0.15,-0.29 0.26,-0.52 0.34,-0.69 z m 3.26,-1.71 a 0.34,0.34 0 0 1 0.07,-0.22 0.58,0.58 0 0 1 0.17,-0.18 0.25,0.25 0 0 0 -0.24,-0.18 0.66,0.66 0 0 0 -0.46,0.19 3.35,3.35 0 0 0 -0.53,0.57 7.18,7.18 0 0 0 -0.6,0.93 c -0.21,0.37 -0.41,0.78 -0.62,1.23 a 5.36,5.36 0 0 0 -0.32,0.93 4.65,4.65 0 0 0 -0.14,0.94 2.39,2.39 0 0 0 0.09,0.79 0.6,0.6 0 0 0 0.37,0.44 0.45,0.45 0 0 0 0.43,0 1.72,1.72 0 0 0 0.46,-0.41 7.2,7.2 0 0 0 0.51,-0.73 c 0.17,-0.27 0.32,-0.55 0.48,-0.84 0.16,-0.29 0.3,-0.58 0.44,-0.87 0.14,-0.29 0.28,-0.56 0.4,-0.8 0.12,-0.24 0.28,-0.63 0.41,-0.92 0.13,-0.29 0.24,-0.56 0.33,-0.79 a 3.16,3.16 0 0 0 0.18,-0.59 0.4,0.4 0 0 0 0,-0.33 q -0.11,-0.09 0.09,-0.21 a 1.18,1.18 0 0 1 0.5,-0.13 1.4,1.4 0 0 1 0.61,0.13 0.91,0.91 0 0 1 0.45,0.59 1.83,1.83 0 0 1 -0.05,1.05 7.83,7.83 0 0 1 -0.49,1.27 c -0.21,0.45 -0.44,0.88 -0.68,1.32 -0.24,0.44 -0.44,0.82 -0.6,1.15 a 2.47,2.47 0 0 0 -0.28,0.82 q 0,0.3 0.3,0.27 a 0.79,0.79 0 0 0 0.37,-0.24 5,5 0 0 0 0.51,-0.56 c 0.19,-0.24 0.39,-0.49 0.59,-0.78 0.2,-0.29 0.39,-0.57 0.56,-0.86 0.17,-0.29 0.33,-0.55 0.46,-0.81 a 4.77,4.77 0 0 0 0.3,-0.63 0.22,0.22 0 0 1 0.15,-0.15 0.31,0.31 0 0 1 0.19,0 0.27,0.27 0 0 1 0.14,0.12 0.19,0.19 0 0 1 0,0.19 c -0.08,0.17 -0.19,0.4 -0.34,0.69 -0.15,0.29 -0.32,0.6 -0.52,0.93 -0.2,0.33 -0.42,0.66 -0.66,1 a 10.19,10.19 0 0 1 -0.73,0.92 5.17,5.17 0 0 1 -0.76,0.68 1.36,1.36 0 0 1 -0.74,0.26 0.85,0.85 0 0 1 -0.84,-0.46 2,2 0 0 1 -0.21,-1.24 6,6 0 0 1 -0.59,0.84 2.68,2.68 0 0 1 -0.67,0.6 2,2 0 0 1 -0.77,0.26 1.76,1.76 0 0 1 -0.89,-0.16 1.66,1.66 0 0 1 -0.85,-0.69 2.48,2.48 0 0 1 -0.3,-1 3.61,3.61 0 0 1 0.09,-1.12 7.12,7.12 0 0 1 0.32,-1.07 7.88,7.88 0 0 1 0.79,-1.54 5.08,5.08 0 0 1 0.92,-1.05 3.29,3.29 0 0 1 1,-0.59 3.11,3.11 0 0 1 1.05,-0.16 1.84,1.84 0 0 1 0.37,0.07 1,1 0 0 1 0.37,0.17 1,1 0 0 1 0.29,0.32 0.91,0.91 0 0 1 0.12,0.49 0.53,0.53 0 0 1 -0.15,0.44 0.4,0.4 0 0 1 -0.31,0.14 0.49,0.49 0 0 1 -0.35,-0.13 0.4,0.4 0 0 1 -0.14,-0.31 z m 7.86,1.71 -0.34,0.69 c -0.15,0.29 -0.33,0.6 -0.53,0.93 -0.2,0.33 -0.42,0.66 -0.66,1 a 7.57,7.57 0 0 1 -0.73,0.92 4.71,4.71 0 0 1 -0.76,0.68 1.33,1.33 0 0 1 -0.73,0.26 0.84,0.84 0 0 1 -0.51,-0.12 0.9,0.9 0 0 1 -0.35,-0.37 1.64,1.64 0 0 1 -0.18,-0.59 3.13,3.13 0 0 1 0,-0.75 7.8,7.8 0 0 1 0.37,-1.37 c 0.21,-0.59 0.45,-1.24 0.74,-1.94 0.29,-0.7 0.59,-1.42 0.9,-2.16 0.31,-0.74 0.6,-1.4 0.85,-2 0.25,-0.6 0.44,-1.13 0.58,-1.54 0.14,-0.41 0.17,-0.66 0.11,-0.72 -0.06,-0.06 0,-0.13 0.09,-0.21 a 1.05,1.05 0 0 1 0.5,-0.13 1.27,1.27 0 0 1 0.61,0.13 0.88,0.88 0 0 1 0.45,0.59 1.79,1.79 0 0 1 -0.06,0.95 13.34,13.34 0 0 1 -0.48,1.43 c -0.21,0.53 -0.46,1.1 -0.75,1.72 -0.29,0.62 -0.57,1.22 -0.86,1.82 l -0.83,1.73 c -0.26,0.56 -0.47,1 -0.63,1.46 a 4,4 0 0 0 -0.28,1 c 0,0.25 0.05,0.36 0.21,0.34 a 0.73,0.73 0 0 0 0.38,-0.24 6.12,6.12 0 0 0 0.51,-0.56 c 0.19,-0.24 0.38,-0.49 0.57,-0.78 0.19,-0.29 0.39,-0.57 0.57,-0.86 0.18,-0.29 0.33,-0.55 0.47,-0.81 a 4.51,4.51 0 0 0 0.29,-0.63 0.22,0.22 0 0 1 0.15,-0.15 0.31,0.31 0 0 1 0.19,0 0.24,0.24 0 0 1 0.14,0.12 0.18,0.18 0 0 1 0,0.19 z m 7.2,-1.71 a 0.4,0.4 0 0 1 0.06,-0.22 1,1 0 0 1 0.17,-0.18 0.23,0.23 0 0 0 -0.23,-0.18 0.66,0.66 0 0 0 -0.46,0.19 3,3 0 0 0 -0.54,0.57 8.42,8.42 0 0 0 -0.6,0.93 c -0.2,0.37 -0.41,0.78 -0.62,1.23 a 6.34,6.34 0 0 0 -0.31,0.93 4,4 0 0 0 -0.14,0.94 2.39,2.39 0 0 0 0.09,0.79 0.59,0.59 0 0 0 0.36,0.44 0.47,0.47 0 0 0 0.44,0 2.09,2.09 0 0 0 0.46,-0.41 7.2,7.2 0 0 0 0.45,-0.73 c 0.16,-0.27 0.32,-0.55 0.47,-0.84 0.15,-0.29 0.3,-0.58 0.44,-0.87 0.14,-0.29 0.28,-0.56 0.41,-0.8 0.13,-0.24 0.27,-0.63 0.41,-0.92 0.14,-0.29 0.24,-0.56 0.33,-0.79 a 3.16,3.16 0 0 0 0.18,-0.59 0.36,0.36 0 0 0 -0.05,-0.33 c -0.07,-0.06 0,-0.13 0.1,-0.21 a 1.18,1.18 0 0 1 0.49,-0.13 1.37,1.37 0 0 1 0.61,0.13 0.85,0.85 0 0 1 0.45,0.59 1.82,1.82 0 0 1 0,1.05 8.88,8.88 0 0 1 -0.49,1.27 c -0.22,0.45 -0.44,0.88 -0.68,1.32 -0.24,0.44 -0.45,0.82 -0.61,1.15 a 3,3 0 0 0 -0.28,0.82 q 0,0.3 0.3,0.27 a 0.75,0.75 0 0 0 0.37,-0.24 4.93,4.93 0 0 0 0.52,-0.56 c 0.19,-0.24 0.38,-0.49 0.58,-0.78 0.2,-0.29 0.39,-0.57 0.56,-0.86 0.17,-0.29 0.33,-0.55 0.47,-0.81 a 4.51,4.51 0 0 0 0.29,-0.63 0.22,0.22 0 0 1 0.15,-0.15 0.31,0.31 0 0 1 0.19,0 0.24,0.24 0 0 1 0.14,0.12 0.17,0.17 0 0 1 0,0.19 l -0.34,0.69 c -0.15,0.29 -0.33,0.6 -0.53,0.93 -0.2,0.33 -0.42,0.66 -0.65,1 a 10.19,10.19 0 0 1 -0.73,0.92 5.74,5.74 0 0 1 -0.76,0.68 1.38,1.38 0 0 1 -0.74,0.26 0.83,0.83 0 0 1 -0.84,-0.46 2,2 0 0 1 -0.21,-1.24 6.91,6.91 0 0 1 -0.59,0.84 2.87,2.87 0 0 1 -0.67,0.6 2,2 0 0 1 -0.77,0.26 1.74,1.74 0 0 1 -0.89,-0.16 1.62,1.62 0 0 1 -0.85,-0.69 2.33,2.33 0 0 1 -0.3,-1 3.92,3.92 0 0 1 0.08,-1.12 7.1,7.1 0 0 1 0.33,-1.07 7.37,7.37 0 0 1 0.79,-1.54 5.08,5.08 0 0 1 0.92,-1.05 3.37,3.37 0 0 1 1,-0.59 3.19,3.19 0 0 1 1.05,-0.16 1.8,1.8 0 0 1 0.38,0.07 1.12,1.12 0 0 1 0.37,0.17 1,1 0 0 1 0.29,0.32 1,1 0 0 1 0.11,0.49 0.56,0.56 0 0 1 -0.14,0.44 0.41,0.41 0 0 1 -0.31,0.14 0.47,0.47 0 0 1 -0.35,-0.13 0.4,0.4 0 0 1 -0.14,-0.31 z m 9.68,5.87 v 0 a 4.23,4.23 0 0 1 -0.62,0.25 1.83,1.83 0 0 1 -0.51,0.09 1.22,1.22 0 0 1 -0.9,-0.31 1.48,1.48 0 0 1 -0.42,-0.71 1.94,1.94 0 0 1 0,-0.83 1.19,1.19 0 0 1 0.28,-0.63 1.67,1.67 0 0 1 0.53,-0.42 0.69,0.69 0 0 1 0.4,-0.07 0.51,0.51 0 0 1 0.3,0.13 0.39,0.39 0 0 1 0.14,0.3 0.43,0.43 0 0 1 -0.14,0.32 0.45,0.45 0 0 1 -0.32,0.14 0.4,0.4 0 0 1 -0.25,-0.09 0.37,0.37 0 0 1 -0.16,-0.21 1.21,1.21 0 0 0 -0.27,0.53 1.49,1.49 0 0 0 0,0.59 0.9,0.9 0 0 0 0.23,0.48 0.75,0.75 0 0 0 0.51,0.22 0.92,0.92 0 0 0 0.34,-0.11 1.63,1.63 0 0 0 0.45,-0.37 2.84,2.84 0 0 0 0.41,-0.67 2.78,2.78 0 0 0 0.21,-1 5.11,5.11 0 0 0 -0.12,-1.34 8.32,8.32 0 0 0 -0.62,-1.73 c -0.1,0.19 -0.21,0.39 -0.34,0.61 l -0.33,0.63 a 0.27,0.27 0 0 1 -0.18,0.12 0.41,0.41 0 0 1 -0.19,0 0.23,0.23 0 0 1 -0.12,-0.12 0.19,0.19 0 0 1 0,-0.19 l 0.22,-0.45 c 0.07,-0.13 0.14,-0.26 0.21,-0.37 0.07,-0.11 0.13,-0.24 0.19,-0.37 l 0.19,-0.39 a 1.86,1.86 0 0 1 -0.25,-0.51 2,2 0 0 1 -0.09,-0.59 1.74,1.74 0 0 1 0.05,-0.34 1.7,1.7 0 0 1 0.18,-0.39 1,1 0 0 1 0.35,-0.34 1,1 0 0 1 0.57,-0.14 0.74,0.74 0 0 1 0.54,0.16 0.57,0.57 0 0 1 0.19,0.41 1.35,1.35 0 0 1 -0.11,0.56 3,3 0 0 1 -0.31,0.59 v 0.09 a 8.35,8.35 0 0 1 0.92,1.27 6.43,6.43 0 0 1 0.53,1.15 4.11,4.11 0 0 1 0.19,1 2.87,2.87 0 0 1 -0.08,0.89 13.09,13.09 0 0 0 0.87,-1.11 8.85,8.85 0 0 0 0.64,-1 0.22,0.22 0 0 1 0.35,-0.11 0.27,0.27 0 0 1 0.13,0.17 0.31,0.31 0 0 1 0,0.19 9.82,9.82 0 0 1 -0.82,1.36 c -0.31,0.42 -0.65,0.84 -1,1.26 a 6.23,6.23 0 0 1 -0.83,0.8 4.19,4.19 0 0 1 -1,0.59 z"
       class="cls-7" />
    <path
       style="fill:none;stroke:#ffffff;stroke-width:2.46000004px;stroke-linecap:round;stroke-linejoin:round"
       inkscape:connector-curvature="0"
       id="path82"
       d="m 490.56949,135.95335 c -0.08,0.17 -0.19,0.4 -0.34,0.69 -0.15,0.29 -0.32,0.6 -0.52,0.93 -0.2,0.33 -0.42,0.66 -0.66,1 a 8.69,8.69 0 0 1 -0.73,0.92 4.71,4.71 0 0 1 -0.76,0.68 1.36,1.36 0 0 1 -0.74,0.26 0.88,0.88 0 0 1 -0.51,-0.12 0.94,0.94 0 0 1 -0.34,-0.37 1.64,1.64 0 0 1 -0.18,-0.59 3.13,3.13 0 0 1 0,-0.75 0.66,0.66 0 0 1 0,-0.14 v -0.14 a 9.46,9.46 0 0 1 -0.58,0.79 6.77,6.77 0 0 1 -0.61,0.67 3.59,3.59 0 0 1 -0.62,0.48 1.3,1.3 0 0 1 -0.59,0.17 0.84,0.84 0 0 1 -0.51,-0.12 1,1 0 0 1 -0.35,-0.37 1.64,1.64 0 0 1 -0.18,-0.59 3.13,3.13 0 0 1 0,-0.75 6.23,6.23 0 0 1 0.23,-1 c 0.12,-0.37 0.25,-0.73 0.39,-1.09 0.14,-0.36 0.3,-0.72 0.45,-1.06 0.15,-0.34 0.29,-0.65 0.4,-0.92 a 4.88,4.88 0 0 0 0.24,-0.7 c 0,-0.18 0,-0.31 0,-0.38 0,-0.07 0,-0.13 0.1,-0.21 a 1.18,1.18 0 0 1 0.49,-0.13 1.44,1.44 0 0 1 0.62,0.13 0.91,0.91 0 0 1 0.45,0.59 1.92,1.92 0 0 1 -0.05,1.05 8.88,8.88 0 0 1 -0.49,1.27 c -0.21,0.45 -0.44,0.88 -0.68,1.32 -0.24,0.44 -0.45,0.82 -0.61,1.15 a 3,3 0 0 0 -0.28,0.82 q 0,0.3 0.3,0.27 c 0.12,0 0.29,-0.13 0.52,-0.37 a 7.93,7.93 0 0 0 0.72,-0.88 c 0.25,-0.35 0.49,-0.72 0.74,-1.1 0.25,-0.38 0.44,-0.74 0.59,-1.05 l 0.44,-1 0.37,-0.87 a 5.22,5.22 0 0 0 0.21,-0.65 c 0,-0.18 0,-0.3 0,-0.36 0,-0.06 0,-0.13 0.09,-0.21 a 1.23,1.23 0 0 1 0.5,-0.13 1.4,1.4 0 0 1 0.61,0.13 0.91,0.91 0 0 1 0.45,0.59 1.91,1.91 0 0 1 0,1.05 9,9 0 0 1 -0.5,1.27 c -0.21,0.45 -0.44,0.88 -0.68,1.32 -0.24,0.44 -0.44,0.82 -0.6,1.15 a 2.73,2.73 0 0 0 -0.28,0.82 q 0,0.3 0.3,0.27 a 0.79,0.79 0 0 0 0.37,-0.24 4.93,4.93 0 0 0 0.52,-0.56 c 0.18,-0.24 0.37,-0.49 0.57,-0.78 0.2,-0.29 0.38,-0.57 0.56,-0.86 a 8.8,8.8 0 0 0 0.47,-0.81 4.77,4.77 0 0 0 0.3,-0.63 0.22,0.22 0 0 1 0.15,-0.15 0.31,0.31 0 0 1 0.19,0 0.27,0.27 0 0 1 0.14,0.12 0.19,0.19 0 0 1 0,0.19 z m 5.21,4.16 v 0 a 4.23,4.23 0 0 1 -0.62,0.25 1.83,1.83 0 0 1 -0.5,0.09 1.23,1.23 0 0 1 -0.91,-0.31 1.48,1.48 0 0 1 -0.42,-0.71 1.94,1.94 0 0 1 0,-0.83 1.19,1.19 0 0 1 0.28,-0.63 1.67,1.67 0 0 1 0.53,-0.42 0.69,0.69 0 0 1 0.4,-0.07 0.51,0.51 0 0 1 0.3,0.13 0.39,0.39 0 0 1 0.14,0.3 0.43,0.43 0 0 1 -0.14,0.32 0.45,0.45 0 0 1 -0.32,0.14 0.4,0.4 0 0 1 -0.25,-0.09 0.37,0.37 0 0 1 -0.16,-0.21 1.21,1.21 0 0 0 -0.27,0.53 2,2 0 0 0 0,0.59 0.9,0.9 0 0 0 0.23,0.48 0.75,0.75 0 0 0 0.51,0.22 0.92,0.92 0 0 0 0.34,-0.11 1.63,1.63 0 0 0 0.45,-0.37 2.84,2.84 0 0 0 0.41,-0.67 2.78,2.78 0 0 0 0.21,-1 4.71,4.71 0 0 0 -0.12,-1.34 8.32,8.32 0 0 0 -0.62,-1.73 c -0.1,0.19 -0.21,0.39 -0.34,0.61 l -0.33,0.63 a 0.27,0.27 0 0 1 -0.17,0.12 0.44,0.44 0 0 1 -0.2,0 0.23,0.23 0 0 1 -0.12,-0.12 0.19,0.19 0 0 1 0,-0.19 l 0.22,-0.45 c 0.07,-0.13 0.14,-0.26 0.21,-0.37 0.07,-0.11 0.13,-0.24 0.19,-0.37 l 0.19,-0.39 a 1.86,1.86 0 0 1 -0.25,-0.51 2,2 0 0 1 -0.09,-0.59 1.74,1.74 0 0 1 0,-0.34 1.7,1.7 0 0 1 0.18,-0.39 1,1 0 0 1 0.35,-0.34 1,1 0 0 1 0.57,-0.14 0.74,0.74 0 0 1 0.54,0.16 0.57,0.57 0 0 1 0.19,0.41 1.35,1.35 0 0 1 -0.11,0.56 2.57,2.57 0 0 1 -0.31,0.59 v 0.09 a 8.35,8.35 0 0 1 0.92,1.27 6.43,6.43 0 0 1 0.53,1.15 4.69,4.69 0 0 1 0.2,1 3.2,3.2 0 0 1 -0.09,0.89 c 0.33,-0.38 0.62,-0.75 0.88,-1.11 a 10.24,10.24 0 0 0 0.63,-1 0.22,0.22 0 0 1 0.35,-0.11 0.24,0.24 0 0 1 0.13,0.17 0.31,0.31 0 0 1 0,0.19 9.82,9.82 0 0 1 -0.82,1.36 c -0.31,0.42 -0.65,0.84 -1,1.26 a 6.23,6.23 0 0 1 -0.83,0.8 4.19,4.19 0 0 1 -1,0.59 z m 9.07,-4.46 a 0.25,0.25 0 0 1 0.08,0.33 11,11 0 0 1 -0.59,1.11 10.57,10.57 0 0 1 -0.79,1.14 9,9 0 0 1 -0.92,1 5,5 0 0 1 -1,0.76 3.2,3.2 0 0 1 -1.07,0.38 1.93,1.93 0 0 1 -1.08,-0.13 1.7,1.7 0 0 1 -0.85,-0.69 2.38,2.38 0 0 1 -0.3,-1 3.65,3.65 0 0 1 0.09,-1.13 8.52,8.52 0 0 1 0.32,-1.07 7.78,7.78 0 0 1 0.79,-1.53 4.94,4.94 0 0 1 0.93,-1 3.7,3.7 0 0 1 1,-0.59 3.14,3.14 0 0 1 1,-0.19 1.06,1.06 0 0 1 0.8,0.27 0.91,0.91 0 0 1 0.26,0.69 2.43,2.43 0 0 1 -0.23,0.95 4.37,4.37 0 0 1 -0.68,1 5.17,5.17 0 0 1 -1.05,0.9 5,5 0 0 1 -1.39,0.61 5.37,5.37 0 0 0 -0.15,0.76 3.22,3.22 0 0 0 0,0.69 1.23,1.23 0 0 0 0.14,0.51 0.45,0.45 0 0 0 0.33,0.25 1.25,1.25 0 0 0 0.7,-0.09 3.39,3.39 0 0 0 0.77,-0.47 5.68,5.68 0 0 0 0.77,-0.72 c 0.25,-0.28 0.48,-0.57 0.71,-0.87 0.23,-0.3 0.41,-0.61 0.59,-0.91 a 6.82,6.82 0 0 0 0.4,-0.83 0.23,0.23 0 0 1 0.16,-0.16 0.27,0.27 0 0 1 0.23,0 z m -4.28,0.89 a 3.11,3.11 0 0 0 -0.12,0.3 4.08,4.08 0 0 0 1.46,-0.85 4.34,4.34 0 0 0 0.85,-1.06 2.08,2.08 0 0 0 0.28,-0.91 c 0,-0.26 -0.08,-0.39 -0.26,-0.4 -0.18,-0.01 -0.6,0.25 -1,0.77 a 10.53,10.53 0 0 0 -1.21,2.15 z m 4.37,-0.48 a 0.24,0.24 0 0 1 -0.14,0.12 0.28,0.28 0 0 1 -0.18,0 0.25,0.25 0 0 1 -0.13,-0.12 0.21,0.21 0 0 1 0,-0.19 c 0,-0.09 0.09,-0.23 0.16,-0.41 0.07,-0.18 0.16,-0.37 0.24,-0.58 l 0.24,-0.59 a 3,3 0 0 0 0.16,-0.48 1.41,1.41 0 0 1 -0.58,-0.51 1.23,1.23 0 0 1 -0.25,-0.71 1.25,1.25 0 0 1 0.24,-0.78 0.81,0.81 0 0 1 0.71,-0.33 0.66,0.66 0 0 1 0.51,0.25 0.91,0.91 0 0 1 0.23,0.58 c 0,0.13 0,0.3 0,0.53 a 2.58,2.58 0 0 1 -0.08,0.56 0.4,0.4 0 0 0 0.2,0.07 h 0.27 a 1.64,1.64 0 0 0 0.51,-0.07 2.38,2.38 0 0 0 0.32,-0.16 l 0.27,-0.15 a 0.7,0.7 0 0 1 0.35,-0.08 1.29,1.29 0 0 1 0.59,0.15 0.9,0.9 0 0 1 0.43,0.57 1.91,1.91 0 0 1 0,1.05 9,9 0 0 1 -0.5,1.27 c -0.21,0.45 -0.44,0.88 -0.68,1.32 -0.24,0.44 -0.44,0.82 -0.6,1.15 a 2.47,2.47 0 0 0 -0.28,0.82 q 0,0.3 0.3,0.27 a 0.79,0.79 0 0 0 0.37,-0.24 4.16,4.16 0 0 0 0.51,-0.56 c 0.19,-0.24 0.38,-0.49 0.58,-0.78 0.2,-0.29 0.38,-0.57 0.56,-0.86 a 8.8,8.8 0 0 0 0.47,-0.81 4.77,4.77 0 0 0 0.3,-0.63 0.22,0.22 0 0 1 0.15,-0.15 0.31,0.31 0 0 1 0.19,0 0.27,0.27 0 0 1 0.14,0.12 0.19,0.19 0 0 1 0,0.19 c -0.08,0.17 -0.19,0.4 -0.34,0.69 -0.15,0.29 -0.32,0.6 -0.52,0.93 -0.2,0.33 -0.42,0.66 -0.66,1 a 10.19,10.19 0 0 1 -0.73,0.92 4.71,4.71 0 0 1 -0.76,0.68 1.36,1.36 0 0 1 -0.74,0.26 0.86,0.86 0 0 1 -0.51,-0.12 0.87,0.87 0 0 1 -0.34,-0.37 1.64,1.64 0 0 1 -0.18,-0.59 3.13,3.13 0 0 1 0,-0.75 5.45,5.45 0 0 1 0.28,-1.22 c 0.15,-0.44 0.31,-0.86 0.49,-1.28 0.18,-0.42 0.35,-0.81 0.51,-1.17 a 8.41,8.41 0 0 0 0.37,-0.93 2.41,2.41 0 0 1 -0.7,0.14 2.84,2.84 0 0 1 -0.77,-0.08 c 0,0.06 -0.09,0.19 -0.16,0.37 -0.07,0.18 -0.15,0.38 -0.24,0.59 l -0.27,0.62 c -0.09,0.2 -0.16,0.36 -0.22,0.47 z m 10.47,-2.29 a 3.07,3.07 0 0 1 0,1.09 8.49,8.49 0 0 1 -0.39,1.4 9.3,9.3 0 0 1 -0.73,1.49 7.87,7.87 0 0 1 -1,1.34 4.74,4.74 0 0 1 -1.21,1 2.73,2.73 0 0 1 -1.35,0.36 1.69,1.69 0 0 1 -1.07,-0.28 1.29,1.29 0 0 1 -0.45,-0.74 2.86,2.86 0 0 1 0,-1 8.52,8.52 0 0 1 0.31,-1.23 c 0.14,-0.42 0.29,-0.83 0.46,-1.25 0.17,-0.42 0.31,-0.8 0.44,-1.14 0.13,-0.34 0.22,-0.63 0.29,-0.87 0.07,-0.24 0.06,-0.4 0,-0.46 -0.06,-0.06 0,-0.13 0.09,-0.21 a 1.09,1.09 0 0 1 0.5,-0.13 1.27,1.27 0 0 1 0.61,0.13 0.88,0.88 0 0 1 0.45,0.59 1.91,1.91 0 0 1 0,1 9.08,9.08 0 0 1 -0.49,1.29 c -0.21,0.45 -0.43,0.89 -0.66,1.33 a 11.45,11.45 0 0 0 -0.54,1.2 1.93,1.93 0 0 0 -0.17,0.86 c 0,0.21 0.19,0.32 0.5,0.32 a 1.17,1.17 0 0 0 0.85,-0.45 5.12,5.12 0 0 0 0.75,-1.14 10.76,10.76 0 0 0 0.61,-1.49 15.64,15.64 0 0 0 0.44,-1.52 9.38,9.38 0 0 0 0.24,-1.23 1.32,1.32 0 0 0 0,-0.6 c 0,-0.06 0,-0.13 0.13,-0.21 a 1,1 0 0 1 0.48,-0.13 1.07,1.07 0 0 1 0.56,0.13 0.89,0.89 0 0 1 0.4,0.59 z m 3.6,-1.49 q 0,0.12 -0.24,0.12 a 1.42,1.42 0 0 1 -0.51,-0.11 1.7,1.7 0 0 1 -0.51,-0.36 0.81,0.81 0 0 1 -0.23,-0.61 0.72,0.72 0 0 1 0.08,-0.27 l 0.2,-0.37 c 0.08,-0.12 0.14,-0.24 0.2,-0.35 a 0.58,0.58 0 0 0 0.09,-0.25 c 0,-0.07 0.08,-0.1 0.22,-0.1 a 1.42,1.42 0 0 1 0.5,0.11 1.51,1.51 0 0 1 0.49,0.36 0.84,0.84 0 0 1 0.22,0.6 0.51,0.51 0 0 1 -0.08,0.25 l -0.17,0.34 a 3,3 0 0 0 -0.18,0.36 0.63,0.63 0 0 0 -0.08,0.28 z m 1.06,3.63 a 0.19,0.19 0 0 0 0,-0.19 0.27,0.27 0 0 0 -0.14,-0.12 0.31,0.31 0 0 0 -0.19,0 0.22,0.22 0 0 0 -0.15,0.15 4.77,4.77 0 0 1 -0.3,0.63 c -0.14,0.26 -0.29,0.53 -0.47,0.81 -0.18,0.28 -0.36,0.57 -0.56,0.86 -0.2,0.29 -0.39,0.54 -0.58,0.78 a 4.16,4.16 0 0 1 -0.51,0.56 0.71,0.71 0 0 1 -0.37,0.24 c -0.23,0 -0.33,-0.07 -0.31,-0.27 a 2.8,2.8 0 0 1 0.29,-0.82 c 0.16,-0.33 0.36,-0.72 0.6,-1.15 0.24,-0.43 0.47,-0.87 0.68,-1.32 a 7.83,7.83 0 0 0 0.49,-1.27 1.83,1.83 0 0 0 0,-1.05 0.91,0.91 0 0 0 -0.45,-0.59 1.4,1.4 0 0 0 -0.61,-0.13 1.18,1.18 0 0 0 -0.5,0.13 q -0.19,0.12 -0.09,0.21 a 0.42,0.42 0 0 1 0,0.38 4.66,4.66 0 0 1 -0.23,0.7 l -0.4,0.92 c -0.16,0.34 -0.31,0.69 -0.45,1.06 a 10.9,10.9 0 0 0 -0.39,1.09 5.36,5.36 0 0 0 -0.23,1 3.13,3.13 0 0 0 0,0.75 1.87,1.87 0 0 0 0.17,0.59 1,1 0 0 0 0.35,0.37 0.84,0.84 0 0 0 0.51,0.12 1.36,1.36 0 0 0 0.74,-0.26 5.17,5.17 0 0 0 0.76,-0.68 10.19,10.19 0 0 0 0.84,-0.87 c 0.24,-0.33 0.45,-0.66 0.66,-1 0.21,-0.34 0.37,-0.64 0.52,-0.93 0.15,-0.29 0.26,-0.52 0.34,-0.69 z m 3.31,-1.71 a 0.4,0.4 0 0 1 0.06,-0.22 0.73,0.73 0 0 1 0.17,-0.18 0.25,0.25 0 0 0 -0.23,-0.18 0.66,0.66 0 0 0 -0.46,0.19 3,3 0 0 0 -0.54,0.57 8.42,8.42 0 0 0 -0.6,0.93 c -0.2,0.37 -0.41,0.78 -0.62,1.23 a 5.87,5.87 0 0 0 -0.32,1 5,5 0 0 0 -0.14,1 2.14,2.14 0 0 0 0.08,0.79 0.52,0.52 0 0 0 0.38,0.39 1.25,1.25 0 0 0 0.7,-0.09 3.39,3.39 0 0 0 0.77,-0.47 5.68,5.68 0 0 0 0.77,-0.72 c 0.25,-0.28 0.49,-0.57 0.71,-0.87 a 10.74,10.74 0 0 0 0.59,-0.91 6.82,6.82 0 0 0 0.4,-0.83 0.26,0.26 0 0 1 0.15,-0.16 0.34,0.34 0 0 1 0.22,0 0.23,0.23 0 0 1 0.11,0.31 10.93,10.93 0 0 1 -0.59,1.1 10.72,10.72 0 0 1 -0.77,1.13 10.17,10.17 0 0 1 -0.93,1 4.81,4.81 0 0 1 -1,0.78 3.2,3.2 0 0 1 -1.08,0.39 2,2 0 0 1 -1.09,-0.13 1.63,1.63 0 0 1 -0.84,-0.69 2.34,2.34 0 0 1 -0.31,-1 3.61,3.61 0 0 1 0.09,-1.12 7.1,7.1 0 0 1 0.33,-1.07 7.37,7.37 0 0 1 0.79,-1.54 4.81,4.81 0 0 1 0.92,-1.05 3.25,3.25 0 0 1 1,-0.59 3.19,3.19 0 0 1 1.05,-0.16 1.92,1.92 0 0 1 0.38,0.07 1.12,1.12 0 0 1 0.37,0.17 1,1 0 0 1 0.28,0.32 0.91,0.91 0 0 1 0.12,0.49 0.58,0.58 0 0 1 -0.13,0.43 0.4,0.4 0 0 1 -0.33,0.15 0.47,0.47 0 0 1 -0.31,-0.12 0.37,0.37 0 0 1 -0.14,-0.31 z m 4.53,-1.92 q 0,0.12 -0.24,0.12 a 1.42,1.42 0 0 1 -0.51,-0.11 1.7,1.7 0 0 1 -0.51,-0.36 0.85,0.85 0 0 1 -0.23,-0.61 0.6,0.6 0 0 1 0.09,-0.27 c 0.05,-0.12 0.12,-0.24 0.19,-0.37 a 2.57,2.57 0 0 0 0.2,-0.35 0.58,0.58 0 0 0 0.09,-0.25 c 0,-0.07 0.08,-0.1 0.22,-0.1 a 1.35,1.35 0 0 1 1,0.47 0.84,0.84 0 0 1 0.22,0.6 0.51,0.51 0 0 1 -0.08,0.25 l -0.17,0.34 a 3,3 0 0 0 -0.18,0.36 0.63,0.63 0 0 0 -0.08,0.28 z m 1.06,3.63 a 0.19,0.19 0 0 0 0,-0.19 0.27,0.27 0 0 0 -0.14,-0.12 0.31,0.31 0 0 0 -0.19,0 0.22,0.22 0 0 0 -0.15,0.15 4.77,4.77 0 0 1 -0.3,0.63 8.8,8.8 0 0 1 -0.47,0.81 c -0.18,0.29 -0.36,0.57 -0.56,0.86 -0.2,0.29 -0.39,0.54 -0.58,0.78 a 4.16,4.16 0 0 1 -0.51,0.56 0.71,0.71 0 0 1 -0.37,0.24 q -0.35,0 -0.3,-0.27 a 2.47,2.47 0 0 1 0.28,-0.82 c 0.16,-0.33 0.36,-0.72 0.6,-1.15 0.24,-0.43 0.47,-0.87 0.68,-1.32 a 9,9 0 0 0 0.5,-1.27 1.91,1.91 0 0 0 0,-1.05 0.91,0.91 0 0 0 -0.45,-0.59 1.4,1.4 0 0 0 -0.61,-0.13 1.18,1.18 0 0 0 -0.5,0.13 q -0.19,0.12 -0.09,0.21 a 0.42,0.42 0 0 1 0,0.38 4.66,4.66 0 0 1 -0.23,0.7 l -0.4,0.92 c -0.15,0.34 -0.3,0.69 -0.45,1.06 a 10.9,10.9 0 0 0 -0.39,1.09 5.36,5.36 0 0 0 -0.23,1 3.13,3.13 0 0 0 0,0.75 1.64,1.64 0 0 0 0.18,0.59 0.87,0.87 0 0 0 0.34,0.37 0.84,0.84 0 0 0 0.51,0.12 1.36,1.36 0 0 0 0.74,-0.26 4.71,4.71 0 0 0 0.76,-0.68 10.19,10.19 0 0 0 0.73,-0.92 q 0.36,-0.5 0.66,-1 c 0.2,-0.33 0.37,-0.64 0.52,-0.93 0.15,-0.29 0.26,-0.52 0.34,-0.69 z m 4.22,-1.85 a 0.5,0.5 0 0 1 -0.09,0.34 0.39,0.39 0 0 1 -0.37,0.23 0.47,0.47 0 0 1 -0.31,-0.12 0.37,0.37 0 0 1 -0.14,-0.31 0.4,0.4 0 0 1 0.06,-0.22 0.73,0.73 0 0 1 0.17,-0.18 q -0.12,-0.21 -0.27,-0.21 a 0.56,0.56 0 0 0 -0.33,0.13 1.61,1.61 0 0 0 -0.36,0.34 c -0.13,0.14 -0.25,0.29 -0.37,0.43 a 7.88,7.88 0 0 0 -0.59,0.93 8.08,8.08 0 0 0 -0.51,1.07 8.29,8.29 0 0 0 -0.36,1.1 4.53,4.53 0 0 0 -0.14,1 1.73,1.73 0 0 0 0.13,0.73 0.57,0.57 0 0 0 0.44,0.34 0.59,0.59 0 0 0 0.5,-0.2 3.81,3.81 0 0 0 0.54,-0.62 c 0.18,-0.26 0.36,-0.54 0.53,-0.84 a 8.81,8.81 0 0 0 0.45,-0.83 0.73,0.73 0 0 1 -0.42,-0.44 1.16,1.16 0 0 1 -0.08,-0.61 1.06,1.06 0 0 1 0.24,-0.54 0.6,0.6 0 0 1 0.49,-0.24 h 0.26 a 0.43,0.43 0 0 1 0.28,0.16 0.73,0.73 0 0 1 0.13,0.45 2.83,2.83 0 0 1 -0.16,0.9 2.67,2.67 0 0 0 0.95,-0.16 2,2 0 0 0 0.55,-0.33 1.11,1.11 0 0 0 0.27,-0.34 1.11,1.11 0 0 1 0.09,-0.22 0.19,0.19 0 0 1 0.14,-0.12 0.25,0.25 0 0 1 0.19,0 0.27,0.27 0 0 1 0.13,0.35 1.51,1.51 0 0 1 -0.37,0.52 2.39,2.39 0 0 1 -0.58,0.4 3.34,3.34 0 0 1 -1.56,0.32 c -0.14,0.31 -0.31,0.65 -0.52,1 a 7.15,7.15 0 0 1 -0.73,1 4.2,4.2 0 0 1 -0.91,0.79 1.67,1.67 0 0 1 -1.06,0.27 1.62,1.62 0 0 1 -1.16,-0.62 2.29,2.29 0 0 1 -0.45,-1.33 5.28,5.28 0 0 1 0.12,-1.23 6.62,6.62 0 0 1 1.05,-2.44 5,5 0 0 1 0.86,-1 3.76,3.76 0 0 1 1.05,-0.63 2.84,2.84 0 0 1 1.19,-0.19 1,1 0 0 1 0.46,0.12 1.18,1.18 0 0 1 0.31,0.27 1,1 0 0 1 0.17,0.34 2.9,2.9 0 0 1 0.09,0.34 z m 2.79,2.23 a 1.76,1.76 0 0 1 0.08,-1 10.55,10.55 0 0 1 0.53,-1.46 c 0.22,-0.53 0.47,-1.07 0.75,-1.63 0.28,-0.56 0.52,-1.08 0.75,-1.56 a 11.75,11.75 0 0 0 0.5,-1.21 c 0.12,-0.34 0.14,-0.55 0.06,-0.62 -0.08,-0.07 0,-0.13 0.1,-0.21 a 1.05,1.05 0 0 1 0.5,-0.13 1.22,1.22 0 0 1 0.61,0.13 0.88,0.88 0 0 1 0.45,0.59 1.75,1.75 0 0 1 -0.09,1 11,11 0 0 1 -0.57,1.41 q -0.36,0.76 -0.81,1.56 -0.45,0.8 -0.81,1.5 a 12.59,12.59 0 0 0 -0.57,1.24 1,1 0 0 0 -0.09,0.76 c 0,0.08 0,0.16 -0.1,0.24 a 0.62,0.62 0 0 1 -0.4,0.13 0.85,0.85 0 0 1 -0.5,-0.15 1,1 0 0 1 -0.39,-0.61 z m 0.11,4 c 0,0.07 -0.07,0.11 -0.2,0.11 a 1.07,1.07 0 0 1 -0.44,-0.1 1.12,1.12 0 0 1 -0.43,-0.3 0.72,0.72 0 0 1 -0.2,-0.53 0.56,0.56 0 0 1 0.07,-0.24 l 0.17,-0.31 0.17,-0.3 a 0.49,0.49 0 0 0 0.07,-0.22 c 0,-0.05 0.07,-0.08 0.2,-0.08 a 1.06,1.06 0 0 1 0.42,0.1 1.34,1.34 0 0 1 0.42,0.31 0.77,0.77 0 0 1 0.19,0.52 0.46,0.46 0 0 1 -0.07,0.21 l -0.15,0.3 c -0.06,0.1 -0.11,0.2 -0.16,0.3 a 0.7,0.7 0 0 0 -0.06,0.23 z"
       class="cls-6" />
    <path
       style="fill:#2d6fb1"
       inkscape:connector-curvature="0"
       id="path84"
       d="m 490.56949,135.95335 c -0.08,0.17 -0.19,0.4 -0.34,0.69 -0.15,0.29 -0.32,0.6 -0.52,0.93 -0.2,0.33 -0.42,0.66 -0.66,1 a 8.69,8.69 0 0 1 -0.73,0.92 4.71,4.71 0 0 1 -0.76,0.68 1.36,1.36 0 0 1 -0.74,0.26 0.88,0.88 0 0 1 -0.51,-0.12 0.94,0.94 0 0 1 -0.34,-0.37 1.64,1.64 0 0 1 -0.18,-0.59 3.13,3.13 0 0 1 0,-0.75 0.66,0.66 0 0 1 0,-0.14 v -0.14 a 9.46,9.46 0 0 1 -0.58,0.79 6.77,6.77 0 0 1 -0.61,0.67 3.59,3.59 0 0 1 -0.62,0.48 1.3,1.3 0 0 1 -0.59,0.17 0.84,0.84 0 0 1 -0.51,-0.12 1,1 0 0 1 -0.35,-0.37 1.64,1.64 0 0 1 -0.18,-0.59 3.13,3.13 0 0 1 0,-0.75 6.23,6.23 0 0 1 0.23,-1 c 0.12,-0.37 0.25,-0.73 0.39,-1.09 0.14,-0.36 0.3,-0.72 0.45,-1.06 0.15,-0.34 0.29,-0.65 0.4,-0.92 a 4.88,4.88 0 0 0 0.24,-0.7 c 0,-0.18 0,-0.31 0,-0.38 0,-0.07 0,-0.13 0.1,-0.21 a 1.18,1.18 0 0 1 0.49,-0.13 1.44,1.44 0 0 1 0.62,0.13 0.91,0.91 0 0 1 0.45,0.59 1.92,1.92 0 0 1 -0.05,1.05 8.88,8.88 0 0 1 -0.49,1.27 c -0.21,0.45 -0.44,0.88 -0.68,1.32 -0.24,0.44 -0.45,0.82 -0.61,1.15 a 3,3 0 0 0 -0.28,0.82 q 0,0.3 0.3,0.27 c 0.12,0 0.29,-0.13 0.52,-0.37 a 7.93,7.93 0 0 0 0.72,-0.88 c 0.25,-0.35 0.49,-0.72 0.74,-1.1 0.25,-0.38 0.44,-0.74 0.59,-1.05 l 0.44,-1 0.37,-0.87 a 5.22,5.22 0 0 0 0.21,-0.65 c 0,-0.18 0,-0.3 0,-0.36 0,-0.06 0,-0.13 0.09,-0.21 a 1.23,1.23 0 0 1 0.5,-0.13 1.4,1.4 0 0 1 0.61,0.13 0.91,0.91 0 0 1 0.45,0.59 1.91,1.91 0 0 1 0,1.05 9,9 0 0 1 -0.5,1.27 c -0.21,0.45 -0.44,0.88 -0.68,1.32 -0.24,0.44 -0.44,0.82 -0.6,1.15 a 2.73,2.73 0 0 0 -0.28,0.82 q 0,0.3 0.3,0.27 a 0.79,0.79 0 0 0 0.37,-0.24 4.93,4.93 0 0 0 0.52,-0.56 c 0.18,-0.24 0.37,-0.49 0.57,-0.78 0.2,-0.29 0.38,-0.57 0.56,-0.86 a 8.8,8.8 0 0 0 0.47,-0.81 4.77,4.77 0 0 0 0.3,-0.63 0.22,0.22 0 0 1 0.15,-0.15 0.31,0.31 0 0 1 0.19,0 0.27,0.27 0 0 1 0.14,0.12 0.19,0.19 0 0 1 0,0.19 z m 5.21,4.16 v 0 a 4.23,4.23 0 0 1 -0.62,0.25 1.83,1.83 0 0 1 -0.5,0.09 1.23,1.23 0 0 1 -0.91,-0.31 1.48,1.48 0 0 1 -0.42,-0.71 1.94,1.94 0 0 1 0,-0.83 1.19,1.19 0 0 1 0.28,-0.63 1.67,1.67 0 0 1 0.53,-0.42 0.69,0.69 0 0 1 0.4,-0.07 0.51,0.51 0 0 1 0.3,0.13 0.39,0.39 0 0 1 0.14,0.3 0.43,0.43 0 0 1 -0.14,0.32 0.45,0.45 0 0 1 -0.32,0.14 0.4,0.4 0 0 1 -0.25,-0.09 0.37,0.37 0 0 1 -0.16,-0.21 1.21,1.21 0 0 0 -0.27,0.53 2,2 0 0 0 0,0.59 0.9,0.9 0 0 0 0.23,0.48 0.75,0.75 0 0 0 0.51,0.22 0.92,0.92 0 0 0 0.34,-0.11 1.63,1.63 0 0 0 0.45,-0.37 2.84,2.84 0 0 0 0.41,-0.67 2.78,2.78 0 0 0 0.21,-1 4.71,4.71 0 0 0 -0.12,-1.34 8.32,8.32 0 0 0 -0.62,-1.73 c -0.1,0.19 -0.21,0.39 -0.34,0.61 l -0.33,0.63 a 0.27,0.27 0 0 1 -0.17,0.12 0.44,0.44 0 0 1 -0.2,0 0.23,0.23 0 0 1 -0.12,-0.12 0.19,0.19 0 0 1 0,-0.19 l 0.22,-0.45 c 0.07,-0.13 0.14,-0.26 0.21,-0.37 0.07,-0.11 0.13,-0.24 0.19,-0.37 l 0.19,-0.39 a 1.86,1.86 0 0 1 -0.25,-0.51 2,2 0 0 1 -0.09,-0.59 1.74,1.74 0 0 1 0,-0.34 1.7,1.7 0 0 1 0.18,-0.39 1,1 0 0 1 0.35,-0.34 1,1 0 0 1 0.57,-0.14 0.74,0.74 0 0 1 0.54,0.16 0.57,0.57 0 0 1 0.19,0.41 1.35,1.35 0 0 1 -0.11,0.56 2.57,2.57 0 0 1 -0.31,0.59 v 0.09 a 8.35,8.35 0 0 1 0.92,1.27 6.43,6.43 0 0 1 0.53,1.15 4.69,4.69 0 0 1 0.2,1 3.2,3.2 0 0 1 -0.09,0.89 c 0.33,-0.38 0.62,-0.75 0.88,-1.11 a 10.24,10.24 0 0 0 0.63,-1 0.22,0.22 0 0 1 0.35,-0.11 0.24,0.24 0 0 1 0.13,0.17 0.31,0.31 0 0 1 0,0.19 9.82,9.82 0 0 1 -0.82,1.36 c -0.31,0.42 -0.65,0.84 -1,1.26 a 6.23,6.23 0 0 1 -0.83,0.8 4.19,4.19 0 0 1 -1,0.59 z m 9.07,-4.46 a 0.25,0.25 0 0 1 0.08,0.33 11,11 0 0 1 -0.59,1.11 10.57,10.57 0 0 1 -0.79,1.14 9,9 0 0 1 -0.92,1 5,5 0 0 1 -1,0.76 3.2,3.2 0 0 1 -1.07,0.38 1.93,1.93 0 0 1 -1.08,-0.13 1.7,1.7 0 0 1 -0.85,-0.69 2.38,2.38 0 0 1 -0.3,-1 3.65,3.65 0 0 1 0.09,-1.13 8.52,8.52 0 0 1 0.32,-1.07 7.78,7.78 0 0 1 0.79,-1.53 4.94,4.94 0 0 1 0.93,-1 3.7,3.7 0 0 1 1,-0.59 3.14,3.14 0 0 1 1,-0.19 1.06,1.06 0 0 1 0.8,0.27 0.91,0.91 0 0 1 0.26,0.69 2.43,2.43 0 0 1 -0.23,0.95 4.37,4.37 0 0 1 -0.68,1 5.17,5.17 0 0 1 -1.05,0.9 5,5 0 0 1 -1.39,0.61 5.37,5.37 0 0 0 -0.15,0.76 3.22,3.22 0 0 0 0,0.69 1.23,1.23 0 0 0 0.14,0.51 0.45,0.45 0 0 0 0.33,0.25 1.25,1.25 0 0 0 0.7,-0.09 3.39,3.39 0 0 0 0.77,-0.47 5.68,5.68 0 0 0 0.77,-0.72 c 0.25,-0.28 0.48,-0.57 0.71,-0.87 0.23,-0.3 0.41,-0.61 0.59,-0.91 a 6.82,6.82 0 0 0 0.4,-0.83 0.23,0.23 0 0 1 0.16,-0.16 0.27,0.27 0 0 1 0.23,0 z m -4.28,0.89 a 3.11,3.11 0 0 0 -0.12,0.3 4.08,4.08 0 0 0 1.46,-0.85 4.34,4.34 0 0 0 0.85,-1.06 2.08,2.08 0 0 0 0.28,-0.91 c 0,-0.26 -0.08,-0.39 -0.26,-0.4 -0.18,-0.01 -0.6,0.25 -1,0.77 a 10.53,10.53 0 0 0 -1.21,2.15 z m 4.37,-0.48 a 0.24,0.24 0 0 1 -0.14,0.12 0.28,0.28 0 0 1 -0.18,0 0.25,0.25 0 0 1 -0.13,-0.12 0.21,0.21 0 0 1 0,-0.19 c 0,-0.09 0.09,-0.23 0.16,-0.41 0.07,-0.18 0.16,-0.37 0.24,-0.58 l 0.24,-0.59 a 3,3 0 0 0 0.16,-0.48 1.41,1.41 0 0 1 -0.58,-0.51 1.23,1.23 0 0 1 -0.25,-0.71 1.25,1.25 0 0 1 0.24,-0.78 0.81,0.81 0 0 1 0.71,-0.33 0.66,0.66 0 0 1 0.51,0.25 0.91,0.91 0 0 1 0.23,0.58 c 0,0.13 0,0.3 0,0.53 a 2.58,2.58 0 0 1 -0.08,0.56 0.4,0.4 0 0 0 0.2,0.07 h 0.27 a 1.64,1.64 0 0 0 0.51,-0.07 2.38,2.38 0 0 0 0.32,-0.16 l 0.27,-0.15 a 0.7,0.7 0 0 1 0.35,-0.08 1.29,1.29 0 0 1 0.59,0.15 0.9,0.9 0 0 1 0.43,0.57 1.91,1.91 0 0 1 0,1.05 9,9 0 0 1 -0.5,1.27 c -0.21,0.45 -0.44,0.88 -0.68,1.32 -0.24,0.44 -0.44,0.82 -0.6,1.15 a 2.47,2.47 0 0 0 -0.28,0.82 q 0,0.3 0.3,0.27 a 0.79,0.79 0 0 0 0.37,-0.24 4.16,4.16 0 0 0 0.51,-0.56 c 0.19,-0.24 0.38,-0.49 0.58,-0.78 0.2,-0.29 0.38,-0.57 0.56,-0.86 a 8.8,8.8 0 0 0 0.47,-0.81 4.77,4.77 0 0 0 0.3,-0.63 0.22,0.22 0 0 1 0.15,-0.15 0.31,0.31 0 0 1 0.19,0 0.27,0.27 0 0 1 0.14,0.12 0.19,0.19 0 0 1 0,0.19 c -0.08,0.17 -0.19,0.4 -0.34,0.69 -0.15,0.29 -0.32,0.6 -0.52,0.93 -0.2,0.33 -0.42,0.66 -0.66,1 a 10.19,10.19 0 0 1 -0.73,0.92 4.71,4.71 0 0 1 -0.76,0.68 1.36,1.36 0 0 1 -0.74,0.26 0.86,0.86 0 0 1 -0.51,-0.12 0.87,0.87 0 0 1 -0.34,-0.37 1.64,1.64 0 0 1 -0.18,-0.59 3.13,3.13 0 0 1 0,-0.75 5.45,5.45 0 0 1 0.28,-1.22 c 0.15,-0.44 0.31,-0.86 0.49,-1.28 0.18,-0.42 0.35,-0.81 0.51,-1.17 a 8.41,8.41 0 0 0 0.37,-0.93 2.41,2.41 0 0 1 -0.7,0.14 2.84,2.84 0 0 1 -0.77,-0.08 c 0,0.06 -0.09,0.19 -0.16,0.37 -0.07,0.18 -0.15,0.38 -0.24,0.59 l -0.27,0.62 c -0.09,0.2 -0.16,0.36 -0.22,0.47 z m 10.47,-2.29 a 3.07,3.07 0 0 1 0,1.09 8.49,8.49 0 0 1 -0.39,1.4 9.3,9.3 0 0 1 -0.73,1.49 7.87,7.87 0 0 1 -1,1.34 4.74,4.74 0 0 1 -1.21,1 2.73,2.73 0 0 1 -1.35,0.36 1.69,1.69 0 0 1 -1.07,-0.28 1.29,1.29 0 0 1 -0.45,-0.74 2.86,2.86 0 0 1 0,-1 8.52,8.52 0 0 1 0.31,-1.23 c 0.14,-0.42 0.29,-0.83 0.46,-1.25 0.17,-0.42 0.31,-0.8 0.44,-1.14 0.13,-0.34 0.22,-0.63 0.29,-0.87 0.07,-0.24 0.06,-0.4 0,-0.46 -0.06,-0.06 0,-0.13 0.09,-0.21 a 1.09,1.09 0 0 1 0.5,-0.13 1.27,1.27 0 0 1 0.61,0.13 0.88,0.88 0 0 1 0.45,0.59 1.91,1.91 0 0 1 0,1 9.08,9.08 0 0 1 -0.49,1.29 c -0.21,0.45 -0.43,0.89 -0.66,1.33 a 11.45,11.45 0 0 0 -0.54,1.2 1.93,1.93 0 0 0 -0.17,0.86 c 0,0.21 0.19,0.32 0.5,0.32 a 1.17,1.17 0 0 0 0.85,-0.45 5.12,5.12 0 0 0 0.75,-1.14 10.76,10.76 0 0 0 0.61,-1.49 15.64,15.64 0 0 0 0.44,-1.52 9.38,9.38 0 0 0 0.24,-1.23 1.32,1.32 0 0 0 0,-0.6 c 0,-0.06 0,-0.13 0.13,-0.21 a 1,1 0 0 1 0.48,-0.13 1.07,1.07 0 0 1 0.56,0.13 0.89,0.89 0 0 1 0.4,0.59 z m 3.6,-1.49 q 0,0.12 -0.24,0.12 a 1.42,1.42 0 0 1 -0.51,-0.11 1.7,1.7 0 0 1 -0.51,-0.36 0.81,0.81 0 0 1 -0.23,-0.61 0.72,0.72 0 0 1 0.08,-0.27 l 0.2,-0.37 c 0.08,-0.12 0.14,-0.24 0.2,-0.35 a 0.58,0.58 0 0 0 0.09,-0.25 c 0,-0.07 0.08,-0.1 0.22,-0.1 a 1.42,1.42 0 0 1 0.5,0.11 1.51,1.51 0 0 1 0.49,0.36 0.84,0.84 0 0 1 0.22,0.6 0.51,0.51 0 0 1 -0.08,0.25 l -0.17,0.34 a 3,3 0 0 0 -0.18,0.36 0.63,0.63 0 0 0 -0.08,0.28 z m 1.06,3.63 a 0.19,0.19 0 0 0 0,-0.19 0.27,0.27 0 0 0 -0.14,-0.12 0.31,0.31 0 0 0 -0.19,0 0.22,0.22 0 0 0 -0.15,0.15 4.77,4.77 0 0 1 -0.3,0.63 c -0.14,0.26 -0.29,0.53 -0.47,0.81 -0.18,0.28 -0.36,0.57 -0.56,0.86 -0.2,0.29 -0.39,0.54 -0.58,0.78 a 4.16,4.16 0 0 1 -0.51,0.56 0.71,0.71 0 0 1 -0.37,0.24 c -0.23,0 -0.33,-0.07 -0.31,-0.27 a 2.8,2.8 0 0 1 0.29,-0.82 c 0.16,-0.33 0.36,-0.72 0.6,-1.15 0.24,-0.43 0.47,-0.87 0.68,-1.32 a 7.83,7.83 0 0 0 0.49,-1.27 1.83,1.83 0 0 0 0,-1.05 0.91,0.91 0 0 0 -0.45,-0.59 1.4,1.4 0 0 0 -0.61,-0.13 1.18,1.18 0 0 0 -0.5,0.13 q -0.19,0.12 -0.09,0.21 a 0.42,0.42 0 0 1 0,0.38 4.66,4.66 0 0 1 -0.23,0.7 l -0.4,0.92 c -0.16,0.34 -0.31,0.69 -0.45,1.06 a 10.9,10.9 0 0 0 -0.39,1.09 5.36,5.36 0 0 0 -0.23,1 3.13,3.13 0 0 0 0,0.75 1.87,1.87 0 0 0 0.17,0.59 1,1 0 0 0 0.35,0.37 0.84,0.84 0 0 0 0.51,0.12 1.36,1.36 0 0 0 0.74,-0.26 5.17,5.17 0 0 0 0.76,-0.68 10.19,10.19 0 0 0 0.84,-0.87 c 0.24,-0.33 0.45,-0.66 0.66,-1 0.21,-0.34 0.37,-0.64 0.52,-0.93 0.15,-0.29 0.26,-0.52 0.34,-0.69 z m 3.31,-1.71 a 0.4,0.4 0 0 1 0.06,-0.22 0.73,0.73 0 0 1 0.17,-0.18 0.25,0.25 0 0 0 -0.23,-0.18 0.66,0.66 0 0 0 -0.46,0.19 3,3 0 0 0 -0.54,0.57 8.42,8.42 0 0 0 -0.6,0.93 c -0.2,0.37 -0.41,0.78 -0.62,1.23 a 5.87,5.87 0 0 0 -0.32,1 5,5 0 0 0 -0.14,1 2.14,2.14 0 0 0 0.08,0.79 0.52,0.52 0 0 0 0.38,0.39 1.25,1.25 0 0 0 0.7,-0.09 3.39,3.39 0 0 0 0.77,-0.47 5.68,5.68 0 0 0 0.77,-0.72 c 0.25,-0.28 0.49,-0.57 0.71,-0.87 a 10.74,10.74 0 0 0 0.59,-0.91 6.82,6.82 0 0 0 0.4,-0.83 0.26,0.26 0 0 1 0.15,-0.16 0.34,0.34 0 0 1 0.22,0 0.23,0.23 0 0 1 0.11,0.31 10.93,10.93 0 0 1 -0.59,1.1 10.72,10.72 0 0 1 -0.77,1.13 10.17,10.17 0 0 1 -0.93,1 4.81,4.81 0 0 1 -1,0.78 3.2,3.2 0 0 1 -1.08,0.39 2,2 0 0 1 -1.09,-0.13 1.63,1.63 0 0 1 -0.84,-0.69 2.34,2.34 0 0 1 -0.31,-1 3.61,3.61 0 0 1 0.09,-1.12 7.1,7.1 0 0 1 0.33,-1.07 7.37,7.37 0 0 1 0.79,-1.54 4.81,4.81 0 0 1 0.92,-1.05 3.25,3.25 0 0 1 1,-0.59 3.19,3.19 0 0 1 1.05,-0.16 1.92,1.92 0 0 1 0.38,0.07 1.12,1.12 0 0 1 0.37,0.17 1,1 0 0 1 0.28,0.32 0.91,0.91 0 0 1 0.12,0.49 0.58,0.58 0 0 1 -0.13,0.43 0.4,0.4 0 0 1 -0.33,0.15 0.47,0.47 0 0 1 -0.31,-0.12 0.37,0.37 0 0 1 -0.14,-0.31 z m 4.53,-1.92 q 0,0.12 -0.24,0.12 a 1.42,1.42 0 0 1 -0.51,-0.11 1.7,1.7 0 0 1 -0.51,-0.36 0.85,0.85 0 0 1 -0.23,-0.61 0.6,0.6 0 0 1 0.09,-0.27 c 0.05,-0.12 0.12,-0.24 0.19,-0.37 a 2.57,2.57 0 0 0 0.2,-0.35 0.58,0.58 0 0 0 0.09,-0.25 c 0,-0.07 0.08,-0.1 0.22,-0.1 a 1.35,1.35 0 0 1 1,0.47 0.84,0.84 0 0 1 0.22,0.6 0.51,0.51 0 0 1 -0.08,0.25 l -0.17,0.34 a 3,3 0 0 0 -0.18,0.36 0.63,0.63 0 0 0 -0.08,0.28 z m 1.06,3.63 a 0.19,0.19 0 0 0 0,-0.19 0.27,0.27 0 0 0 -0.14,-0.12 0.31,0.31 0 0 0 -0.19,0 0.22,0.22 0 0 0 -0.15,0.15 4.77,4.77 0 0 1 -0.3,0.63 8.8,8.8 0 0 1 -0.47,0.81 c -0.18,0.29 -0.36,0.57 -0.56,0.86 -0.2,0.29 -0.39,0.54 -0.58,0.78 a 4.16,4.16 0 0 1 -0.51,0.56 0.71,0.71 0 0 1 -0.37,0.24 q -0.35,0 -0.3,-0.27 a 2.47,2.47 0 0 1 0.28,-0.82 c 0.16,-0.33 0.36,-0.72 0.6,-1.15 0.24,-0.43 0.47,-0.87 0.68,-1.32 a 9,9 0 0 0 0.5,-1.27 1.91,1.91 0 0 0 0,-1.05 0.91,0.91 0 0 0 -0.45,-0.59 1.4,1.4 0 0 0 -0.61,-0.13 1.18,1.18 0 0 0 -0.5,0.13 q -0.19,0.12 -0.09,0.21 a 0.42,0.42 0 0 1 0,0.38 4.66,4.66 0 0 1 -0.23,0.7 l -0.4,0.92 c -0.15,0.34 -0.3,0.69 -0.45,1.06 a 10.9,10.9 0 0 0 -0.39,1.09 5.36,5.36 0 0 0 -0.23,1 3.13,3.13 0 0 0 0,0.75 1.64,1.64 0 0 0 0.18,0.59 0.87,0.87 0 0 0 0.34,0.37 0.84,0.84 0 0 0 0.51,0.12 1.36,1.36 0 0 0 0.74,-0.26 4.71,4.71 0 0 0 0.76,-0.68 10.19,10.19 0 0 0 0.73,-0.92 q 0.36,-0.5 0.66,-1 c 0.2,-0.33 0.37,-0.64 0.52,-0.93 0.15,-0.29 0.26,-0.52 0.34,-0.69 z m 4.22,-1.85 a 0.5,0.5 0 0 1 -0.09,0.34 0.39,0.39 0 0 1 -0.37,0.23 0.47,0.47 0 0 1 -0.31,-0.12 0.37,0.37 0 0 1 -0.14,-0.31 0.4,0.4 0 0 1 0.06,-0.22 0.73,0.73 0 0 1 0.17,-0.18 q -0.12,-0.21 -0.27,-0.21 a 0.56,0.56 0 0 0 -0.33,0.13 1.61,1.61 0 0 0 -0.36,0.34 c -0.13,0.14 -0.25,0.29 -0.37,0.43 a 7.88,7.88 0 0 0 -0.59,0.93 8.08,8.08 0 0 0 -0.51,1.07 8.29,8.29 0 0 0 -0.36,1.1 4.53,4.53 0 0 0 -0.14,1 1.73,1.73 0 0 0 0.13,0.73 0.57,0.57 0 0 0 0.44,0.34 0.59,0.59 0 0 0 0.5,-0.2 3.81,3.81 0 0 0 0.54,-0.62 c 0.18,-0.26 0.36,-0.54 0.53,-0.84 a 8.81,8.81 0 0 0 0.45,-0.83 0.73,0.73 0 0 1 -0.42,-0.44 1.16,1.16 0 0 1 -0.08,-0.61 1.06,1.06 0 0 1 0.24,-0.54 0.6,0.6 0 0 1 0.49,-0.24 h 0.26 a 0.43,0.43 0 0 1 0.28,0.16 0.73,0.73 0 0 1 0.13,0.45 2.83,2.83 0 0 1 -0.16,0.9 2.67,2.67 0 0 0 0.95,-0.16 2,2 0 0 0 0.55,-0.33 1.11,1.11 0 0 0 0.27,-0.34 1.11,1.11 0 0 1 0.09,-0.22 0.19,0.19 0 0 1 0.14,-0.12 0.25,0.25 0 0 1 0.19,0 0.27,0.27 0 0 1 0.13,0.35 1.51,1.51 0 0 1 -0.37,0.52 2.39,2.39 0 0 1 -0.58,0.4 3.34,3.34 0 0 1 -1.56,0.32 c -0.14,0.31 -0.31,0.65 -0.52,1 a 7.15,7.15 0 0 1 -0.73,1 4.2,4.2 0 0 1 -0.91,0.79 1.67,1.67 0 0 1 -1.06,0.27 1.62,1.62 0 0 1 -1.16,-0.62 2.29,2.29 0 0 1 -0.45,-1.33 5.28,5.28 0 0 1 0.12,-1.23 6.62,6.62 0 0 1 1.05,-2.44 5,5 0 0 1 0.86,-1 3.76,3.76 0 0 1 1.05,-0.63 2.84,2.84 0 0 1 1.19,-0.19 1,1 0 0 1 0.46,0.12 1.18,1.18 0 0 1 0.31,0.27 1,1 0 0 1 0.17,0.34 2.9,2.9 0 0 1 0.09,0.34 z m 2.79,2.23 a 1.76,1.76 0 0 1 0.08,-1 10.55,10.55 0 0 1 0.53,-1.46 c 0.22,-0.53 0.47,-1.07 0.75,-1.63 0.28,-0.56 0.52,-1.08 0.75,-1.56 a 11.75,11.75 0 0 0 0.5,-1.21 c 0.12,-0.34 0.14,-0.55 0.06,-0.62 -0.08,-0.07 0,-0.13 0.1,-0.21 a 1.05,1.05 0 0 1 0.5,-0.13 1.22,1.22 0 0 1 0.61,0.13 0.88,0.88 0 0 1 0.45,0.59 1.75,1.75 0 0 1 -0.09,1 11,11 0 0 1 -0.57,1.41 q -0.36,0.76 -0.81,1.56 -0.45,0.8 -0.81,1.5 a 12.59,12.59 0 0 0 -0.57,1.24 1,1 0 0 0 -0.09,0.76 c 0,0.08 0,0.16 -0.1,0.24 a 0.62,0.62 0 0 1 -0.4,0.13 0.85,0.85 0 0 1 -0.5,-0.15 1,1 0 0 1 -0.39,-0.61 z m 0.11,4 c 0,0.07 -0.07,0.11 -0.2,0.11 a 1.07,1.07 0 0 1 -0.44,-0.1 1.12,1.12 0 0 1 -0.43,-0.3 0.72,0.72 0 0 1 -0.2,-0.53 0.56,0.56 0 0 1 0.07,-0.24 l 0.17,-0.31 0.17,-0.3 a 0.49,0.49 0 0 0 0.07,-0.22 c 0,-0.05 0.07,-0.08 0.2,-0.08 a 1.06,1.06 0 0 1 0.42,0.1 1.34,1.34 0 0 1 0.42,0.31 0.77,0.77 0 0 1 0.19,0.52 0.46,0.46 0 0 1 -0.07,0.21 l -0.15,0.3 c -0.06,0.1 -0.11,0.2 -0.16,0.3 a 0.7,0.7 0 0 0 -0.06,0.23 z"
       class="cls-7" />
  </g>
  <path
     class="cls-8"
     d="m 137.31537,93.272348 2.65,-0.33 q 0.45,3.16 3,3.16 a 2.82,2.82 0 0 0 2,-0.64 2.1,2.1 0 0 0 0.71,-1.61 1.7,1.7 0 0 0 -0.25,-0.95 1.83,1.83 0 0 0 -0.76,-0.65 20.88,20.88 0 0 0 -2.46,-0.85001 8.15,8.15 0 0 1 -2.56,-1.15 4.34,4.34 0 0 1 -1.29,-1.62 5,5 0 0 1 -0.48,-2.17001 4.83,4.83 0 0 1 0.62,-2.43 4,4 0 0 1 1.7,-1.64 5.93,5.93 0 0 1 2.67,-0.55001 4.72,4.72 0 0 1 5.17,5.00001 l -2.75,0.14 a 2.93,2.93 0 0 0 -0.78,-1.85 2.52,2.52 0 0 0 -1.71,-0.53 2.81,2.81 0 0 0 -1.71,0.46 1.37,1.37 0 0 0 -0.6,1.13 1.41,1.41 0 0 0 0.55,1.13001 8.17,8.17 0 0 0 2.5,1 10.41,10.41 0 0 1 3,1.26 4.3,4.3 0 0 1 1.4,1.7 6,6 0 0 1 0.48,2.53001 5.18,5.18 0 0 1 -1.32,3.61001 5.3,5.3 0 0 1 -4.14,1.47 q -5,0 -5.54,-5.65001 z m 19.75,5.37001 v -1.79001 a 4.09,4.09 0 0 1 -1.42,1.52001 3.4,3.4 0 0 1 -1.84,0.55 3,3 0 0 1 -2.87,-1.95001 7.64,7.64 0 0 1 -0.38,-2.72 v -7.58002 h 2.61 v 5.50002 a 21.75,21.75 0 0 0 0.12,3 1.59,1.59 0 0 0 0.52,1 1.44,1.44 0 0 0 1,0.35 1.89,1.89 0 0 0 1.21,-0.46 2.2,2.2 0 0 0 0.72,-1.17 17,17 0 0 0 0.17,-3.15001 v -5.05001 h 2.61 v 12.00003 z m 7.59,0 h -2.64 v -12.00003 h 2.43 v 1.70001 a 5,5 0 0 1 1.11,-1.59001 1.74,1.74 0 0 1 1.13,-0.39 2.82,2.82 0 0 1 1.7,0.6 l -0.81,2.76001 a 2,2 0 0 0 -1.22,-0.52 1.34,1.34 0 0 0 -1,0.4 2.7,2.7 0 0 0 -0.59,1.45 27.13,27.13 0 0 0 -0.18,3.86001 v 3.70001 z m 13.43,-8.42002 -2.56,0.55 c -0.19,-1.26 -0.78,-1.89 -1.78,-1.89 a 1.83,1.83 0 0 0 -1.56,0.81 4.88,4.88 0 0 0 -0.59,2.75001 5.68,5.68 0 0 0 0.59,3 1.8,1.8 0 0 0 1.57,0.89 1.55,1.55 0 0 0 1.2,-0.51 3.32,3.32 0 0 0 0.68,-1.78 l 2.56,0.53 q -0.78,4.34001 -4.54,4.34001 a 3.91,3.91 0 0 1 -3.55,-1.83 8.09,8.09 0 0 1 -1.16,-4.40001 7.3,7.3 0 0 1 1.31,-4.69001 4.62,4.62 0 0 1 6.27,-0.69 5.32,5.32 0 0 1 1.56,2.91 z m 1.34,2.27001 a 7.2,7.2 0 0 1 0.7,-3.21001 5.13,5.13 0 0 1 1.82,-2.17 4.62,4.62 0 0 1 2.54,-0.72001 4.33,4.33 0 0 1 3.71,1.86001 7.12,7.12 0 0 1 1.36,4.34001 7.72,7.72 0 0 1 -0.71,3.34 5.27,5.27 0 0 1 -1.85,2.24001 4.45,4.45 0 0 1 -2.5,0.75 4.6,4.6 0 0 1 -3.63,-1.67 7.07,7.07 0 0 1 -1.44,-4.76001 z m 2.65,0.16 a 4.49,4.49 0 0 0 0.71,2.75 2.13,2.13 0 0 0 1.73,0.94 2.08,2.08 0 0 0 1.68,-0.94 4.58,4.58 0 0 0 0.7,-2.77 4.41,4.41 0 0 0 -0.71,-2.72001 2,2 0 0 0 -3.4,0 4.52,4.52 0 0 0 -0.71,2.74001 z m 9.53,6.00001 v -16.53003 h 2.61 v 16.52003 z m 4.64,-6.15001 a 7.34,7.34 0 0 1 0.7,-3.21001 5.2,5.2 0 0 1 1.82,-2.17 4.64,4.64 0 0 1 2.54,-0.72001 4.34,4.34 0 0 1 3.72,1.86001 7.18,7.18 0 0 1 1.35,4.34001 7.71,7.71 0 0 1 -0.7,3.34 5.34,5.34 0 0 1 -1.85,2.24001 4.48,4.48 0 0 1 -2.51,0.75 4.61,4.61 0 0 1 -3.63,-1.67 7.07,7.07 0 0 1 -1.44,-4.76001 z m 2.65,0.16 a 4.43,4.43 0 0 0 0.72,2.75 2.12,2.12 0 0 0 1.72,0.94 2.08,2.08 0 0 0 1.69,-0.94 4.65,4.65 0 0 0 0.7,-2.77 4.48,4.48 0 0 0 -0.71,-2.72001 2.13,2.13 0 0 0 -1.72,-0.94 2.11,2.11 0 0 0 -1.69,0.94 4.52,4.52 0 0 0 -0.71,2.74001 z m 9.33,-6.00002 h 2.42 v 1.63001 a 4.69,4.69 0 0 1 1.41,-1.43001 3.06,3.06 0 0 1 1.66,-0.48 2.9,2.9 0 0 1 1.64,0.47 3.39,3.39 0 0 1 1.13,1.43001 5,5 0 0 1 1.4,-1.43001 3,3 0 0 1 1.6,-0.47 3.08,3.08 0 0 1 1.73,0.48 3,3 0 0 1 1.1,1.37001 7.5,7.5 0 0 1 0.38,2.74 v 7.66002 h -2.61 v -6.85002 a 5.92,5.92 0 0 0 -0.32,-2.39 1.11,1.11 0 0 0 -1.06,-0.59 1.63,1.63 0 0 0 -1.41,0.83 6.63,6.63 0 0 0 -0.53,3.25001 v 5.75001 h -2.61 v -6.59001 a 8.55,8.55 0 0 0 -0.22,-2.51001 1.09,1.09 0 0 0 -1.13,-0.75 1.66,1.66 0 0 0 -1.06,0.39 2.06,2.06 0 0 0 -0.7,1.12 10.3,10.3 0 0 0 -0.21,2.50001 v 5.82001 h -2.61 v -12.00003 z m 16.91,12.00003 v -16.54003 h 2.61 v 5.92001 a 4.56,4.56 0 0 1 1.31,-1.26001 3.09,3.09 0 0 1 1.54,-0.41 3.58,3.58 0 0 1 2.93,1.57001 7.6,7.6 0 0 1 1.19,4.63001 7.8,7.8 0 0 1 -1.22,4.69001 3.56,3.56 0 0 1 -2.88,1.64 3.05,3.05 0 0 1 -1.66,-0.52 4.25,4.25 0 0 1 -1.39,-1.51001 v 1.75001 z m 2.59,-6.24001 a 7.15,7.15 0 0 0 0.3,2.36 2.59,2.59 0 0 0 0.83,1.24 1.78,1.78 0 0 0 1.14,0.43 1.75,1.75 0 0 0 1.46,-0.9 5.25,5.25 0 0 0 0.61,-2.85 5.46,5.46 0 0 0 -0.62,-3.00001 1.81,1.81 0 0 0 -1.55,-0.91 1.85,1.85 0 0 0 -1.54,0.88 4.71,4.71 0 0 0 -0.63,2.71001 z m 9.09,-7.35002 v -2.93 h 2.61 v 2.9 z m 0,13.59003 v -12.00003 h 2.61 v 12.00003 z m 7.23,-8.33002 -2.36,-0.48 a 4.71,4.71 0 0 1 1.41,-2.64 4.42,4.42 0 0 1 2.83,-0.80001 5.42,5.42 0 0 1 2.51,0.46 2.74,2.74 0 0 1 1.24,1.26001 7.82,7.82 0 0 1 0.37,2.89 v 3.70001 a 15.88,15.88 0 0 0 0.13,2.32001 7.94,7.94 0 0 0 0.45,1.62 h -2.56 l -0.34,-1.3 a 4.71,4.71 0 0 1 -1.43,1.18 3.35,3.35 0 0 1 -1.62,0.4 3.06,3.06 0 0 1 -2.34,-1 3.57,3.57 0 0 1 -0.92,-2.56001 4,4 0 0 1 0.38,-1.78 3,3 0 0 1 1.05,-1.21 6.84,6.84 0 0 1 2.17,-0.80001 12.79,12.79 0 0 0 2.52,-0.78 3.87,3.87 0 0 0 -0.14,-1.3 1.12,1.12 0 0 0 -0.52,-0.51 2.32,2.32 0 0 0 -1.06,-0.2 1.73,1.73 0 0 0 -1.1,0.32 2.27,2.27 0 0 0 -0.64,1.18 z m 3.46,2.56001 a 12,12 0 0 1 -1.55,0.48 3.71,3.71 0 0 0 -1.59,0.7 1.37,1.37 0 0 0 -0.37,1 1.71,1.71 0 0 0 0.41,1.16 1.34,1.34 0 0 0 1,0.47 2,2 0 0 0 1.1,-0.38 2,2 0 0 0 0.75,-0.9 5.77,5.77 0 0 0 0.21,-1.89 v -0.64 z m 14,5.77001 h -2.61 v -6.12001 a 12.48,12.48 0 0 0 -0.15,-2.44001 1.66,1.66 0 0 0 -0.54,-0.94 1.4,1.4 0 0 0 -0.91,-0.33 1.79,1.79 0 0 0 -1.18,0.43 2.17,2.17 0 0 0 -0.74,1.16 11.59,11.59 0 0 0 -0.22,2.81001 v 5.43001 h -2.61 v -12.00003 h 2.43 v 1.75001 a 4.7,4.7 0 0 1 1.44,-1.52001 3.28,3.28 0 0 1 1.79,-0.51 3,3 0 0 1 3,2.11001 9.28,9.28 0 0 1 0.3,2.7 v 7.44002 z m 4.61,-8.33002 -2.35,-0.48 a 4.6,4.6 0 0 1 1.41,-2.64 4.4,4.4 0 0 1 2.83,-0.80001 5.38,5.38 0 0 1 2.5,0.46 2.74,2.74 0 0 1 1.24,1.26001 7.61,7.61 0 0 1 0.37,2.89 v 3.70001 a 16.21,16.21 0 0 0 0.12,2.32001 7.4,7.4 0 0 0 0.46,1.62 h -2.57 l -0.33,-1.3 a 4.83,4.83 0 0 1 -1.43,1.18 3.41,3.41 0 0 1 -1.62,0.4 3.09,3.09 0 0 1 -2.35,-1 3.56,3.56 0 0 1 -0.91,-2.56001 4,4 0 0 1 0.37,-1.78 3,3 0 0 1 1.05,-1.21 7,7 0 0 1 2.17,-0.80001 12.34,12.34 0 0 0 2.52,-0.78 3.61,3.61 0 0 0 -0.14,-1.3 1.05,1.05 0 0 0 -0.51,-0.51 2.37,2.37 0 0 0 -1.07,-0.2 1.7,1.7 0 0 0 -1.09,0.32 2.27,2.27 0 0 0 -0.65,1.18 z m 3.46,2.56001 a 12,12 0 0 1 -1.55,0.48 3.72,3.72 0 0 0 -1.58,0.7 1.37,1.37 0 0 0 -0.37,1 1.66,1.66 0 0 0 0.41,1.16 1.33,1.33 0 0 0 1,0.47 1.9,1.9 0 0 0 1.09,-0.38 2.1,2.1 0 0 0 0.76,-0.9 6.14,6.14 0 0 0 0.2,-1.89 v -0.64 z m 19.37,5.77001 h -2.43 v -1.75001 a 4.31,4.31 0 0 1 -1.4,1.52001 3.1,3.1 0 0 1 -1.67,0.51 3.53,3.53 0 0 1 -2.86,-1.64 7.8,7.8 0 0 1 -1.22,-4.69001 7.61,7.61 0 0 1 1.19,-4.64001 3.57,3.57 0 0 1 2.94,-1.56001 3.08,3.08 0 0 1 1.53,0.41 4.56,4.56 0 0 1 1.29,1.22001 v -5.94001 h 2.61 v 16.54003 z m -6.93,-6.24001 a 8.08,8.08 0 0 0 0.28,2.43 2.52,2.52 0 0 0 0.78,1.2 1.9,1.9 0 0 0 1.16,0.4 1.79,1.79 0 0 0 1.48,-0.93 5,5 0 0 0 0.63,-2.8 5.5,5.5 0 0 0 -0.61,-3.00001 1.78,1.78 0 0 0 -3.09,0 4.72,4.72 0 0 0 -0.63,2.70001 z m 15.19,2.44 2.58,0.53 a 5.12,5.12 0 0 1 -1.61,2.68001 4.16,4.16 0 0 1 -2.67,0.87 4.06,4.06 0 0 1 -3.36,-1.46 7.19,7.19 0 0 1 -1.4,-4.74001 7.68,7.68 0 0 1 1.4,-4.81001 3.77,3.77 0 0 1 3.09,-1.52001 3.91,3.91 0 0 1 3.3,1.56001 8.47,8.47 0 0 1 1.38,5.25001 v 0.37 h -6.51 a 3.62,3.62 0 0 0 0.64,2.2 1.84,1.84 0 0 0 1.49,0.77 c 0.84,0 1.4,-0.57 1.68,-1.7 z m 0.14,-3.21001 a 3.56,3.56 0 0 0 -0.6,-2.11 1.66,1.66 0 0 0 -2.74,0 3.28,3.28 0 0 0 -0.56,2.08 z m 16.27,0.94001 v -2.79001 h 5.91 v 6.58001 a 7.39,7.39 0 0 1 -2.53,1.81001 7.79,7.79 0 0 1 -3.28,0.75 6.45,6.45 0 0 1 -3.54,-1 6.76,6.76 0 0 1 -2.43,-3.00001 11.17,11.17 0 0 1 -0.89,-4.62001 11,11 0 0 1 0.9,-4.66001 6.81,6.81 0 0 1 2.36,-2.9 6.11,6.11 0 0 1 3.46,-1.00001 5.76,5.76 0 0 1 3.88,1.24001 5.87,5.87 0 0 1 1.88,3.63 l -2.7,0.63001 a 3.55,3.55 0 0 0 -1.11,-2.00001 3,3 0 0 0 -1.95,-0.68 3.44,3.44 0 0 0 -2.83,1.36 6.56,6.56 0 0 0 -1.08,4.13001 7.42,7.42 0 0 0 1.17,4.53001 3.23,3.23 0 0 0 2.72,1.34 4.19,4.19 0 0 0 1.66,-0.38 5.3,5.3 0 0 0 1.54,-1 v -2.09 z m 10.36,-2.26001 -2.35,-0.48 a 4.6,4.6 0 0 1 1.41,-2.64 4.4,4.4 0 0 1 2.83,-0.80001 5.45,5.45 0 0 1 2.51,0.46 2.77,2.77 0 0 1 1.23,1.26001 7.61,7.61 0 0 1 0.37,2.89 v 3.70001 a 16.21,16.21 0 0 0 0.12,2.32001 7.4,7.4 0 0 0 0.46,1.62 h -2.56 l -0.34,-1.3 a 4.83,4.83 0 0 1 -1.43,1.18 3.41,3.41 0 0 1 -1.62,0.4 3.09,3.09 0 0 1 -2.35,-1 3.56,3.56 0 0 1 -0.91,-2.56001 4,4 0 0 1 0.37,-1.78 3,3 0 0 1 1.05,-1.21 7,7 0 0 1 2.18,-0.80001 12.41,12.41 0 0 0 2.51,-0.78 3.61,3.61 0 0 0 -0.14,-1.3 1.05,1.05 0 0 0 -0.51,-0.51 2.35,2.35 0 0 0 -1.06,-0.2 1.72,1.72 0 0 0 -1.1,0.32 2.27,2.27 0 0 0 -0.65,1.18 z m 3.46,2.56001 a 12,12 0 0 1 -1.55,0.48 3.72,3.72 0 0 0 -1.58,0.7 1.37,1.37 0 0 0 -0.37,1 1.71,1.71 0 0 0 0.41,1.16 1.34,1.34 0 0 0 1,0.47 1.9,1.9 0 0 0 1.09,-0.38 2.1,2.1 0 0 0 0.76,-0.9 5.84,5.84 0 0 0 0.2,-1.89 v -0.64 z m 4.2,2.36 2.61,-0.49 a 2,2 0 0 0 2.1,1.9 2.2,2.2 0 0 0 1.39,-0.37 1.12,1.12 0 0 0 0.46,-0.94 0.88,0.88 0 0 0 -0.21,-0.62 1.87,1.87 0 0 0 -0.84,-0.39 11.49,11.49 0 0 1 -4.08,-1.62 3.33,3.33 0 0 1 -1.08,-2.63001 3.57,3.57 0 0 1 1.06,-2.68 4.34,4.34 0 0 1 3.09,-1.00001 4.85,4.85 0 0 1 2.93,0.75001 4.1,4.1 0 0 1 1.41,2.43 l -2.44,0.56 a 1.71,1.71 0 0 0 -1.85,-1.46 2.57,2.57 0 0 0 -1.37,0.28 0.86,0.86 0 0 0 -0.41,0.73 0.79,0.79 0 0 0 0.37,0.66 10,10 0 0 0 2.3,0.81 6.21,6.21 0 0 1 3,1.47001 3.37,3.37 0 0 1 0.77,2.31 3.77,3.77 0 0 1 -1.19,2.86001 4.58,4.58 0 0 1 -3.28,1.13 4.94,4.94 0 0 1 -3.11,-0.94 4.57,4.57 0 0 1 -1.59,-2.75001 z m 16,-2 2.66,-0.33 c 0.3,2.11 1.28,3.16 3,3.16 a 2.78,2.78 0 0 0 1.95,-0.64 2.08,2.08 0 0 0 0.72,-1.61 1.79,1.79 0 0 0 -0.25,-0.95 1.89,1.89 0 0 0 -0.76,-0.65 21.63,21.63 0 0 0 -2.46,-0.85001 8,8 0 0 1 -2.56,-1.15 4.34,4.34 0 0 1 -1.29,-1.62 5,5 0 0 1 -0.48,-2.17001 4.82,4.82 0 0 1 0.61,-2.43 4.07,4.07 0 0 1 1.7,-1.64 6,6 0 0 1 2.68,-0.55001 4.7,4.7 0 0 1 5.16,5.00001 l -2.75,0.14 a 2.88,2.88 0 0 0 -0.78,-1.85 2.52,2.52 0 0 0 -1.71,-0.53 2.81,2.81 0 0 0 -1.76,0.46 1.37,1.37 0 0 0 -0.6,1.13 1.44,1.44 0 0 0 0.55,1.13001 8.29,8.29 0 0 0 2.5,1 10.16,10.16 0 0 1 3,1.26 4.4,4.4 0 0 1 1.41,1.7 6,6 0 0 1 0.48,2.53001 5.18,5.18 0 0 1 -1.32,3.61001 5.34,5.34 0 0 1 -4.15,1.47 c -3.32,0 -5.16,-1.88001 -5.54,-5.65001 z m 13.27,5.37001 v -3.16001 h 2.58 v 3.16001 z m 17.51,0 h -3 l -1.1,-3.72001 h -5.44 l -1.12,3.74001 h -2.91 l 5.27,-16.52003 h 2.91 l 5.41,16.52003 z m -5,-6.53001 -1.87,-6.13002 -1.84,6.13002 z m 6.42,6.53001 v -3.16001 h 2.58 v 3.16001 z m 10.57,0 v -16.50003 h 10 v 2.79 h -7.29 v 3.65001 h 6.81 v 2.79 h -6.81 v 4.50001 h 7.57 v 2.79001 z m 12.57,0 v -3.16001 h 2.59 v 3.16001 z m 4.62,-5.37001 2.65,-0.33 q 0.45,3.16 3,3.16 a 2.82,2.82 0 0 0 2,-0.64 2.1,2.1 0 0 0 0.71,-1.61 1.7,1.7 0 0 0 -0.25,-0.95 1.83,1.83 0 0 0 -0.76,-0.65 20.88,20.88 0 0 0 -2.46,-0.85001 8.15,8.15 0 0 1 -2.56,-1.15 4.34,4.34 0 0 1 -1.29,-1.62 5,5 0 0 1 -0.48,-2.17001 4.83,4.83 0 0 1 0.62,-2.43 4,4 0 0 1 1.7,-1.64 5.93,5.93 0 0 1 2.67,-0.55001 4.72,4.72 0 0 1 5.17,5.00001 l -2.75,0.14 a 2.93,2.93 0 0 0 -0.78,-1.85 2.52,2.52 0 0 0 -1.71,-0.53 2.81,2.81 0 0 0 -1.76,0.46 1.37,1.37 0 0 0 -0.6,1.13 1.41,1.41 0 0 0 0.55,1.13001 8.29,8.29 0 0 0 2.5,1 10.29,10.29 0 0 1 3,1.26 4.3,4.3 0 0 1 1.4,1.7 6,6 0 0 1 0.49,2.53001 5.19,5.19 0 0 1 -1.33,3.61001 5.3,5.3 0 0 1 -4.14,1.47 q -5,0 -5.54,-5.65001 z m 13.26,5.37001 v -3.16001 h 2.59 v 3.16001 z m 5.31,0 v -16.50003 h 4.4 a 13.21,13.21 0 0 1 3.21,0.24 3.6,3.6 0 0 1 2,1.63 5.92,5.92 0 0 1 0.79,3.23001 6.1,6.1 0 0 1 -0.68,3 4,4 0 0 1 -1.69,1.7 8.78,8.78 0 0 1 -3.5,0.49001 h -1.8 v 6.23001 z m 2.72,-13.73003 v 4.71001 h 1.52 a 6.36,6.36 0 0 0 2.08,-0.22 1.81,1.81 0 0 0 0.9,-0.77 2.51,2.51 0 0 0 0.35,-1.38 2.54,2.54 0 0 0 -0.36,-1.39001 1.82,1.82 0 0 0 -0.9,-0.76 8.51,8.51 0 0 0 -2.25,-0.19 z m 7.43,13.75003 v -3.16001 h 2.59 v 3.16001 z"
     id="path86"
     inkscape:connector-curvature="0"
     style="fill:none;stroke:#ffffff;stroke-width:2.76999998px;stroke-linecap:round;stroke-linejoin:round" />
  <path
     class="cls-7"
     d="m 137.31537,93.272348 2.65,-0.33 q 0.45,3.16 3,3.16 a 2.82,2.82 0 0 0 2,-0.64 2.1,2.1 0 0 0 0.71,-1.61 1.7,1.7 0 0 0 -0.25,-0.95 1.83,1.83 0 0 0 -0.76,-0.65 20.88,20.88 0 0 0 -2.46,-0.85001 8.15,8.15 0 0 1 -2.56,-1.15 4.34,4.34 0 0 1 -1.29,-1.62 5,5 0 0 1 -0.48,-2.17001 4.83,4.83 0 0 1 0.62,-2.43 4,4 0 0 1 1.7,-1.64 5.93,5.93 0 0 1 2.67,-0.55001 4.72,4.72 0 0 1 5.17,5.00001 l -2.75,0.14 a 2.93,2.93 0 0 0 -0.78,-1.85 2.52,2.52 0 0 0 -1.71,-0.53 2.81,2.81 0 0 0 -1.71,0.46 1.37,1.37 0 0 0 -0.6,1.13 1.41,1.41 0 0 0 0.55,1.13001 8.17,8.17 0 0 0 2.5,1 10.41,10.41 0 0 1 3,1.26 4.3,4.3 0 0 1 1.4,1.7 6,6 0 0 1 0.48,2.53001 5.18,5.18 0 0 1 -1.32,3.61001 5.3,5.3 0 0 1 -4.14,1.47 q -5,0 -5.54,-5.65001 z m 19.75,5.37001 v -1.79001 a 4.09,4.09 0 0 1 -1.42,1.52001 3.4,3.4 0 0 1 -1.84,0.55 3,3 0 0 1 -2.87,-1.95001 7.64,7.64 0 0 1 -0.38,-2.72 v -7.58002 h 2.61 v 5.50002 a 21.75,21.75 0 0 0 0.12,3 1.59,1.59 0 0 0 0.52,1 1.44,1.44 0 0 0 1,0.35 1.89,1.89 0 0 0 1.21,-0.46 2.2,2.2 0 0 0 0.72,-1.17 17,17 0 0 0 0.17,-3.15001 v -5.05001 h 2.61 v 12.00003 z m 7.59,0 h -2.64 v -12.00003 h 2.43 v 1.70001 a 5,5 0 0 1 1.11,-1.59001 1.74,1.74 0 0 1 1.13,-0.39 2.82,2.82 0 0 1 1.7,0.6 l -0.81,2.76001 a 2,2 0 0 0 -1.22,-0.52 1.34,1.34 0 0 0 -1,0.4 2.7,2.7 0 0 0 -0.59,1.45 27.13,27.13 0 0 0 -0.18,3.86001 v 3.70001 z m 13.43,-8.42002 -2.56,0.55 c -0.19,-1.26 -0.78,-1.89 -1.78,-1.89 a 1.83,1.83 0 0 0 -1.56,0.81 4.88,4.88 0 0 0 -0.59,2.75001 5.68,5.68 0 0 0 0.59,3 1.8,1.8 0 0 0 1.57,0.89 1.55,1.55 0 0 0 1.2,-0.51 3.32,3.32 0 0 0 0.68,-1.78 l 2.56,0.53 q -0.78,4.34001 -4.54,4.34001 a 3.91,3.91 0 0 1 -3.55,-1.83 8.09,8.09 0 0 1 -1.16,-4.40001 7.3,7.3 0 0 1 1.31,-4.69001 4.62,4.62 0 0 1 6.27,-0.69 5.32,5.32 0 0 1 1.56,2.91 z m 1.34,2.27001 a 7.2,7.2 0 0 1 0.7,-3.21001 5.13,5.13 0 0 1 1.82,-2.17 4.62,4.62 0 0 1 2.54,-0.72001 4.33,4.33 0 0 1 3.71,1.86001 7.12,7.12 0 0 1 1.36,4.34001 7.72,7.72 0 0 1 -0.71,3.34 5.27,5.27 0 0 1 -1.85,2.24001 4.45,4.45 0 0 1 -2.5,0.75 4.6,4.6 0 0 1 -3.63,-1.67 7.07,7.07 0 0 1 -1.44,-4.76001 z m 2.65,0.16 a 4.49,4.49 0 0 0 0.71,2.75 2.13,2.13 0 0 0 1.73,0.94 2.08,2.08 0 0 0 1.68,-0.94 4.58,4.58 0 0 0 0.7,-2.77 4.41,4.41 0 0 0 -0.71,-2.72001 2,2 0 0 0 -3.4,0 4.52,4.52 0 0 0 -0.71,2.74001 z m 9.53,6.00001 v -16.53003 h 2.61 v 16.52003 z m 4.64,-6.15001 a 7.34,7.34 0 0 1 0.7,-3.21001 5.2,5.2 0 0 1 1.82,-2.17 4.64,4.64 0 0 1 2.54,-0.72001 4.34,4.34 0 0 1 3.72,1.86001 7.18,7.18 0 0 1 1.35,4.34001 7.71,7.71 0 0 1 -0.7,3.34 5.34,5.34 0 0 1 -1.85,2.24001 4.48,4.48 0 0 1 -2.51,0.75 4.61,4.61 0 0 1 -3.63,-1.67 7.07,7.07 0 0 1 -1.44,-4.76001 z m 2.65,0.16 a 4.43,4.43 0 0 0 0.72,2.75 2.12,2.12 0 0 0 1.72,0.94 2.08,2.08 0 0 0 1.69,-0.94 4.65,4.65 0 0 0 0.7,-2.77 4.48,4.48 0 0 0 -0.71,-2.72001 2.13,2.13 0 0 0 -1.72,-0.94 2.11,2.11 0 0 0 -1.69,0.94 4.52,4.52 0 0 0 -0.71,2.74001 z m 9.33,-6.00002 h 2.42 v 1.63001 a 4.69,4.69 0 0 1 1.41,-1.43001 3.06,3.06 0 0 1 1.66,-0.48 2.9,2.9 0 0 1 1.64,0.47 3.39,3.39 0 0 1 1.13,1.43001 5,5 0 0 1 1.4,-1.43001 3,3 0 0 1 1.6,-0.47 3.08,3.08 0 0 1 1.73,0.48 3,3 0 0 1 1.1,1.37001 7.5,7.5 0 0 1 0.38,2.74 v 7.66002 h -2.61 v -6.85002 a 5.92,5.92 0 0 0 -0.32,-2.39 1.11,1.11 0 0 0 -1.06,-0.59 1.63,1.63 0 0 0 -1.41,0.83 6.63,6.63 0 0 0 -0.53,3.25001 v 5.75001 h -2.61 v -6.59001 a 8.55,8.55 0 0 0 -0.22,-2.51001 1.09,1.09 0 0 0 -1.13,-0.75 1.66,1.66 0 0 0 -1.06,0.39 2.06,2.06 0 0 0 -0.7,1.12 10.3,10.3 0 0 0 -0.21,2.50001 v 5.82001 h -2.61 v -12.00003 z m 16.91,12.00003 v -16.54003 h 2.61 v 5.92001 a 4.56,4.56 0 0 1 1.31,-1.26001 3.09,3.09 0 0 1 1.54,-0.41 3.58,3.58 0 0 1 2.93,1.57001 7.6,7.6 0 0 1 1.19,4.63001 7.8,7.8 0 0 1 -1.22,4.69001 3.56,3.56 0 0 1 -2.88,1.64 3.05,3.05 0 0 1 -1.66,-0.52 4.25,4.25 0 0 1 -1.39,-1.51001 v 1.75001 z m 2.59,-6.24001 a 7.15,7.15 0 0 0 0.3,2.36 2.59,2.59 0 0 0 0.83,1.24 1.78,1.78 0 0 0 1.14,0.43 1.75,1.75 0 0 0 1.46,-0.9 5.25,5.25 0 0 0 0.61,-2.85 5.46,5.46 0 0 0 -0.62,-3.00001 1.81,1.81 0 0 0 -1.55,-0.91 1.85,1.85 0 0 0 -1.54,0.88 4.71,4.71 0 0 0 -0.63,2.71001 z m 9.09,-7.35002 v -2.93 h 2.61 v 2.9 z m 0,13.59003 v -12.00003 h 2.61 v 12.00003 z m 7.23,-8.33002 -2.36,-0.48 a 4.71,4.71 0 0 1 1.41,-2.64 4.42,4.42 0 0 1 2.83,-0.80001 5.42,5.42 0 0 1 2.51,0.46 2.74,2.74 0 0 1 1.24,1.26001 7.82,7.82 0 0 1 0.37,2.89 v 3.70001 a 15.88,15.88 0 0 0 0.13,2.32001 7.94,7.94 0 0 0 0.45,1.62 h -2.56 l -0.34,-1.3 a 4.71,4.71 0 0 1 -1.43,1.18 3.35,3.35 0 0 1 -1.62,0.4 3.06,3.06 0 0 1 -2.34,-1 3.57,3.57 0 0 1 -0.92,-2.56001 4,4 0 0 1 0.38,-1.78 3,3 0 0 1 1.05,-1.21 6.84,6.84 0 0 1 2.17,-0.80001 12.79,12.79 0 0 0 2.52,-0.78 3.87,3.87 0 0 0 -0.14,-1.3 1.12,1.12 0 0 0 -0.52,-0.51 2.32,2.32 0 0 0 -1.06,-0.2 1.73,1.73 0 0 0 -1.1,0.32 2.27,2.27 0 0 0 -0.64,1.18 z m 3.46,2.56001 a 12,12 0 0 1 -1.55,0.48 3.71,3.71 0 0 0 -1.59,0.7 1.37,1.37 0 0 0 -0.37,1 1.71,1.71 0 0 0 0.41,1.16 1.34,1.34 0 0 0 1,0.47 2,2 0 0 0 1.1,-0.38 2,2 0 0 0 0.75,-0.9 5.77,5.77 0 0 0 0.21,-1.89 v -0.64 z m 14,5.77001 h -2.61 v -6.12001 a 12.48,12.48 0 0 0 -0.15,-2.44001 1.66,1.66 0 0 0 -0.54,-0.94 1.4,1.4 0 0 0 -0.91,-0.33 1.79,1.79 0 0 0 -1.18,0.43 2.17,2.17 0 0 0 -0.74,1.16 11.59,11.59 0 0 0 -0.22,2.81001 v 5.43001 h -2.61 v -12.00003 h 2.43 v 1.75001 a 4.7,4.7 0 0 1 1.44,-1.52001 3.28,3.28 0 0 1 1.79,-0.51 3,3 0 0 1 3,2.11001 9.28,9.28 0 0 1 0.3,2.7 v 7.44002 z m 4.61,-8.33002 -2.35,-0.48 a 4.6,4.6 0 0 1 1.41,-2.64 4.4,4.4 0 0 1 2.83,-0.80001 5.38,5.38 0 0 1 2.5,0.46 2.74,2.74 0 0 1 1.24,1.26001 7.61,7.61 0 0 1 0.37,2.89 v 3.70001 a 16.21,16.21 0 0 0 0.12,2.32001 7.4,7.4 0 0 0 0.46,1.62 h -2.57 l -0.33,-1.3 a 4.83,4.83 0 0 1 -1.43,1.18 3.41,3.41 0 0 1 -1.62,0.4 3.09,3.09 0 0 1 -2.35,-1 3.56,3.56 0 0 1 -0.91,-2.56001 4,4 0 0 1 0.37,-1.78 3,3 0 0 1 1.05,-1.21 7,7 0 0 1 2.17,-0.80001 12.34,12.34 0 0 0 2.52,-0.78 3.61,3.61 0 0 0 -0.14,-1.3 1.05,1.05 0 0 0 -0.51,-0.51 2.37,2.37 0 0 0 -1.07,-0.2 1.7,1.7 0 0 0 -1.09,0.32 2.27,2.27 0 0 0 -0.65,1.18 z m 3.46,2.56001 a 12,12 0 0 1 -1.55,0.48 3.72,3.72 0 0 0 -1.58,0.7 1.37,1.37 0 0 0 -0.37,1 1.66,1.66 0 0 0 0.41,1.16 1.33,1.33 0 0 0 1,0.47 1.9,1.9 0 0 0 1.09,-0.38 2.1,2.1 0 0 0 0.76,-0.9 6.14,6.14 0 0 0 0.2,-1.89 v -0.64 z m 19.37,5.77001 h -2.43 v -1.75001 a 4.31,4.31 0 0 1 -1.4,1.52001 3.1,3.1 0 0 1 -1.67,0.51 3.53,3.53 0 0 1 -2.86,-1.64 7.8,7.8 0 0 1 -1.22,-4.69001 7.61,7.61 0 0 1 1.19,-4.64001 3.57,3.57 0 0 1 2.94,-1.56001 3.08,3.08 0 0 1 1.53,0.41 4.56,4.56 0 0 1 1.29,1.22001 v -5.94001 h 2.61 v 16.54003 z m -6.93,-6.24001 a 8.08,8.08 0 0 0 0.28,2.43 2.52,2.52 0 0 0 0.78,1.2 1.9,1.9 0 0 0 1.16,0.4 1.79,1.79 0 0 0 1.48,-0.93 5,5 0 0 0 0.63,-2.8 5.5,5.5 0 0 0 -0.61,-3.00001 1.78,1.78 0 0 0 -3.09,0 4.72,4.72 0 0 0 -0.63,2.70001 z m 15.19,2.44 2.58,0.53 a 5.12,5.12 0 0 1 -1.61,2.68001 4.16,4.16 0 0 1 -2.67,0.87 4.06,4.06 0 0 1 -3.36,-1.46 7.19,7.19 0 0 1 -1.4,-4.74001 7.68,7.68 0 0 1 1.4,-4.81001 3.77,3.77 0 0 1 3.09,-1.52001 3.91,3.91 0 0 1 3.3,1.56001 8.47,8.47 0 0 1 1.38,5.25001 v 0.37 h -6.51 a 3.62,3.62 0 0 0 0.64,2.2 1.84,1.84 0 0 0 1.49,0.77 c 0.84,0 1.4,-0.57 1.68,-1.7 z m 0.14,-3.21001 a 3.56,3.56 0 0 0 -0.6,-2.11 1.66,1.66 0 0 0 -2.74,0 3.28,3.28 0 0 0 -0.56,2.08 z m 16.27,0.94001 v -2.79001 h 5.91 v 6.58001 a 7.39,7.39 0 0 1 -2.53,1.81001 7.79,7.79 0 0 1 -3.28,0.75 6.45,6.45 0 0 1 -3.54,-1 6.76,6.76 0 0 1 -2.43,-3.00001 11.17,11.17 0 0 1 -0.89,-4.62001 11,11 0 0 1 0.9,-4.66001 6.81,6.81 0 0 1 2.36,-2.9 6.11,6.11 0 0 1 3.46,-1.00001 5.76,5.76 0 0 1 3.88,1.24001 5.87,5.87 0 0 1 1.88,3.63 l -2.7,0.63001 a 3.55,3.55 0 0 0 -1.11,-2.00001 3,3 0 0 0 -1.95,-0.68 3.44,3.44 0 0 0 -2.83,1.36 6.56,6.56 0 0 0 -1.08,4.13001 7.42,7.42 0 0 0 1.17,4.53001 3.23,3.23 0 0 0 2.72,1.34 4.19,4.19 0 0 0 1.66,-0.38 5.3,5.3 0 0 0 1.54,-1 v -2.09 z m 10.36,-2.26001 -2.35,-0.48 a 4.6,4.6 0 0 1 1.41,-2.64 4.4,4.4 0 0 1 2.83,-0.80001 5.45,5.45 0 0 1 2.51,0.46 2.77,2.77 0 0 1 1.23,1.26001 7.61,7.61 0 0 1 0.37,2.89 v 3.70001 a 16.21,16.21 0 0 0 0.12,2.32001 7.4,7.4 0 0 0 0.46,1.62 h -2.56 l -0.34,-1.3 a 4.83,4.83 0 0 1 -1.43,1.18 3.41,3.41 0 0 1 -1.62,0.4 3.09,3.09 0 0 1 -2.35,-1 3.56,3.56 0 0 1 -0.91,-2.56001 4,4 0 0 1 0.37,-1.78 3,3 0 0 1 1.05,-1.21 7,7 0 0 1 2.18,-0.80001 12.41,12.41 0 0 0 2.51,-0.78 3.61,3.61 0 0 0 -0.14,-1.3 1.05,1.05 0 0 0 -0.51,-0.51 2.35,2.35 0 0 0 -1.06,-0.2 1.72,1.72 0 0 0 -1.1,0.32 2.27,2.27 0 0 0 -0.65,1.18 z m 3.46,2.56001 a 12,12 0 0 1 -1.55,0.48 3.72,3.72 0 0 0 -1.58,0.7 1.37,1.37 0 0 0 -0.37,1 1.71,1.71 0 0 0 0.41,1.16 1.34,1.34 0 0 0 1,0.47 1.9,1.9 0 0 0 1.09,-0.38 2.1,2.1 0 0 0 0.76,-0.9 5.84,5.84 0 0 0 0.2,-1.89 v -0.64 z m 4.2,2.36 2.61,-0.49 a 2,2 0 0 0 2.1,1.9 2.2,2.2 0 0 0 1.39,-0.37 1.12,1.12 0 0 0 0.46,-0.94 0.88,0.88 0 0 0 -0.21,-0.62 1.87,1.87 0 0 0 -0.84,-0.39 11.49,11.49 0 0 1 -4.08,-1.62 3.33,3.33 0 0 1 -1.08,-2.63001 3.57,3.57 0 0 1 1.06,-2.68 4.34,4.34 0 0 1 3.09,-1.00001 4.85,4.85 0 0 1 2.93,0.75001 4.1,4.1 0 0 1 1.41,2.43 l -2.44,0.56 a 1.71,1.71 0 0 0 -1.85,-1.46 2.57,2.57 0 0 0 -1.37,0.28 0.86,0.86 0 0 0 -0.41,0.73 0.79,0.79 0 0 0 0.37,0.66 10,10 0 0 0 2.3,0.81 6.21,6.21 0 0 1 3,1.47001 3.37,3.37 0 0 1 0.77,2.31 3.77,3.77 0 0 1 -1.19,2.86001 4.58,4.58 0 0 1 -3.28,1.13 4.94,4.94 0 0 1 -3.11,-0.94 4.57,4.57 0 0 1 -1.59,-2.75001 z m 16,-2 2.66,-0.33 c 0.3,2.11 1.28,3.16 3,3.16 a 2.78,2.78 0 0 0 1.95,-0.64 2.08,2.08 0 0 0 0.72,-1.61 1.79,1.79 0 0 0 -0.25,-0.95 1.89,1.89 0 0 0 -0.76,-0.65 21.63,21.63 0 0 0 -2.46,-0.85001 8,8 0 0 1 -2.56,-1.15 4.34,4.34 0 0 1 -1.29,-1.62 5,5 0 0 1 -0.48,-2.17001 4.82,4.82 0 0 1 0.61,-2.43 4.07,4.07 0 0 1 1.7,-1.64 6,6 0 0 1 2.68,-0.55001 4.7,4.7 0 0 1 5.16,5.00001 l -2.75,0.14 a 2.88,2.88 0 0 0 -0.78,-1.85 2.52,2.52 0 0 0 -1.71,-0.53 2.81,2.81 0 0 0 -1.76,0.46 1.37,1.37 0 0 0 -0.6,1.13 1.44,1.44 0 0 0 0.55,1.13001 8.29,8.29 0 0 0 2.5,1 10.16,10.16 0 0 1 3,1.26 4.4,4.4 0 0 1 1.41,1.7 6,6 0 0 1 0.48,2.53001 5.18,5.18 0 0 1 -1.32,3.61001 5.34,5.34 0 0 1 -4.15,1.47 c -3.32,0 -5.16,-1.88001 -5.54,-5.65001 z m 13.27,5.37001 v -3.16001 h 2.58 v 3.16001 z m 17.51,0 h -3 l -1.1,-3.72001 h -5.44 l -1.12,3.74001 h -2.91 l 5.27,-16.52003 h 2.91 l 5.41,16.52003 z m -5,-6.53001 -1.87,-6.13002 -1.84,6.13002 z m 6.42,6.53001 v -3.16001 h 2.58 v 3.16001 z m 10.57,0 v -16.50003 h 10 v 2.79 h -7.29 v 3.65001 h 6.81 v 2.79 h -6.81 v 4.50001 h 7.57 v 2.79001 z m 12.57,0 v -3.16001 h 2.59 v 3.16001 z m 4.62,-5.37001 2.65,-0.33 q 0.45,3.16 3,3.16 a 2.82,2.82 0 0 0 2,-0.64 2.1,2.1 0 0 0 0.71,-1.61 1.7,1.7 0 0 0 -0.25,-0.95 1.83,1.83 0 0 0 -0.76,-0.65 20.88,20.88 0 0 0 -2.46,-0.85001 8.15,8.15 0 0 1 -2.56,-1.15 4.34,4.34 0 0 1 -1.29,-1.62 5,5 0 0 1 -0.48,-2.17001 4.83,4.83 0 0 1 0.62,-2.43 4,4 0 0 1 1.7,-1.64 5.93,5.93 0 0 1 2.67,-0.55001 4.72,4.72 0 0 1 5.17,5.00001 l -2.75,0.14 a 2.93,2.93 0 0 0 -0.78,-1.85 2.52,2.52 0 0 0 -1.71,-0.53 2.81,2.81 0 0 0 -1.76,0.46 1.37,1.37 0 0 0 -0.6,1.13 1.41,1.41 0 0 0 0.55,1.13001 8.29,8.29 0 0 0 2.5,1 10.29,10.29 0 0 1 3,1.26 4.3,4.3 0 0 1 1.4,1.7 6,6 0 0 1 0.49,2.53001 5.19,5.19 0 0 1 -1.33,3.61001 5.3,5.3 0 0 1 -4.14,1.47 q -5,0 -5.54,-5.65001 z m 13.26,5.37001 v -3.16001 h 2.59 v 3.16001 z m 5.31,0 v -16.50003 h 4.4 a 13.21,13.21 0 0 1 3.21,0.24 3.6,3.6 0 0 1 2,1.63 5.92,5.92 0 0 1 0.79,3.23001 6.1,6.1 0 0 1 -0.68,3 4,4 0 0 1 -1.69,1.7 8.78,8.78 0 0 1 -3.5,0.49001 h -1.8 v 6.23001 z m 2.72,-13.73003 v 4.71001 h 1.52 a 6.36,6.36 0 0 0 2.08,-0.22 1.81,1.81 0 0 0 0.9,-0.77 2.51,2.51 0 0 0 0.35,-1.38 2.54,2.54 0 0 0 -0.36,-1.39001 1.82,1.82 0 0 0 -0.9,-0.76 8.51,8.51 0 0 0 -2.25,-0.19 z m 7.43,13.75003 v -3.16001 h 2.59 v 3.16001 z"
     id="path88"
     inkscape:connector-curvature="0"
     style="fill:#2d6fb1" />
  <path
     class="cls-9"
     d="m 133.20537,64.962301 27.74,0.230001 c 0,0 5,0.69 6.91,-1.260002 0,0 2.3,-1.390001 2.42,-3.340003 l -0.12,-3.460003 c 0,0 0.23,-2.530003 -7.25,-2.530003 l -16.23,0.23 c 0,0 -14.49,-1.15 -16,-9.439998 v -9.44 c 0,0 0.2,-7 12.29,-8.4 h 43.35 c 0,0 3.57,-0.7 3.8,3.44 l 0.2,29.250004 a 7.73,7.73 0 0 0 7.37,4.380004 l 17,0.11 c 0,0 6,-0.46 6.8,-4.370004 l 0.11,-31.550004 c 0,0 -0.23,-1.39 3.22,-1.28 h 35 c 0,0 8.29,0.81 9.9,8.07 l 0.35,9.09 c 0,0 1.25,8.939998 -17.75,9.629998 l 16.32,11.000011 c 2.25,1.510001 1.5,3.110003 0.12,5.750006 0,0 -1.85,2.770002 -5.07,0.35 0,0 -22.68,-13.820014 -25.56,-16.230016 0,0 -4.14,-1.730001 -3.33,-5.999999 0,0 0.69,-2.88 4.71,-2.88 l 16.24,0.12 c 0,0 5.41,-1.15 5.87,-4.49 l 0.23,-3.23 c 0,0 0.11,-3.22 -6.45,-3 h -25.26 l 0.12,25.000004 c 0,0 0.1,10.360011 -13.83,12.780013 h -21.4 c 0,0 -13,-2.190002 -13.13,-12.000012 l -0.46,-26.000005 -39.83,0.23 c 0,0 -2.76,0.69 -2.76,2.88 l 0.23,3.8 c 0,0 0.46,2.53 6.44,2.88 5.98,0.35 21.53,0.57 21.53,0.57 0,0 10.82,-0.34 11.86,6.679998 l -0.12,13.000011 c 0,0 -1.84,6.790007 -10.13,7.940008 h -35.68 c -0.47,0 -2.29,-0.1 -2.27,-3.220003 v -3.390004 a 2.42,2.42 0 0 1 2.51,-1.910002 z"
     id="path90"
     inkscape:connector-curvature="0"
     style="fill:none;stroke:#ffffff;stroke-width:2.76999998px;stroke-linecap:round;stroke-linejoin:round" />
  <path
     class="cls-10"
     d="m 133.20537,64.962301 27.74,0.230001 c 0,0 5,0.69 6.91,-1.260002 0,0 2.3,-1.390001 2.42,-3.340003 l -0.12,-3.460003 c 0,0 0.23,-2.530003 -7.25,-2.530003 l -16.23,0.23 c 0,0 -14.49,-1.15 -16,-9.439998 v -9.44 c 0,0 0.2,-7 12.29,-8.4 h 43.35 c 0,0 3.57,-0.7 3.8,3.44 l 0.2,29.250004 a 7.73,7.73 0 0 0 7.37,4.380004 l 17,0.11 c 0,0 6,-0.46 6.8,-4.370004 l 0.11,-31.550004 c 0,0 -0.23,-1.39 3.22,-1.28 h 35 c 0,0 8.29,0.81 9.9,8.07 l 0.35,9.09 c 0,0 1.25,8.939998 -17.75,9.629998 l 16.32,11.000011 c 2.25,1.510001 1.5,3.110003 0.12,5.750006 0,0 -1.85,2.770002 -5.07,0.35 0,0 -22.68,-13.820014 -25.56,-16.230016 0,0 -4.14,-1.730001 -3.33,-5.999999 0,0 0.69,-2.88 4.71,-2.88 l 16.24,0.12 c 0,0 5.41,-1.15 5.87,-4.49 l 0.23,-3.23 c 0,0 0.11,-3.22 -6.45,-3 h -25.26 l 0.12,25.000004 c 0,0 0.1,10.360011 -13.83,12.780013 h -21.4 c 0,0 -13,-2.190002 -13.13,-12.000012 l -0.46,-26.000005 -39.83,0.23 c 0,0 -2.76,0.69 -2.76,2.88 l 0.23,3.8 c 0,0 0.46,2.53 6.44,2.88 5.98,0.35 21.53,0.57 21.53,0.57 0,0 10.82,-0.34 11.86,6.679998 l -0.12,13.000011 c 0,0 -1.84,6.790007 -10.13,7.940008 h -35.68 c -0.47,0 -2.29,-0.1 -2.27,-3.220003 v -3.390004 a 2.42,2.42 0 0 1 2.51,-1.910002 z"
     id="path92"
     inkscape:connector-curvature="0"
     style="fill:#d68500" />
  <path
     class="cls-9"
     d="m 273.38537,36.202293 -0.3,25.120005 c 0,0 -0.59,12.150012 12,12.200012 l 24,0.11 c 0.21,0 16.44,-0.1 19,-9.75001 l 0.3,-12.810009 c 0,0 -3.67,-8.999998 -15.93,-8.889998 h -18.49 l 0.07,8.199998 20.61,0.11 c 0,0 5,1.09 5.41,3.65 l 0.16,7.110007 c 0,0.51 -2.91,3.620003 -9.11,3.620003 l -25.41,0.1 c 0,0 -4.53,-1.380001 -4.43,-4.830004 l 0.19,-20.380004 c 0,0 1.28,-5.32 10.05,-4.43 l 75,-0.2 c 0,0 5.32,0.39 6,6.89 l -28.17,0.2 c 0,0 -11.91,2.56 -12.41,9.999998 v 10.630008 c 0,0 1.39,10.480011 14.39,10.680011 h 76.51 c 0.83,0 9,-3.550004 9.37,-9.60001 a 81,81 0 0 0 0,-10.250009 c -0.09,-2.54 -2.76,-8.169998 -13.59,-8.269998 l -21,-0.19 c 0,0 -4.16,-0.79 -5,-3.06 a 21.75,21.75 0 0 1 0,-3.95 c 0.07,-0.8 1.62,-2.65 7.34,-2.65 h 28.75 a 3.65,3.65 0 0 0 3.74,-3.52 l -0.05,-2.81 c 0,-0.52 -1.38,-1.84 -5,-1.74 l -29.38,0.07 c 0,0 -10.5,-0.9 -13.26,7.47 v 10.24 a 12.34,12.34 0 0 0 11.58,8.569998 l 24.13,0.3 c 0,0 3.05,0.880001 3.35,3.640003 l -0.4,4.000004 c 0,0 0.89,1.770002 -5.41,2.660003 l -70.61,0.39 c 0,0 -6.31,-1.280001 -6.9,-4.230004 v -6.180006 c 0,0 0.89,-2.85 6.5,-3 l 33.27,-0.1 V 36.942293 c 0,0 -2.27,-8.2 -14.87,-9.38 h -76 c 0,0 -15.36,-0.29 -16.05,8.67 z"
     id="path94"
     inkscape:connector-curvature="0"
     style="fill:none;stroke:#ffffff;stroke-width:2.76999998px;stroke-linecap:round;stroke-linejoin:round" />
  <path
     class="cls-7"
     d="m 273.38537,36.202293 -0.3,25.120005 c 0,0 -0.59,12.150012 12,12.200012 l 24,0.11 c 0.21,0 16.44,-0.1 19,-9.75001 l 0.3,-12.810009 c 0,0 -3.67,-8.999998 -15.93,-8.889998 h -18.49 l 0.07,8.199998 20.61,0.11 c 0,0 5,1.09 5.41,3.65 l 0.16,7.110007 c 0,0.51 -2.91,3.620003 -9.11,3.620003 l -25.41,0.1 c 0,0 -4.53,-1.380001 -4.43,-4.830004 l 0.19,-20.380004 c 0,0 1.28,-5.32 10.05,-4.43 l 75,-0.2 c 0,0 5.32,0.39 6,6.89 l -28.17,0.2 c 0,0 -11.91,2.56 -12.41,9.999998 v 10.630008 c 0,0 1.39,10.480011 14.39,10.680011 h 76.51 c 0.83,0 9,-3.550004 9.37,-9.60001 a 81,81 0 0 0 0,-10.250009 c -0.09,-2.54 -2.76,-8.169998 -13.59,-8.269998 l -21,-0.19 c 0,0 -4.16,-0.79 -5,-3.06 a 21.75,21.75 0 0 1 0,-3.95 c 0.07,-0.8 1.62,-2.65 7.34,-2.65 h 28.75 a 3.65,3.65 0 0 0 3.74,-3.52 l -0.05,-2.81 c 0,-0.52 -1.38,-1.84 -5,-1.74 l -29.38,0.07 c 0,0 -10.5,-0.9 -13.26,7.47 v 10.24 a 12.34,12.34 0 0 0 11.58,8.569998 l 24.13,0.3 c 0,0 3.05,0.880001 3.35,3.640003 l -0.4,4.000004 c 0,0 0.89,1.770002 -5.41,2.660003 l -70.61,0.39 c 0,0 -6.31,-1.280001 -6.9,-4.230004 v -6.180006 c 0,0 0.89,-2.85 6.5,-3 l 33.27,-0.1 V 36.942293 c 0,0 -2.27,-8.2 -14.87,-9.38 h -76 c 0,0 -15.36,-0.29 -16.05,8.67 z"
     id="path96"
     inkscape:connector-curvature="0"
     style="fill:#2d6fb1" />
</svg>
