<svg id="Capa_1" data-name="Capa 1" xmlns="http://www.w3.org/2000/svg" viewBox="0 0 495.5 180.47"><defs><style>.cls-1,.cls-3,.cls-5,.cls-6,.cls-8,.cls-9{fill:none;stroke:#fff;stroke-linecap:round;stroke-linejoin:round;}.cls-1{stroke-width:2.74px;}.cls-10,.cls-2{fill:#d68500;}.cls-2,.cls-4{fill-rule:evenodd;}.cls-3{stroke-width:2.74px;}.cls-4,.cls-7{fill:#2d6fb1;}.cls-5{stroke-width:2.74px;}.cls-6{stroke-width:2.46px;}.cls-8{stroke-width:2.77px;}.cls-9{stroke-width:2.77px;}</style></defs><path class="cls-1" d="M104.63,53.81c1.3.2,2.57.45,3.83.75.46,1.9,2.43,3.94,5.21,5.13,3,1.25,5.94,1.2,7.59,0,1,.59,1.95,1.22,2.88,1.88-.1,2,1.24,4.48,3.61,6.41a9.87,9.87,0,0,0,5.57,2.35c.65.83,1.26,1.69,1.83,2.56-1.12,1.7-1,4.75.45,7.67a9.17,9.17,0,0,0,4.87,4.74c.14.61.27,1.22.38,1.83-1.59,1.16-2.7,3.76-2.73,6.8s1.08,5.7,2.66,6.86c-.1.56-.22,1.12-.35,1.68-1.77.18-3.8,1.85-5.05,4.37-1.47,2.94-1.38,6,.09,7.33a38.62,38.62,0,0,1-2.65,3.72c-1.52-.94-4.22-.2-6.39,1.84s-3.07,4.67-2.25,6.25a44.12,44.12,0,0,1-4.1,2.57c-.89-1.8-4-2.07-7-.61-2.49,1.22-4.08,3.27-4,5a48.15,48.15,0,0,1-5.45,1.05c-.18-2-3-3.4-6.26-3.15-2.83.21-5.11,1.58-5.61,3.23-1.47-.18-2.91-.41-4.33-.71.24-1.79-1.58-4-4.38-5.07-3-1.21-6.11-.71-6.89,1.1a45,45,0,0,1-5-2.94c1.1-1.52.26-4.35-2-6.53s-5.44-3-6.84-1.56c0,0,0,0,0,0a39.47,39.47,0,0,1-2.58-3.47h.06l.06,0h0c1.81-.85,2.14-4,.73-7s-4-4.73-5.84-3.88l0,0a38.24,38.24,0,0,1-.95-4.3c1.86-.26,3.33-2.82,3.35-6s-1.44-5.77-3.32-6A37.79,37.79,0,0,1,54.86,83a1.57,1.57,0,0,0,.28.1c1.93.56,4.24-1.58,5.15-4.76a7,7,0,0,0-.49-5.77,41.74,41.74,0,0,1,2.92-3.84c1.44,1.24,4.36.57,6.69-1.59s3.11-4.7,2.26-6.29c1.29-.85,2.64-1.64,4-2.37,1.08,1.42,3.85,1.73,6.61.64,2.61-1,4.37-3,4.41-4.67,1.47-.34,3-.61,4.5-.81C92.41,55.19,95,56.26,98,56.26s5.4-1,6.64-2.45ZM97.36,62C116.47,62,132,76.24,132,93.83s-15.5,31.84-34.61,31.84S62.75,111.42,62.75,93.83,78.25,62,97.36,62Z"/><path class="cls-2" d="M104.63,53.81c1.3.2,2.57.45,3.83.75.46,1.9,2.43,3.94,5.21,5.13,3,1.25,5.94,1.2,7.59,0,1,.59,1.95,1.22,2.88,1.88-.1,2,1.24,4.48,3.61,6.41a9.87,9.87,0,0,0,5.57,2.35c.65.83,1.26,1.69,1.83,2.56-1.12,1.7-1,4.75.45,7.67a9.17,9.17,0,0,0,4.87,4.74c.14.61.27,1.22.38,1.83-1.59,1.16-2.7,3.76-2.73,6.8s1.08,5.7,2.66,6.86c-.1.56-.22,1.12-.35,1.68-1.77.18-3.8,1.85-5.05,4.37-1.47,2.94-1.38,6,.09,7.33a38.62,38.62,0,0,1-2.65,3.72c-1.52-.94-4.22-.2-6.39,1.84s-3.07,4.67-2.25,6.25a44.12,44.12,0,0,1-4.1,2.57c-.89-1.8-4-2.07-7-.61-2.49,1.22-4.08,3.27-4,5a48.15,48.15,0,0,1-5.45,1.05c-.18-2-3-3.4-6.26-3.15-2.83.21-5.11,1.58-5.61,3.23-1.47-.18-2.91-.41-4.33-.71.24-1.79-1.58-4-4.38-5.07-3-1.21-6.11-.71-6.89,1.1a45,45,0,0,1-5-2.94c1.1-1.52.26-4.35-2-6.53s-5.44-3-6.84-1.56c0,0,0,0,0,0a39.47,39.47,0,0,1-2.58-3.47h.06l.06,0h0c1.81-.85,2.14-4,.73-7s-4-4.73-5.84-3.88l0,0a38.24,38.24,0,0,1-.95-4.3c1.86-.26,3.33-2.82,3.35-6s-1.44-5.77-3.32-6A37.79,37.79,0,0,1,54.86,83a1.57,1.57,0,0,0,.28.1c1.93.56,4.24-1.58,5.15-4.76a7,7,0,0,0-.49-5.77,41.74,41.74,0,0,1,2.92-3.84c1.44,1.24,4.36.57,6.69-1.59s3.11-4.7,2.26-6.29c1.29-.85,2.64-1.64,4-2.37,1.08,1.42,3.85,1.73,6.61.64,2.61-1,4.37-3,4.41-4.67,1.47-.34,3-.61,4.5-.81C92.41,55.19,95,56.26,98,56.26s5.4-1,6.64-2.45ZM97.36,62C116.47,62,132,76.24,132,93.83s-15.5,31.84-34.61,31.84S62.75,111.42,62.75,93.83,78.25,62,97.36,62Z"/><path class="cls-3" d="M118.56,46.21c4,1.15,6.61,4,5.91,6.42S120,56,116,54.89s-6.61-4-5.91-6.42,4.47-3.41,8.43-2.26Z"/><path class="cls-4" d="M118.56,46.21c4,1.15,6.61,4,5.91,6.42S120,56,116,54.89s-6.61-4-5.91-6.42,4.47-3.41,8.43-2.26Z"/><path class="cls-3" d="M136.89,57.6c3.21,2.58,4.56,6.25,3,8.2s-5.43,1.44-8.65-1.14-4.56-6.25-3-8.2,5.44-1.44,8.66,1.14Z"/><path class="cls-4" d="M136.89,57.6c3.21,2.58,4.56,6.25,3,8.2s-5.43,1.44-8.65-1.14-4.56-6.25-3-8.2,5.44-1.44,8.66,1.14Z"/><path class="cls-3" d="M148.18,75.67c.8,4-.54,7.72-3,8.2s-5.08-2.4-5.88-6.44.54-7.72,3-8.2,5.08,2.4,5.88,6.44Z"/><path class="cls-4" d="M148.18,75.67c.8,4-.54,7.72-3,8.2s-5.08-2.4-5.88-6.44.54-7.72,3-8.2,5.08,2.4,5.88,6.44Z"/><path class="cls-3" d="M152.56,94.24c-.31,4.11-2.57,7.29-5.06,7.11s-4.27-3.66-4-7.78,2.56-7.29,5.05-7.11,4.27,3.67,4,7.78Z"/><path class="cls-2" d="M152.56,94.24c-.31,4.11-2.57,7.29-5.06,7.11s-4.27-3.66-4-7.78,2.56-7.29,5.05-7.11,4.27,3.67,4,7.78Z"/><path class="cls-3" d="M148.65,112.34c-1.05,4-3.85,6.7-6.27,6.07S138.85,114,139.9,110s3.85-6.71,6.27-6.07,3.52,4.38,2.48,8.37Z"/><path class="cls-4" d="M148.65,112.34c-1.05,4-3.85,6.7-6.27,6.07S138.85,114,139.9,110s3.85-6.71,6.27-6.07,3.52,4.38,2.48,8.37Z"/><path class="cls-5" d="M136.59,129.68c-2.8,3-6.56,4.1-8.39,2.41s-1-5.53,1.75-8.56,6.56-4.1,8.39-2.4,1,5.52-1.75,8.55Z"/><path class="cls-4" d="M136.59,129.68c-2.8,3-6.56,4.1-8.39,2.41s-1-5.53,1.75-8.56,6.56-4.1,8.39-2.4,1,5.52-1.75,8.55Z"/><path class="cls-3" d="M119,140.82c-3.85,1.47-7.69.78-8.59-1.56s1.51-5.42,5.36-6.89,7.69-.78,8.59,1.55-1.51,5.42-5.36,6.9Z"/><path class="cls-4" d="M119,140.82c-3.85,1.47-7.69.78-8.59-1.56s1.51-5.42,5.36-6.89,7.69-.78,8.59,1.55-1.51,5.42-5.36,6.9Z"/><path class="cls-3" d="M98,145.19c-4.12.2-7.56-1.65-7.68-4.15s3.11-4.68,7.23-4.89,7.55,1.65,7.68,4.14-3.11,4.69-7.23,4.9Z"/><path class="cls-4" d="M98,145.19c-4.12.2-7.56-1.65-7.68-4.15s3.11-4.68,7.23-4.89,7.55,1.65,7.68,4.14-3.11,4.69-7.23,4.9Z"/><path class="cls-3" d="M77.76,141.61c-4-1.16-6.59-4.05-5.88-6.45s4.48-3.39,8.44-2.23,6.59,4,5.88,6.45-4.48,3.39-8.44,2.23Z"/><path class="cls-4" d="M77.76,141.61c-4-1.16-6.59-4.05-5.88-6.45s4.48-3.39,8.44-2.23,6.59,4,5.88,6.45-4.48,3.39-8.44,2.23Z"/><path class="cls-3" d="M46.9,114.12c-1.76-3.73-1.36-7.61.89-8.68s5.52,1.08,7.29,4.81,1.36,7.61-.9,8.68-5.52-1.08-7.28-4.81Z"/><path class="cls-4" d="M46.9,114.12c-1.76-3.73-1.36-7.61.89-8.68s5.52,1.08,7.29,4.81,1.36,7.61-.9,8.68-5.52-1.08-7.28-4.81Z"/><path class="cls-3" d="M42.46,93.35c.5-4.09,2.91-7.16,5.39-6.86s4.09,3.86,3.59,8-2.91,7.17-5.39,6.87-4.09-3.86-3.59-8Z"/><path class="cls-4" d="M42.46,93.35c.5-4.09,2.91-7.16,5.39-6.86s4.09,3.86,3.59,8-2.91,7.17-5.39,6.87-4.09-3.86-3.59-8Z"/><path class="cls-3" d="M46.94,74c1.42-3.88,4.47-6.32,6.81-5.46s3.1,4.7,1.68,8.57S51,83.41,48.62,82.55s-3.1-4.69-1.68-8.56Z"/><path class="cls-4" d="M46.94,74c1.42-3.88,4.47-6.32,6.81-5.46s3.1,4.7,1.68,8.57S51,83.41,48.62,82.55s-3.1-4.69-1.68-8.56Z"/><path class="cls-3" d="M59.34,57.11c3-2.82,6.84-3.61,8.54-1.79s.64,5.59-2.37,8.4S58.67,67.33,57,65.5s-.64-5.58,2.38-8.39Z"/><path class="cls-4" d="M59.34,57.11c3-2.82,6.84-3.61,8.54-1.79s.64,5.59-2.37,8.4S58.67,67.33,57,65.5s-.64-5.58,2.38-8.39Z"/><path class="cls-3" d="M97.35,41.84c4.12,0,7.47,2,7.48,4.5s-3.33,4.53-7.45,4.55-7.47-2-7.48-4.5,3.32-4.53,7.45-4.55Z"/><path class="cls-4" d="M97.35,41.84c4.12,0,7.47,2,7.48,4.5s-3.33,4.53-7.45,4.55-7.47-2-7.48-4.5,3.32-4.53,7.45-4.55Z"/><path class="cls-3" d="M77.31,46.21c-4,1.15-6.6,4-5.91,6.42s4.48,3.41,8.43,2.26,6.61-4,5.91-6.42-4.47-3.41-8.43-2.26Z"/><path class="cls-4" d="M77.31,46.21c-4,1.15-6.6,4-5.91,6.42s4.48,3.41,8.43,2.26,6.61-4,5.91-6.42-4.47-3.41-8.43-2.26Z"/><path class="cls-5" d="M59.52,130.53c-2.91-2.93-3.83-6.72-2.06-8.49s5.56-.82,8.47,2.11,3.83,6.72,2.06,8.48-5.56.82-8.47-2.1Z"/><path class="cls-4" d="M59.52,130.53c-2.91-2.93-3.83-6.72-2.06-8.49s5.56-.82,8.47,2.11,3.83,6.72,2.06,8.48-5.56.82-8.47-2.1Z"/><path class="cls-6" d="M309.75,140a3.61,3.61,0,0,1,1.21.71,3.79,3.79,0,0,1,.88,1.05,3.43,3.43,0,0,1,.42,1.21,2.24,2.24,0,0,1-.17,1.18.47.47,0,0,1-.28.23,1.43,1.43,0,0,1-.43.09,1.94,1.94,0,0,1-.48,0,1.6,1.6,0,0,1-.42-.13.47.47,0,0,1-.24-.22c0-.08,0-.17.07-.27a2,2,0,0,0,.45-.81,2.63,2.63,0,0,0,.09-.87,1.91,1.91,0,0,0-.23-.79,1.48,1.48,0,0,0-.48-.56,1.28,1.28,0,0,0-.71-.2,1.62,1.62,0,0,0-.89.31,3.37,3.37,0,0,0-.86.78,4.16,4.16,0,0,0-.57,1,3.93,3.93,0,0,0-.24,1.17,3.14,3.14,0,0,0,.14,1.18s0,0,0,0h0a4.76,4.76,0,0,1,1.05,0,2.42,2.42,0,0,1,1,.28,1.45,1.45,0,0,1,.36.28.69.69,0,0,1,.18.36.8.8,0,0,1,0,.26.67.67,0,0,1-.18.31,1.37,1.37,0,0,1-.26.2,1.5,1.5,0,0,1-.36.17l-.26.1a3.67,3.67,0,0,1-2.58-.19h-.05a4.6,4.6,0,0,0-1.09.93,6.14,6.14,0,0,0-.73,1.12,5,5,0,0,0-.44,1.2,3.2,3.2,0,0,0-.09.62,3,3,0,0,0,0,.6,3,3,0,0,0,.4,1.18,3.35,3.35,0,0,0,1.09,1.17,2.53,2.53,0,0,0,1.3.4,3,3,0,0,0,1.35-.31,4.15,4.15,0,0,0,1.25-1,3.31,3.31,0,0,0,.54-.8,2.75,2.75,0,0,0,.26-.88,1.92,1.92,0,0,0-.09-.83,1.42,1.42,0,0,0-.49-.68,1.46,1.46,0,0,0-.71-.3,1.64,1.64,0,0,0-1.47.47,1.44,1.44,0,0,0-.39.79c0,.14-.12.23-.3.29a1.78,1.78,0,0,1-.57.06,1.64,1.64,0,0,1-.56-.12c-.16-.08-.24-.18-.23-.32a1.27,1.27,0,0,1,.29-.77,2.6,2.6,0,0,1,.71-.6,3.72,3.72,0,0,1,1-.39,3.81,3.81,0,0,1,1.05-.15,3.19,3.19,0,0,1,1,.16,1.73,1.73,0,0,1,.76.49,2.38,2.38,0,0,1,.51.9,2.69,2.69,0,0,1,.11,1,3.33,3.33,0,0,1-.27,1,3.89,3.89,0,0,1-.65,1,4.84,4.84,0,0,1-1.14,1,5,5,0,0,1-1.35.58c-.24,0-.47.09-.71.12a4.28,4.28,0,0,1-.72,0,4.4,4.4,0,0,1-.73,0,5.1,5.1,0,0,1-.7-.14,4.09,4.09,0,0,1-2.51-1.89,3.8,3.8,0,0,1-.4-2.85,6,6,0,0,1,1.3-2.55,4.8,4.8,0,0,1,1-.89,7.86,7.86,0,0,1,1.31-.75c-.05-.08-.09-.16-.13-.24l-.09-.28a3.66,3.66,0,0,1-.17-1.36,4.42,4.42,0,0,1,.29-1.38,4.06,4.06,0,0,1,.68-1.2,3.55,3.55,0,0,1,1-.88,4.38,4.38,0,0,1,.65-.32,3.93,3.93,0,0,1,.82-.23,4.11,4.11,0,0,1,.94-.05,3.48,3.48,0,0,1,1,.2Zm8.42,5.34a4.27,4.27,0,0,1-.22,1.06c-.13.37-.28.73-.44,1.08s-.32.69-.49,1a8.77,8.77,0,0,0-.37.84,1.21,1.21,0,0,0-.11.57c0,.14.12.21.31.21a.64.64,0,0,0,.37-.21,5.13,5.13,0,0,0,.52-.57c.19-.23.38-.49.58-.78s.39-.58.57-.86.34-.56.47-.82a5.46,5.46,0,0,0,.3-.64.22.22,0,0,1,.15-.15.31.31,0,0,1,.19,0,.27.27,0,0,1,.14.12.19.19,0,0,1,0,.19c-.08.17-.19.4-.34.69s-.32.6-.52.93-.42.66-.66,1a10.19,10.19,0,0,1-.73.92,4.71,4.71,0,0,1-.76.68,1.36,1.36,0,0,1-.74.26.71.71,0,0,1-.5-.14,1.11,1.11,0,0,1-.34-.42,1.91,1.91,0,0,1-.18-.6,2.15,2.15,0,0,1,0-.67,5.56,5.56,0,0,1,.28-1.19c.14-.4.29-.77.45-1.13s.32-.69.48-1a6,6,0,0,0,.35-.78,1,1,0,0,0,.08-.51c0-.12-.14-.18-.34-.17a1,1,0,0,0-.46.26,6,6,0,0,0-.64.62c-.23.25-.47.53-.7.83s-.45.59-.64.86-.38.77-.58,1.15-.38.73-.54,1.07a6.64,6.64,0,0,0-.35.88.83.83,0,0,0,0,.59c0,.08,0,.16-.1.25a.71.71,0,0,1-.4.13.92.92,0,0,1-.5-.16,1,1,0,0,1-.39-.6,1.72,1.72,0,0,1,0-.93,9.07,9.07,0,0,1,.39-1.23c.16-.44.35-.89.56-1.35l.56-1.26a7.5,7.5,0,0,0,.37-1c.08-.27.08-.45,0-.53s0-.13.09-.21a1.23,1.23,0,0,1,.51-.13,1.37,1.37,0,0,1,.61.13.93.93,0,0,1,.44.59,1.45,1.45,0,0,1,.05.43,3,3,0,0,1-.08.48c.19-.22.38-.43.57-.62A5.43,5.43,0,0,1,316,144a3.4,3.4,0,0,1,.58-.36,1.42,1.42,0,0,1,.54-.13.89.89,0,0,1,.86.5,2.16,2.16,0,0,1,.18,1.33Zm7.33.75a.24.24,0,0,1,.09.33,11.21,11.21,0,0,1-.6,1.11,10.47,10.47,0,0,1-.78,1.14,10.08,10.08,0,0,1-.92,1,5.34,5.34,0,0,1-1,.76,3.2,3.2,0,0,1-1.07.38,1.91,1.91,0,0,1-1.08-.13,1.66,1.66,0,0,1-.85-.69,2.38,2.38,0,0,1-.3-1,3.65,3.65,0,0,1,.09-1.13,7.12,7.12,0,0,1,.32-1.07,7.78,7.78,0,0,1,.79-1.53,5.21,5.21,0,0,1,.92-1,3.75,3.75,0,0,1,1-.59,3.14,3.14,0,0,1,1.05-.19,1.06,1.06,0,0,1,.8.27,1,1,0,0,1,.26.69,2.29,2.29,0,0,1-.24.95,4,4,0,0,1-.67,1,5.17,5.17,0,0,1-1.05.9,5,5,0,0,1-1.39.61,5.37,5.37,0,0,0-.15.76,3.22,3.22,0,0,0,0,.69,1.23,1.23,0,0,0,.14.51.45.45,0,0,0,.33.25,1.25,1.25,0,0,0,.7-.09,3.39,3.39,0,0,0,.77-.47,6.34,6.34,0,0,0,.77-.72c.25-.28.48-.57.7-.87a10.74,10.74,0,0,0,.59-.91,5.75,5.75,0,0,0,.41-.83.24.24,0,0,1,.15-.16.27.27,0,0,1,.23,0Zm-4.32.93a3.11,3.11,0,0,0-.12.3,4,4,0,0,0,1.45-.85,4.11,4.11,0,0,0,.85-1.06,2,2,0,0,0,.29-.91c0-.26-.08-.39-.26-.4s-.6.25-1,.77a10.53,10.53,0,0,0-1.21,2.15Zm4.37-.48a.24.24,0,0,1-.14.12.28.28,0,0,1-.18,0,.25.25,0,0,1-.13-.12.18.18,0,0,1,0-.19c0-.09.08-.23.16-.41s.16-.37.24-.58l.24-.59a4.45,4.45,0,0,0,.16-.48,1.5,1.5,0,0,1-.59-.51,1.29,1.29,0,0,1-.24-.71,1.25,1.25,0,0,1,.24-.78A.8.8,0,0,1,326,142a.63.63,0,0,1,.5.25.86.86,0,0,1,.23.58c0,.13,0,.3,0,.53a2.58,2.58,0,0,1-.08.56.4.4,0,0,0,.2.07l.27,0a1.64,1.64,0,0,0,.51-.07,3.17,3.17,0,0,0,.32-.16l.26-.15a.74.74,0,0,1,.36-.08,1.29,1.29,0,0,1,.59.15.9.9,0,0,1,.43.57,1.83,1.83,0,0,1-.05,1.05,7.83,7.83,0,0,1-.49,1.27c-.21.45-.44.88-.68,1.32s-.44.82-.61,1.15a3,3,0,0,0-.28.82c0,.2.08.29.31.27a.79.79,0,0,0,.37-.24,5,5,0,0,0,.51-.56c.19-.24.38-.49.58-.78s.38-.57.56-.86.33-.55.47-.81a4.77,4.77,0,0,0,.3-.63.23.23,0,0,1,.14-.15.34.34,0,0,1,.2,0,.27.27,0,0,1,.14.12.19.19,0,0,1,0,.19c-.08.17-.19.4-.34.69s-.32.6-.52.93-.43.66-.66,1a10.19,10.19,0,0,1-.73.92,5.17,5.17,0,0,1-.76.68,1.36,1.36,0,0,1-.74.26.84.84,0,0,1-.51-.12,1,1,0,0,1-.35-.37,1.64,1.64,0,0,1-.17-.59,3.13,3.13,0,0,1,0-.75,5.45,5.45,0,0,1,.28-1.22c.14-.44.31-.86.48-1.28s.35-.81.52-1.17a8.41,8.41,0,0,0,.37-.93,2.48,2.48,0,0,1-.7.14,3,3,0,0,1-.78-.08c0,.06-.08.19-.15.37s-.16.38-.24.59l-.27.62c-.09.2-.16.36-.22.47Zm8.74-1.86a.4.4,0,0,1,.06-.22.73.73,0,0,1,.17-.18.25.25,0,0,0-.23-.18.66.66,0,0,0-.46.19,3,3,0,0,0-.54.57,8.42,8.42,0,0,0-.6.93c-.2.37-.41.78-.62,1.23a6.35,6.35,0,0,0-.32.93,4.65,4.65,0,0,0-.14.94,2.39,2.39,0,0,0,.09.79.62.62,0,0,0,.37.44c.22.09.45,0,.7-.24a5.08,5.08,0,0,0,.73-1,15,15,0,0,0,.72-1.33c.23-.48.45-.9.64-1.26a.08.08,0,0,1,0-.06c.26-.63.47-1.17.61-1.61s.17-.72.1-.83,0-.13.13-.2a1.13,1.13,0,0,1,.51-.14,1.16,1.16,0,0,1,.62.15,1,1,0,0,1,.43.62,1.59,1.59,0,0,1-.07.8c-.1.37-.24.79-.41,1.25s-.38,1-.61,1.46-.44,1-.65,1.43-.39.84-.55,1.17-.25.57-.29.69a6,6,0,0,0,1.11-1,17,17,0,0,0,1.07-1.34c.34-.47.63-.93.89-1.37a7.33,7.33,0,0,0,.53-1.06.24.24,0,0,1,.15-.17.25.25,0,0,1,.19,0,.24.24,0,0,1,.14.12.18.18,0,0,1,0,.19,15.75,15.75,0,0,1-.85,1.59,17.55,17.55,0,0,1-1.11,1.6,13.07,13.07,0,0,1-1.27,1.38,6.29,6.29,0,0,1-1.3.94l-.24.56-.3.7c-.11.24-.2.46-.28.67l-.19.46a1.75,1.75,0,0,1-.46.7,2.22,2.22,0,0,1-.72.44,2.87,2.87,0,0,1-.82.18,2.55,2.55,0,0,1-.8-.09,1.52,1.52,0,0,1-.64-.37,1.12,1.12,0,0,1-.35-.66.72.72,0,0,1,0-.31.94.94,0,0,1,.25-.4,2.81,2.81,0,0,1,.57-.42c.22-.13.46-.25.7-.37l.71-.36a3.06,3.06,0,0,0,.59-.41c.1-.28.22-.58.35-.91s.28-.69.44-1.05a2.22,2.22,0,0,1-.94.55,1.82,1.82,0,0,1-1.15-.11,1.63,1.63,0,0,1-.84-.69,2.34,2.34,0,0,1-.31-1,3.61,3.61,0,0,1,.09-1.12,7.1,7.1,0,0,1,.33-1.07,7.37,7.37,0,0,1,.79-1.54,4.81,4.81,0,0,1,.92-1.05,3.25,3.25,0,0,1,1-.59,3.19,3.19,0,0,1,1.05-.16,1.92,1.92,0,0,1,.38.07,1.12,1.12,0,0,1,.37.17,1,1,0,0,1,.28.32.91.91,0,0,1,.12.49.58.58,0,0,1-.13.43.4.4,0,0,1-.33.15.47.47,0,0,1-.31-.12.37.37,0,0,1-.14-.31Zm-2.17,8.2a2.17,2.17,0,0,1-.51.31l-.56.27a5.54,5.54,0,0,0-.53.3,1.32,1.32,0,0,0-.43.38.53.53,0,0,0-.08.32.62.62,0,0,0,.14.32.69.69,0,0,0,.28.22.58.58,0,0,0,.37,0,1.05,1.05,0,0,0,.43-.29,2,2,0,0,0,.41-.7c.06-.14.13-.3.22-.49s.17-.4.26-.65Zm10.05-6.49a.19.19,0,0,0,0-.19.31.31,0,0,0-.14-.12.34.34,0,0,0-.2,0,.23.23,0,0,0-.14.15,4.77,4.77,0,0,1-.3.63c-.14.26-.29.53-.47.81s-.37.57-.56.86-.39.54-.58.78a4.16,4.16,0,0,1-.51.56.75.75,0,0,1-.37.24c-.23,0-.33-.07-.31-.27a3,3,0,0,1,.28-.82c.17-.33.37-.72.61-1.15s.47-.87.68-1.32a8.88,8.88,0,0,0,.49-1.27,1.83,1.83,0,0,0,0-1.05.91.91,0,0,0-.45-.59,1.41,1.41,0,0,0-.62-.13,1.18,1.18,0,0,0-.49.13c-.13.08-.16.15-.1.21a.38.38,0,0,1,0,.38,3.89,3.89,0,0,1-.24.7c-.11.27-.24.58-.39.92s-.31.69-.45,1.06-.28.72-.4,1.09a6.15,6.15,0,0,0-.22,1,3.13,3.13,0,0,0,0,.75,1.64,1.64,0,0,0,.17.59,1,1,0,0,0,.35.37.84.84,0,0,0,.51.12,1.36,1.36,0,0,0,.74-.26,5.17,5.17,0,0,0,.76-.68,10.19,10.19,0,0,0,.73-.92q.35-.5.66-1c.2-.33.37-.64.52-.93s.26-.52.34-.69Zm-1.83-6.33c0-.07,0-.11.17-.12a1.27,1.27,0,0,1,.45.06,1.53,1.53,0,0,1,.46.23.5.5,0,0,1,.22.42,2,2,0,0,1-.18.86,3.27,3.27,0,0,1-.48.79,2.2,2.2,0,0,1-.6.52.46.46,0,0,1-.51,0c-.09-.06-.11-.21-.07-.47a6.82,6.82,0,0,1,.2-.85c.09-.31.17-.6.26-.88a1.36,1.36,0,0,0,.08-.6Zm5.09,4.62a.34.34,0,0,1,.07-.22.58.58,0,0,1,.17-.18.25.25,0,0,0-.24-.18.66.66,0,0,0-.46.19,3.81,3.81,0,0,0-.54.57,7.21,7.21,0,0,0-.59.93c-.21.37-.42.78-.62,1.23a5.36,5.36,0,0,0-.32.93,4.65,4.65,0,0,0-.14.94,2.39,2.39,0,0,0,.09.79.6.6,0,0,0,.37.44.45.45,0,0,0,.43,0,1.89,1.89,0,0,0,.46-.41,7.2,7.2,0,0,0,.47-.68c.16-.27.32-.55.47-.84s.3-.58.45-.87.28-.56.4-.8.28-.63.41-.92.24-.56.33-.79a3.16,3.16,0,0,0,.18-.59.36.36,0,0,0-.05-.33c-.06-.06,0-.13.1-.21a1.18,1.18,0,0,1,.49-.13,1.41,1.41,0,0,1,.62.13.91.91,0,0,1,.45.59,1.83,1.83,0,0,1-.05,1.05,8.88,8.88,0,0,1-.49,1.27c-.21.45-.44.88-.68,1.32s-.44.82-.61,1.15a3,3,0,0,0-.28.82c0,.2.08.29.31.27a.79.79,0,0,0,.37-.24,5,5,0,0,0,.51-.56c.19-.24.38-.49.59-.78s.38-.57.56-.86.32-.55.46-.81a4.77,4.77,0,0,0,.3-.63.21.21,0,0,1,.14-.15.34.34,0,0,1,.2,0,.31.31,0,0,1,.14.12.19.19,0,0,1,0,.19c-.08.17-.19.4-.34.69s-.32.6-.53.93-.42.66-.65,1a10.19,10.19,0,0,1-.73.92,5.17,5.17,0,0,1-.76.68,1.36,1.36,0,0,1-.74.26.84.84,0,0,1-.84-.46,2,2,0,0,1-.21-1.24,6.91,6.91,0,0,1-.59.84,2.87,2.87,0,0,1-.67.6,2,2,0,0,1-.77.26,1.74,1.74,0,0,1-.89-.16,1.66,1.66,0,0,1-.85-.69,2.48,2.48,0,0,1-.3-1,3.61,3.61,0,0,1,.09-1.12,6.12,6.12,0,0,1,.32-1.07,7.88,7.88,0,0,1,.79-1.54,5.08,5.08,0,0,1,.92-1.05,3.29,3.29,0,0,1,1-.59,3.09,3.09,0,0,1,1-.16,1.8,1.8,0,0,1,.38.07,1,1,0,0,1,.37.17,1,1,0,0,1,.29.32.91.91,0,0,1,.12.49.53.53,0,0,1-.15.44.4.4,0,0,1-.31.14.47.47,0,0,1-.32-.12.4.4,0,0,1-.14-.31Z"/><path class="cls-7" d="M309.75,140a3.61,3.61,0,0,1,1.21.71,3.79,3.79,0,0,1,.88,1.05,3.43,3.43,0,0,1,.42,1.21,2.24,2.24,0,0,1-.17,1.18.47.47,0,0,1-.28.23,1.43,1.43,0,0,1-.43.09,1.94,1.94,0,0,1-.48,0,1.6,1.6,0,0,1-.42-.13.47.47,0,0,1-.24-.22c0-.08,0-.17.07-.27a2,2,0,0,0,.45-.81,2.63,2.63,0,0,0,.09-.87,1.91,1.91,0,0,0-.23-.79,1.48,1.48,0,0,0-.48-.56,1.28,1.28,0,0,0-.71-.2,1.62,1.62,0,0,0-.89.31,3.37,3.37,0,0,0-.86.78,4.16,4.16,0,0,0-.57,1,3.93,3.93,0,0,0-.24,1.17,3.14,3.14,0,0,0,.14,1.18s0,0,0,0h0a4.76,4.76,0,0,1,1.05,0,2.42,2.42,0,0,1,1,.28,1.45,1.45,0,0,1,.36.28.69.69,0,0,1,.18.36.8.8,0,0,1,0,.26.67.67,0,0,1-.18.31,1.37,1.37,0,0,1-.26.2,1.5,1.5,0,0,1-.36.17l-.26.1a3.67,3.67,0,0,1-2.58-.19h-.05a4.6,4.6,0,0,0-1.09.93,6.14,6.14,0,0,0-.73,1.12,5,5,0,0,0-.44,1.2,3.2,3.2,0,0,0-.09.62,3,3,0,0,0,0,.6,3,3,0,0,0,.4,1.18,3.35,3.35,0,0,0,1.09,1.17,2.53,2.53,0,0,0,1.3.4,3,3,0,0,0,1.35-.31,4.15,4.15,0,0,0,1.25-1,3.31,3.31,0,0,0,.54-.8,2.75,2.75,0,0,0,.26-.88,1.92,1.92,0,0,0-.09-.83,1.42,1.42,0,0,0-.49-.68,1.46,1.46,0,0,0-.71-.3,1.64,1.64,0,0,0-1.47.47,1.44,1.44,0,0,0-.39.79c0,.14-.12.23-.3.29a1.78,1.78,0,0,1-.57.06,1.64,1.64,0,0,1-.56-.12c-.16-.08-.24-.18-.23-.32a1.27,1.27,0,0,1,.29-.77,2.6,2.6,0,0,1,.71-.6,3.72,3.72,0,0,1,1-.39,3.81,3.81,0,0,1,1.05-.15,3.19,3.19,0,0,1,1,.16,1.73,1.73,0,0,1,.76.49,2.38,2.38,0,0,1,.51.9,2.69,2.69,0,0,1,.11,1,3.33,3.33,0,0,1-.27,1,3.89,3.89,0,0,1-.65,1,4.84,4.84,0,0,1-1.14,1,5,5,0,0,1-1.35.58c-.24,0-.47.09-.71.12a4.28,4.28,0,0,1-.72,0,4.4,4.4,0,0,1-.73,0,5.1,5.1,0,0,1-.7-.14,4.09,4.09,0,0,1-2.51-1.89,3.8,3.8,0,0,1-.4-2.85,6,6,0,0,1,1.3-2.55,4.8,4.8,0,0,1,1-.89,7.86,7.86,0,0,1,1.31-.75c-.05-.08-.09-.16-.13-.24l-.09-.28a3.66,3.66,0,0,1-.17-1.36,4.42,4.42,0,0,1,.29-1.38,4.06,4.06,0,0,1,.68-1.2,3.55,3.55,0,0,1,1-.88,4.38,4.38,0,0,1,.65-.32,3.93,3.93,0,0,1,.82-.23,4.11,4.11,0,0,1,.94-.05,3.48,3.48,0,0,1,1,.2Zm8.42,5.34a4.27,4.27,0,0,1-.22,1.06c-.13.37-.28.73-.44,1.08s-.32.69-.49,1a8.77,8.77,0,0,0-.37.84,1.21,1.21,0,0,0-.11.57c0,.14.12.21.31.21a.64.64,0,0,0,.37-.21,5.13,5.13,0,0,0,.52-.57c.19-.23.38-.49.58-.78s.39-.58.57-.86.34-.56.47-.82a5.46,5.46,0,0,0,.3-.64.22.22,0,0,1,.15-.15.31.31,0,0,1,.19,0,.27.27,0,0,1,.14.12.19.19,0,0,1,0,.19c-.08.17-.19.4-.34.69s-.32.6-.52.93-.42.66-.66,1a10.19,10.19,0,0,1-.73.92,4.71,4.71,0,0,1-.76.68,1.36,1.36,0,0,1-.74.26.71.71,0,0,1-.5-.14,1.11,1.11,0,0,1-.34-.42,1.91,1.91,0,0,1-.18-.6,2.15,2.15,0,0,1,0-.67,5.56,5.56,0,0,1,.28-1.19c.14-.4.29-.77.45-1.13s.32-.69.48-1a6,6,0,0,0,.35-.78,1,1,0,0,0,.08-.51c0-.12-.14-.18-.34-.17a1,1,0,0,0-.46.26,6,6,0,0,0-.64.62c-.23.25-.47.53-.7.83s-.45.59-.64.86-.38.77-.58,1.15-.38.73-.54,1.07a6.64,6.64,0,0,0-.35.88.83.83,0,0,0,0,.59c0,.08,0,.16-.1.25a.71.71,0,0,1-.4.13.92.92,0,0,1-.5-.16,1,1,0,0,1-.39-.6,1.72,1.72,0,0,1,0-.93,9.07,9.07,0,0,1,.39-1.23c.16-.44.35-.89.56-1.35l.56-1.26a7.5,7.5,0,0,0,.37-1c.08-.27.08-.45,0-.53s0-.13.09-.21a1.23,1.23,0,0,1,.51-.13,1.37,1.37,0,0,1,.61.13.93.93,0,0,1,.44.59,1.45,1.45,0,0,1,.05.43,3,3,0,0,1-.08.48c.19-.22.38-.43.57-.62A5.43,5.43,0,0,1,316,144a3.4,3.4,0,0,1,.58-.36,1.42,1.42,0,0,1,.54-.13.89.89,0,0,1,.86.5,2.16,2.16,0,0,1,.18,1.33Zm7.33.75a.24.24,0,0,1,.09.33,11.21,11.21,0,0,1-.6,1.11,10.47,10.47,0,0,1-.78,1.14,10.08,10.08,0,0,1-.92,1,5.34,5.34,0,0,1-1,.76,3.2,3.2,0,0,1-1.07.38,1.91,1.91,0,0,1-1.08-.13,1.66,1.66,0,0,1-.85-.69,2.38,2.38,0,0,1-.3-1,3.65,3.65,0,0,1,.09-1.13,7.12,7.12,0,0,1,.32-1.07,7.78,7.78,0,0,1,.79-1.53,5.21,5.21,0,0,1,.92-1,3.75,3.75,0,0,1,1-.59,3.14,3.14,0,0,1,1.05-.19,1.06,1.06,0,0,1,.8.27,1,1,0,0,1,.26.69,2.29,2.29,0,0,1-.24.95,4,4,0,0,1-.67,1,5.17,5.17,0,0,1-1.05.9,5,5,0,0,1-1.39.61,5.37,5.37,0,0,0-.15.76,3.22,3.22,0,0,0,0,.69,1.23,1.23,0,0,0,.14.51.45.45,0,0,0,.33.25,1.25,1.25,0,0,0,.7-.09,3.39,3.39,0,0,0,.77-.47,6.34,6.34,0,0,0,.77-.72c.25-.28.48-.57.7-.87a10.74,10.74,0,0,0,.59-.91,5.75,5.75,0,0,0,.41-.83.24.24,0,0,1,.15-.16.27.27,0,0,1,.23,0Zm-4.32.93a3.11,3.11,0,0,0-.12.3,4,4,0,0,0,1.45-.85,4.11,4.11,0,0,0,.85-1.06,2,2,0,0,0,.29-.91c0-.26-.08-.39-.26-.4s-.6.25-1,.77a10.53,10.53,0,0,0-1.21,2.15Zm4.37-.48a.24.24,0,0,1-.14.12.28.28,0,0,1-.18,0,.25.25,0,0,1-.13-.12.18.18,0,0,1,0-.19c0-.09.08-.23.16-.41s.16-.37.24-.58l.24-.59a4.45,4.45,0,0,0,.16-.48,1.5,1.5,0,0,1-.59-.51,1.29,1.29,0,0,1-.24-.71,1.25,1.25,0,0,1,.24-.78A.8.8,0,0,1,326,142a.63.63,0,0,1,.5.25.86.86,0,0,1,.23.58c0,.13,0,.3,0,.53a2.58,2.58,0,0,1-.08.56.4.4,0,0,0,.2.07l.27,0a1.64,1.64,0,0,0,.51-.07,3.17,3.17,0,0,0,.32-.16l.26-.15a.74.74,0,0,1,.36-.08,1.29,1.29,0,0,1,.59.15.9.9,0,0,1,.43.57,1.83,1.83,0,0,1-.05,1.05,7.83,7.83,0,0,1-.49,1.27c-.21.45-.44.88-.68,1.32s-.44.82-.61,1.15a3,3,0,0,0-.28.82c0,.2.08.29.31.27a.79.79,0,0,0,.37-.24,5,5,0,0,0,.51-.56c.19-.24.38-.49.58-.78s.38-.57.56-.86.33-.55.47-.81a4.77,4.77,0,0,0,.3-.63.23.23,0,0,1,.14-.15.34.34,0,0,1,.2,0,.27.27,0,0,1,.14.12.19.19,0,0,1,0,.19c-.08.17-.19.4-.34.69s-.32.6-.52.93-.43.66-.66,1a10.19,10.19,0,0,1-.73.92,5.17,5.17,0,0,1-.76.68,1.36,1.36,0,0,1-.74.26.84.84,0,0,1-.51-.12,1,1,0,0,1-.35-.37,1.64,1.64,0,0,1-.17-.59,3.13,3.13,0,0,1,0-.75,5.45,5.45,0,0,1,.28-1.22c.14-.44.31-.86.48-1.28s.35-.81.52-1.17a8.41,8.41,0,0,0,.37-.93,2.48,2.48,0,0,1-.7.14,3,3,0,0,1-.78-.08c0,.06-.08.19-.15.37s-.16.38-.24.59l-.27.62c-.09.2-.16.36-.22.47Zm8.74-1.86a.4.4,0,0,1,.06-.22.73.73,0,0,1,.17-.18.25.25,0,0,0-.23-.18.66.66,0,0,0-.46.19,3,3,0,0,0-.54.57,8.42,8.42,0,0,0-.6.93c-.2.37-.41.78-.62,1.23a6.35,6.35,0,0,0-.32.93,4.65,4.65,0,0,0-.14.94,2.39,2.39,0,0,0,.09.79.62.62,0,0,0,.37.44c.22.09.45,0,.7-.24a5.08,5.08,0,0,0,.73-1,15,15,0,0,0,.72-1.33c.23-.48.45-.9.64-1.26a.08.08,0,0,1,0-.06c.26-.63.47-1.17.61-1.61s.17-.72.1-.83,0-.13.13-.2a1.13,1.13,0,0,1,.51-.14,1.16,1.16,0,0,1,.62.15,1,1,0,0,1,.43.62,1.59,1.59,0,0,1-.07.8c-.1.37-.24.79-.41,1.25s-.38,1-.61,1.46-.44,1-.65,1.43-.39.84-.55,1.17-.25.57-.29.69a6,6,0,0,0,1.11-1,17,17,0,0,0,1.07-1.34c.34-.47.63-.93.89-1.37a7.33,7.33,0,0,0,.53-1.06.24.24,0,0,1,.15-.17.25.25,0,0,1,.19,0,.24.24,0,0,1,.14.12.18.18,0,0,1,0,.19,15.75,15.75,0,0,1-.85,1.59,17.55,17.55,0,0,1-1.11,1.6,13.07,13.07,0,0,1-1.27,1.38,6.29,6.29,0,0,1-1.3.94l-.24.56-.3.7c-.11.24-.2.46-.28.67l-.19.46a1.75,1.75,0,0,1-.46.7,2.22,2.22,0,0,1-.72.44,2.87,2.87,0,0,1-.82.18,2.55,2.55,0,0,1-.8-.09,1.52,1.52,0,0,1-.64-.37,1.12,1.12,0,0,1-.35-.66.72.72,0,0,1,0-.31.94.94,0,0,1,.25-.4,2.81,2.81,0,0,1,.57-.42c.22-.13.46-.25.7-.37l.71-.36a3.06,3.06,0,0,0,.59-.41c.1-.28.22-.58.35-.91s.28-.69.44-1.05a2.22,2.22,0,0,1-.94.55,1.82,1.82,0,0,1-1.15-.11,1.63,1.63,0,0,1-.84-.69,2.34,2.34,0,0,1-.31-1,3.61,3.61,0,0,1,.09-1.12,7.1,7.1,0,0,1,.33-1.07,7.37,7.37,0,0,1,.79-1.54,4.81,4.81,0,0,1,.92-1.05,3.25,3.25,0,0,1,1-.59,3.19,3.19,0,0,1,1.05-.16,1.92,1.92,0,0,1,.38.07,1.12,1.12,0,0,1,.37.17,1,1,0,0,1,.28.32.91.91,0,0,1,.12.49.58.58,0,0,1-.13.43.4.4,0,0,1-.33.15.47.47,0,0,1-.31-.12.37.37,0,0,1-.14-.31Zm-2.17,8.2a2.17,2.17,0,0,1-.51.31l-.56.27a5.54,5.54,0,0,0-.53.3,1.32,1.32,0,0,0-.43.38.53.53,0,0,0-.08.32.62.62,0,0,0,.14.32.69.69,0,0,0,.28.22.58.58,0,0,0,.37,0,1.05,1.05,0,0,0,.43-.29,2,2,0,0,0,.41-.7c.06-.14.13-.3.22-.49s.17-.4.26-.65Zm10.05-6.49a.19.19,0,0,0,0-.19.31.31,0,0,0-.14-.12.34.34,0,0,0-.2,0,.23.23,0,0,0-.14.15,4.77,4.77,0,0,1-.3.63c-.14.26-.29.53-.47.81s-.37.57-.56.86-.39.54-.58.78a4.16,4.16,0,0,1-.51.56.75.75,0,0,1-.37.24c-.23,0-.33-.07-.31-.27a3,3,0,0,1,.28-.82c.17-.33.37-.72.61-1.15s.47-.87.68-1.32a8.88,8.88,0,0,0,.49-1.27,1.83,1.83,0,0,0,0-1.05.91.91,0,0,0-.45-.59,1.41,1.41,0,0,0-.62-.13,1.18,1.18,0,0,0-.49.13c-.13.08-.16.15-.1.21a.38.38,0,0,1,0,.38,3.89,3.89,0,0,1-.24.7c-.11.27-.24.58-.39.92s-.31.69-.45,1.06-.28.72-.4,1.09a6.15,6.15,0,0,0-.22,1,3.13,3.13,0,0,0,0,.75,1.64,1.64,0,0,0,.17.59,1,1,0,0,0,.35.37.84.84,0,0,0,.51.12,1.36,1.36,0,0,0,.74-.26,5.17,5.17,0,0,0,.76-.68,10.19,10.19,0,0,0,.73-.92q.35-.5.66-1c.2-.33.37-.64.52-.93s.26-.52.34-.69Zm-1.83-6.33c0-.07,0-.11.17-.12a1.27,1.27,0,0,1,.45.06,1.53,1.53,0,0,1,.46.23.5.5,0,0,1,.22.42,2,2,0,0,1-.18.86,3.27,3.27,0,0,1-.48.79,2.2,2.2,0,0,1-.6.52.46.46,0,0,1-.51,0c-.09-.06-.11-.21-.07-.47a6.82,6.82,0,0,1,.2-.85c.09-.31.17-.6.26-.88a1.36,1.36,0,0,0,.08-.6Zm5.09,4.62a.34.34,0,0,1,.07-.22.58.58,0,0,1,.17-.18.25.25,0,0,0-.24-.18.66.66,0,0,0-.46.19,3.81,3.81,0,0,0-.54.57,7.21,7.21,0,0,0-.59.93c-.21.37-.42.78-.62,1.23a5.36,5.36,0,0,0-.32.93,4.65,4.65,0,0,0-.14.94,2.39,2.39,0,0,0,.09.79.6.6,0,0,0,.37.44.45.45,0,0,0,.43,0,1.89,1.89,0,0,0,.46-.41,7.2,7.2,0,0,0,.47-.68c.16-.27.32-.55.47-.84s.3-.58.45-.87.28-.56.4-.8.28-.63.41-.92.24-.56.33-.79a3.16,3.16,0,0,0,.18-.59.36.36,0,0,0-.05-.33c-.06-.06,0-.13.1-.21a1.18,1.18,0,0,1,.49-.13,1.41,1.41,0,0,1,.62.13.91.91,0,0,1,.45.59,1.83,1.83,0,0,1-.05,1.05,8.88,8.88,0,0,1-.49,1.27c-.21.45-.44.88-.68,1.32s-.44.82-.61,1.15a3,3,0,0,0-.28.82c0,.2.08.29.31.27a.79.79,0,0,0,.37-.24,5,5,0,0,0,.51-.56c.19-.24.38-.49.59-.78s.38-.57.56-.86.32-.55.46-.81a4.77,4.77,0,0,0,.3-.63.21.21,0,0,1,.14-.15.34.34,0,0,1,.2,0,.31.31,0,0,1,.14.12.19.19,0,0,1,0,.19c-.08.17-.19.4-.34.69s-.32.6-.53.93-.42.66-.65,1a10.19,10.19,0,0,1-.73.92,5.17,5.17,0,0,1-.76.68,1.36,1.36,0,0,1-.74.26.84.84,0,0,1-.84-.46,2,2,0,0,1-.21-1.24,6.91,6.91,0,0,1-.59.84,2.87,2.87,0,0,1-.67.6,2,2,0,0,1-.77.26,1.74,1.74,0,0,1-.89-.16,1.66,1.66,0,0,1-.85-.69,2.48,2.48,0,0,1-.3-1,3.61,3.61,0,0,1,.09-1.12,6.12,6.12,0,0,1,.32-1.07,7.88,7.88,0,0,1,.79-1.54,5.08,5.08,0,0,1,.92-1.05,3.29,3.29,0,0,1,1-.59,3.09,3.09,0,0,1,1-.16,1.8,1.8,0,0,1,.38.07,1,1,0,0,1,.37.17,1,1,0,0,1,.29.32.91.91,0,0,1,.12.49.53.53,0,0,1-.15.44.4.4,0,0,1-.31.14.47.47,0,0,1-.32-.12.4.4,0,0,1-.14-.31Z"/><path class="cls-6" d="M362.6,140.12a4.76,4.76,0,0,1,1.29.84,4.28,4.28,0,0,1,1,1.21,3.5,3.5,0,0,1,.42,1.4A2.36,2.36,0,0,1,365,145a.58.58,0,0,1-.42.27,1.57,1.57,0,0,1-.61,0,1.18,1.18,0,0,1-.48-.2.22.22,0,0,1-.07-.33,2.81,2.81,0,0,0,.47-1.42,3,3,0,0,0-.23-1.25,2.37,2.37,0,0,0-.69-.89,1.42,1.42,0,0,0-.89-.34.43.43,0,0,0-.43.33,2.16,2.16,0,0,0-.1.81,8,8,0,0,0,.11,1.11c.07.41.15.81.25,1.19s.18.74.28,1.06.16.55.21.7c.17.5.33,1,.5,1.52a12.08,12.08,0,0,1,.37,1.58,6.16,6.16,0,0,1-.19,3.18,3.36,3.36,0,0,1-.81,1.27,4.43,4.43,0,0,1-1.39.92,5.89,5.89,0,0,1-2.29.46c-.4,0-.83,0-1.28-.05a6.38,6.38,0,0,1-1.24-.22,3.71,3.71,0,0,1-1.82-1,3,3,0,0,1-.76-1.69,4.18,4.18,0,0,1,1.21-3.41,2.76,2.76,0,0,1,1.59-.8,2.5,2.5,0,0,1,1.06.09,3,3,0,0,1,1.11.55,2.41,2.41,0,0,1,.75,1,1.88,1.88,0,0,1,0,1.38.51.51,0,0,1-.42.33,1.77,1.77,0,0,1-.65,0,1.34,1.34,0,0,1-.56-.22.26.26,0,0,1-.11-.38,2,2,0,0,0,.23-.92,1.52,1.52,0,0,0-.2-.73,1.17,1.17,0,0,0-.5-.44,1.08,1.08,0,0,0-.61-.1,2.36,2.36,0,0,0-1.26.63,3.66,3.66,0,0,0-1,3,2.33,2.33,0,0,0,.62,1.31,3.08,3.08,0,0,0,1.46.89,3.93,3.93,0,0,0,1.87,0,4,4,0,0,0,1.63-.74,2.92,2.92,0,0,0,1-1.3,4.75,4.75,0,0,0,.26-1.44,7.35,7.35,0,0,0-.12-1.47,13.61,13.61,0,0,0-.36-1.5c-.15-.5-.31-1-.48-1.51s-.41-1.27-.58-1.87a7.43,7.43,0,0,1-.29-1.77,3,3,0,0,1,.25-1.45,2,2,0,0,1,.32-.53,1.9,1.9,0,0,1,.45-.4,1.62,1.62,0,0,1,.55-.22,3.11,3.11,0,0,1,.69-.07,4.06,4.06,0,0,1,.7.08,2.9,2.9,0,0,1,.63.18Zm8,4.44a.5.5,0,0,1-.09.34.39.39,0,0,1-.37.23.49.49,0,0,1-.32-.12.4.4,0,0,1-.14-.31.34.34,0,0,1,.07-.22.58.58,0,0,1,.17-.18q-.12-.21-.27-.21a.56.56,0,0,0-.34.13,2.19,2.19,0,0,0-.36.34l-.36.43a6.79,6.79,0,0,0-.6.93,9.56,9.56,0,0,0-.51,1.07,10,10,0,0,0-.35,1.1,4,4,0,0,0-.14,1,1.74,1.74,0,0,0,.12.73.59.59,0,0,0,.45.34.57.57,0,0,0,.49-.2,3.83,3.83,0,0,0,.55-.62c.18-.26.36-.54.53-.84s.32-.57.45-.83a.75.75,0,0,1-.43-.44,1.16,1.16,0,0,1-.07-.61,1.14,1.14,0,0,1,.23-.54.6.6,0,0,1,.49-.24h.27a.45.45,0,0,1,.28.16.73.73,0,0,1,.13.45,2.83,2.83,0,0,1-.16.9,2.61,2.61,0,0,0,.94-.16,2.07,2.07,0,0,0,.56-.33.93.93,0,0,0,.26-.34,1.79,1.79,0,0,1,.1-.22.17.17,0,0,1,.14-.12.23.23,0,0,1,.18,0,.23.23,0,0,1,.13.14.26.26,0,0,1,0,.21,1.48,1.48,0,0,1-.36.52,2.45,2.45,0,0,1-.59.4,3.06,3.06,0,0,1-.74.25,3.17,3.17,0,0,1-.81.07c-.14.31-.32.65-.53,1a5.88,5.88,0,0,1-.73,1,4,4,0,0,1-.91.79,1.66,1.66,0,0,1-1,.27,1.62,1.62,0,0,1-1.16-.62,2.29,2.29,0,0,1-.45-1.33,5.28,5.28,0,0,1,.12-1.23,6.83,6.83,0,0,1,1-2.44,5.42,5.42,0,0,1,.87-1,3.76,3.76,0,0,1,1.05-.63,2.79,2.79,0,0,1,1.18-.19,1,1,0,0,1,.47.12,1.31,1.31,0,0,1,.3.27,1,1,0,0,1,.18.34,2.9,2.9,0,0,1,.09.34Zm5.36.14a.4.4,0,0,1,.06-.22.73.73,0,0,1,.17-.18.25.25,0,0,0-.23-.18.66.66,0,0,0-.46.19,3,3,0,0,0-.54.57,8.42,8.42,0,0,0-.6.93c-.2.37-.41.78-.62,1.23a5.87,5.87,0,0,0-.32,1,5,5,0,0,0-.14,1,2.14,2.14,0,0,0,.08.79.51.51,0,0,0,.38.39,1.25,1.25,0,0,0,.7-.09,3.39,3.39,0,0,0,.77-.47,5.68,5.68,0,0,0,.77-.72c.25-.28.49-.57.71-.87s.41-.61.59-.91a6.82,6.82,0,0,0,.4-.83.26.26,0,0,1,.15-.16.34.34,0,0,1,.22,0,.23.23,0,0,1,.11.31,10.93,10.93,0,0,1-.59,1.1,10.72,10.72,0,0,1-.77,1.13,10.17,10.17,0,0,1-.93,1,4.81,4.81,0,0,1-1,.78,3.2,3.2,0,0,1-1.08.39,2,2,0,0,1-1.09-.13,1.63,1.63,0,0,1-.84-.69,2.34,2.34,0,0,1-.31-1,3.61,3.61,0,0,1,.09-1.12,7.1,7.1,0,0,1,.33-1.07,7.37,7.37,0,0,1,.79-1.54,4.81,4.81,0,0,1,.92-1.05,3.25,3.25,0,0,1,1-.59,3.19,3.19,0,0,1,1.05-.16,1.92,1.92,0,0,1,.38.07,1.12,1.12,0,0,1,.37.17,1,1,0,0,1,.28.32.91.91,0,0,1,.12.49.58.58,0,0,1-.13.43.4.4,0,0,1-.33.15.47.47,0,0,1-.31-.12.37.37,0,0,1-.14-.31Zm4.53-1.92q0,.12-.24.12a1.42,1.42,0,0,1-.51-.11,1.7,1.7,0,0,1-.51-.36.85.85,0,0,1-.23-.61.6.6,0,0,1,.09-.27c.05-.12.12-.24.19-.37s.14-.24.2-.35a.58.58,0,0,0,.09-.25c0-.07.08-.1.22-.1a1.35,1.35,0,0,1,1,.47.84.84,0,0,1,.22.6.51.51,0,0,1-.08.25l-.17.34a3,3,0,0,0-.18.36.63.63,0,0,0-.08.28Zm1.06,3.63a.19.19,0,0,0,0-.19.27.27,0,0,0-.14-.12.31.31,0,0,0-.19,0,.22.22,0,0,0-.15.15,4.77,4.77,0,0,1-.3.63c-.14.26-.29.53-.47.81s-.36.57-.56.86-.39.54-.58.78a4.16,4.16,0,0,1-.51.56.71.71,0,0,1-.37.24q-.35,0-.3-.27a2.47,2.47,0,0,1,.28-.82c.16-.33.36-.72.6-1.15s.47-.87.68-1.32a7.83,7.83,0,0,0,.49-1.27,1.83,1.83,0,0,0,0-1.05.91.91,0,0,0-.45-.59,1.4,1.4,0,0,0-.61-.13,1.18,1.18,0,0,0-.5.13q-.19.12-.09.21a.42.42,0,0,1,0,.38,4.66,4.66,0,0,1-.23.7l-.4.92c-.15.34-.3.69-.45,1.06A10.9,10.9,0,0,0,377,148a5.36,5.36,0,0,0-.23,1,3.13,3.13,0,0,0,0,.75,1.87,1.87,0,0,0,.17.59,1,1,0,0,0,.35.37.84.84,0,0,0,.51.12,1.36,1.36,0,0,0,.74-.26,4.71,4.71,0,0,0,.76-.68A10.19,10.19,0,0,0,380,149q.36-.5.66-1c.2-.33.37-.64.52-.93s.26-.52.34-.69Zm3.26-1.71a.34.34,0,0,1,.07-.22.58.58,0,0,1,.17-.18.25.25,0,0,0-.24-.18.66.66,0,0,0-.46.19,3.35,3.35,0,0,0-.53.57,7.18,7.18,0,0,0-.6.93c-.21.37-.41.78-.62,1.23a5.36,5.36,0,0,0-.32.93,4.65,4.65,0,0,0-.14.94,2.39,2.39,0,0,0,.09.79.6.6,0,0,0,.37.44.45.45,0,0,0,.43,0,1.72,1.72,0,0,0,.46-.41A7.2,7.2,0,0,0,384,149c.17-.27.32-.55.48-.84s.3-.58.44-.87.28-.56.4-.8.28-.63.41-.92.24-.56.33-.79a3.16,3.16,0,0,0,.18-.59.4.4,0,0,0,0-.33q-.11-.09.09-.21a1.18,1.18,0,0,1,.5-.13,1.4,1.4,0,0,1,.61.13.91.91,0,0,1,.45.59,1.83,1.83,0,0,1-.05,1.05,7.83,7.83,0,0,1-.49,1.27c-.21.45-.44.88-.68,1.32s-.44.82-.6,1.15a2.47,2.47,0,0,0-.28.82q0,.3.3.27a.79.79,0,0,0,.37-.24,5,5,0,0,0,.51-.56c.19-.24.39-.49.59-.78s.39-.57.56-.86.33-.55.46-.81a4.77,4.77,0,0,0,.3-.63.22.22,0,0,1,.15-.15.31.31,0,0,1,.19,0,.27.27,0,0,1,.14.12.19.19,0,0,1,0,.19c-.08.17-.19.4-.34.69s-.32.6-.52.93-.42.66-.66,1a10.19,10.19,0,0,1-.73.92,5.17,5.17,0,0,1-.76.68,1.36,1.36,0,0,1-.74.26.85.85,0,0,1-.84-.46,2,2,0,0,1-.21-1.24,6,6,0,0,1-.59.84,2.68,2.68,0,0,1-.67.6,2,2,0,0,1-.77.26,1.76,1.76,0,0,1-.89-.16,1.66,1.66,0,0,1-.85-.69,2.48,2.48,0,0,1-.3-1,3.61,3.61,0,0,1,.09-1.12,7.12,7.12,0,0,1,.32-1.07,7.88,7.88,0,0,1,.79-1.54,5.08,5.08,0,0,1,.92-1.05,3.29,3.29,0,0,1,1-.59,3.11,3.11,0,0,1,1.05-.16,1.84,1.84,0,0,1,.37.07,1,1,0,0,1,.37.17,1,1,0,0,1,.29.32.91.91,0,0,1,.12.49.53.53,0,0,1-.15.44.4.4,0,0,1-.31.14A.49.49,0,0,1,385,145a.4.4,0,0,1-.14-.31Zm7.86,1.71-.34.69c-.15.29-.33.6-.53.93s-.42.66-.66,1a7.57,7.57,0,0,1-.73.92,4.71,4.71,0,0,1-.76.68,1.33,1.33,0,0,1-.73.26.84.84,0,0,1-.51-.12.9.9,0,0,1-.35-.37,1.64,1.64,0,0,1-.18-.59,3.13,3.13,0,0,1,0-.75,7.8,7.8,0,0,1,.37-1.37c.21-.59.45-1.24.74-1.94s.59-1.42.9-2.16.6-1.4.85-2,.44-1.13.58-1.54.17-.66.11-.72,0-.13.09-.21a1.05,1.05,0,0,1,.5-.13,1.27,1.27,0,0,1,.61.13.88.88,0,0,1,.45.59,1.79,1.79,0,0,1-.06.95,13.34,13.34,0,0,1-.48,1.43c-.21.53-.46,1.1-.75,1.72s-.57,1.22-.86,1.82l-.83,1.73c-.26.56-.47,1-.63,1.46a4,4,0,0,0-.28,1c0,.25.05.36.21.34a.73.73,0,0,0,.38-.24,6.12,6.12,0,0,0,.51-.56c.19-.24.38-.49.57-.78s.39-.57.57-.86.33-.55.47-.81a4.51,4.51,0,0,0,.29-.63.22.22,0,0,1,.15-.15.31.31,0,0,1,.19,0,.24.24,0,0,1,.14.12.18.18,0,0,1,0,.19Zm7.2-1.71a.4.4,0,0,1,.06-.22,1,1,0,0,1,.17-.18.23.23,0,0,0-.23-.18.66.66,0,0,0-.46.19,3,3,0,0,0-.54.57,8.42,8.42,0,0,0-.6.93c-.2.37-.41.78-.62,1.23a6.34,6.34,0,0,0-.31.93,4,4,0,0,0-.14.94,2.39,2.39,0,0,0,.09.79.59.59,0,0,0,.36.44.47.47,0,0,0,.44,0,2.09,2.09,0,0,0,.46-.41A7.2,7.2,0,0,0,399,149c.16-.27.32-.55.47-.84s.3-.58.44-.87.28-.56.41-.8.27-.63.41-.92.24-.56.33-.79a3.16,3.16,0,0,0,.18-.59.36.36,0,0,0-.05-.33c-.07-.06,0-.13.1-.21a1.18,1.18,0,0,1,.49-.13,1.37,1.37,0,0,1,.61.13.85.85,0,0,1,.45.59,1.82,1.82,0,0,1,0,1.05,8.88,8.88,0,0,1-.49,1.27c-.22.45-.44.88-.68,1.32s-.45.82-.61,1.15a3,3,0,0,0-.28.82q0,.3.3.27a.75.75,0,0,0,.37-.24,4.93,4.93,0,0,0,.52-.56c.19-.24.38-.49.58-.78s.39-.57.56-.86.33-.55.47-.81a4.51,4.51,0,0,0,.29-.63.22.22,0,0,1,.15-.15.31.31,0,0,1,.19,0,.24.24,0,0,1,.14.12.17.17,0,0,1,0,.19l-.34.69c-.15.29-.33.6-.53.93s-.42.66-.65,1a10.19,10.19,0,0,1-.73.92,5.74,5.74,0,0,1-.76.68,1.38,1.38,0,0,1-.74.26.83.83,0,0,1-.84-.46,2,2,0,0,1-.21-1.24,6.91,6.91,0,0,1-.59.84,2.87,2.87,0,0,1-.67.6,2,2,0,0,1-.77.26,1.74,1.74,0,0,1-.89-.16,1.62,1.62,0,0,1-.85-.69,2.33,2.33,0,0,1-.3-1,3.92,3.92,0,0,1,.08-1.12,7.1,7.1,0,0,1,.33-1.07,7.37,7.37,0,0,1,.79-1.54,5.08,5.08,0,0,1,.92-1.05,3.37,3.37,0,0,1,1-.59,3.19,3.19,0,0,1,1.05-.16,1.8,1.8,0,0,1,.38.07,1.12,1.12,0,0,1,.37.17,1,1,0,0,1,.29.32,1,1,0,0,1,.11.49.56.56,0,0,1-.14.44.41.41,0,0,1-.31.14A.47.47,0,0,1,400,145a.4.4,0,0,1-.14-.31Zm9.68,5.87v0a4.23,4.23,0,0,1-.62.25,1.83,1.83,0,0,1-.51.09,1.22,1.22,0,0,1-.9-.31,1.48,1.48,0,0,1-.42-.71,1.94,1.94,0,0,1,0-.83,1.19,1.19,0,0,1,.28-.63,1.67,1.67,0,0,1,.53-.42.69.69,0,0,1,.4-.07.51.51,0,0,1,.3.13.39.39,0,0,1,.14.3.43.43,0,0,1-.14.32.45.45,0,0,1-.32.14.4.4,0,0,1-.25-.09.37.37,0,0,1-.16-.21,1.21,1.21,0,0,0-.27.53,1.49,1.49,0,0,0,0,.59.9.9,0,0,0,.23.48.75.75,0,0,0,.51.22.92.92,0,0,0,.34-.11,1.63,1.63,0,0,0,.45-.37,2.84,2.84,0,0,0,.41-.67,2.78,2.78,0,0,0,.21-1,5.11,5.11,0,0,0-.12-1.34,8.32,8.32,0,0,0-.62-1.73c-.1.19-.21.39-.34.61l-.33.63a.27.27,0,0,1-.18.12.41.41,0,0,1-.19,0,.23.23,0,0,1-.12-.12.19.19,0,0,1,0-.19l.22-.45c.07-.13.14-.26.21-.37s.13-.24.19-.37l.19-.39a1.86,1.86,0,0,1-.25-.51,2,2,0,0,1-.09-.59,1.74,1.74,0,0,1,.05-.34,1.7,1.7,0,0,1,.18-.39,1,1,0,0,1,.35-.34,1,1,0,0,1,.57-.14.74.74,0,0,1,.54.16.57.57,0,0,1,.19.41,1.35,1.35,0,0,1-.11.56,3,3,0,0,1-.31.59l0,.09a8.35,8.35,0,0,1,.92,1.27,6.43,6.43,0,0,1,.53,1.15,4.11,4.11,0,0,1,.19,1,2.87,2.87,0,0,1-.08.89,13.09,13.09,0,0,0,.87-1.11,8.85,8.85,0,0,0,.64-1,.22.22,0,0,1,.35-.11.27.27,0,0,1,.13.17.31.31,0,0,1,0,.19,9.82,9.82,0,0,1-.82,1.36c-.31.42-.65.84-1,1.26a6.23,6.23,0,0,1-.83.8,4.19,4.19,0,0,1-1,.59Z"/><path class="cls-7" d="M362.6,140.12a4.76,4.76,0,0,1,1.29.84,4.28,4.28,0,0,1,1,1.21,3.5,3.5,0,0,1,.42,1.4A2.36,2.36,0,0,1,365,145a.58.58,0,0,1-.42.27,1.57,1.57,0,0,1-.61,0,1.18,1.18,0,0,1-.48-.2.22.22,0,0,1-.07-.33,2.81,2.81,0,0,0,.47-1.42,3,3,0,0,0-.23-1.25,2.37,2.37,0,0,0-.69-.89,1.42,1.42,0,0,0-.89-.34.43.43,0,0,0-.43.33,2.16,2.16,0,0,0-.1.81,8,8,0,0,0,.11,1.11c.07.41.15.81.25,1.19s.18.74.28,1.06.16.55.21.7c.17.5.33,1,.5,1.52a12.08,12.08,0,0,1,.37,1.58,6.16,6.16,0,0,1-.19,3.18,3.36,3.36,0,0,1-.81,1.27,4.43,4.43,0,0,1-1.39.92,5.89,5.89,0,0,1-2.29.46c-.4,0-.83,0-1.28-.05a6.38,6.38,0,0,1-1.24-.22,3.71,3.71,0,0,1-1.82-1,3,3,0,0,1-.76-1.69,4.18,4.18,0,0,1,1.21-3.41,2.76,2.76,0,0,1,1.59-.8,2.5,2.5,0,0,1,1.06.09,3,3,0,0,1,1.11.55,2.41,2.41,0,0,1,.75,1,1.88,1.88,0,0,1,0,1.38.51.51,0,0,1-.42.33,1.77,1.77,0,0,1-.65,0,1.34,1.34,0,0,1-.56-.22.26.26,0,0,1-.11-.38,2,2,0,0,0,.23-.92,1.52,1.52,0,0,0-.2-.73,1.17,1.17,0,0,0-.5-.44,1.08,1.08,0,0,0-.61-.1,2.36,2.36,0,0,0-1.26.63,3.66,3.66,0,0,0-1,3,2.33,2.33,0,0,0,.62,1.31,3.08,3.08,0,0,0,1.46.89,3.93,3.93,0,0,0,1.87,0,4,4,0,0,0,1.63-.74,2.92,2.92,0,0,0,1-1.3,4.75,4.75,0,0,0,.26-1.44,7.35,7.35,0,0,0-.12-1.47,13.61,13.61,0,0,0-.36-1.5c-.15-.5-.31-1-.48-1.51s-.41-1.27-.58-1.87a7.43,7.43,0,0,1-.29-1.77,3,3,0,0,1,.25-1.45,2,2,0,0,1,.32-.53,1.9,1.9,0,0,1,.45-.4,1.62,1.62,0,0,1,.55-.22,3.11,3.11,0,0,1,.69-.07,4.06,4.06,0,0,1,.7.08,2.9,2.9,0,0,1,.63.18Zm8,4.44a.5.5,0,0,1-.09.34.39.39,0,0,1-.37.23.49.49,0,0,1-.32-.12.4.4,0,0,1-.14-.31.34.34,0,0,1,.07-.22.58.58,0,0,1,.17-.18q-.12-.21-.27-.21a.56.56,0,0,0-.34.13,2.19,2.19,0,0,0-.36.34l-.36.43a6.79,6.79,0,0,0-.6.93,9.56,9.56,0,0,0-.51,1.07,10,10,0,0,0-.35,1.1,4,4,0,0,0-.14,1,1.74,1.74,0,0,0,.12.73.59.59,0,0,0,.45.34.57.57,0,0,0,.49-.2,3.83,3.83,0,0,0,.55-.62c.18-.26.36-.54.53-.84s.32-.57.45-.83a.75.75,0,0,1-.43-.44,1.16,1.16,0,0,1-.07-.61,1.14,1.14,0,0,1,.23-.54.6.6,0,0,1,.49-.24h.27a.45.45,0,0,1,.28.16.73.73,0,0,1,.13.45,2.83,2.83,0,0,1-.16.9,2.61,2.61,0,0,0,.94-.16,2.07,2.07,0,0,0,.56-.33.93.93,0,0,0,.26-.34,1.79,1.79,0,0,1,.1-.22.17.17,0,0,1,.14-.12.23.23,0,0,1,.18,0,.23.23,0,0,1,.13.14.26.26,0,0,1,0,.21,1.48,1.48,0,0,1-.36.52,2.45,2.45,0,0,1-.59.4,3.06,3.06,0,0,1-.74.25,3.17,3.17,0,0,1-.81.07c-.14.31-.32.65-.53,1a5.88,5.88,0,0,1-.73,1,4,4,0,0,1-.91.79,1.66,1.66,0,0,1-1,.27,1.62,1.62,0,0,1-1.16-.62,2.29,2.29,0,0,1-.45-1.33,5.28,5.28,0,0,1,.12-1.23,6.83,6.83,0,0,1,1-2.44,5.42,5.42,0,0,1,.87-1,3.76,3.76,0,0,1,1.05-.63,2.79,2.79,0,0,1,1.18-.19,1,1,0,0,1,.47.12,1.31,1.31,0,0,1,.3.27,1,1,0,0,1,.18.34,2.9,2.9,0,0,1,.09.34Zm5.36.14a.4.4,0,0,1,.06-.22.73.73,0,0,1,.17-.18.25.25,0,0,0-.23-.18.66.66,0,0,0-.46.19,3,3,0,0,0-.54.57,8.42,8.42,0,0,0-.6.93c-.2.37-.41.78-.62,1.23a5.87,5.87,0,0,0-.32,1,5,5,0,0,0-.14,1,2.14,2.14,0,0,0,.08.79.51.51,0,0,0,.38.39,1.25,1.25,0,0,0,.7-.09,3.39,3.39,0,0,0,.77-.47,5.68,5.68,0,0,0,.77-.72c.25-.28.49-.57.71-.87s.41-.61.59-.91a6.82,6.82,0,0,0,.4-.83.26.26,0,0,1,.15-.16.34.34,0,0,1,.22,0,.23.23,0,0,1,.11.31,10.93,10.93,0,0,1-.59,1.1,10.72,10.72,0,0,1-.77,1.13,10.17,10.17,0,0,1-.93,1,4.81,4.81,0,0,1-1,.78,3.2,3.2,0,0,1-1.08.39,2,2,0,0,1-1.09-.13,1.63,1.63,0,0,1-.84-.69,2.34,2.34,0,0,1-.31-1,3.61,3.61,0,0,1,.09-1.12,7.1,7.1,0,0,1,.33-1.07,7.37,7.37,0,0,1,.79-1.54,4.81,4.81,0,0,1,.92-1.05,3.25,3.25,0,0,1,1-.59,3.19,3.19,0,0,1,1.05-.16,1.92,1.92,0,0,1,.38.07,1.12,1.12,0,0,1,.37.17,1,1,0,0,1,.28.32.91.91,0,0,1,.12.49.58.58,0,0,1-.13.43.4.4,0,0,1-.33.15.47.47,0,0,1-.31-.12.37.37,0,0,1-.14-.31Zm4.53-1.92q0,.12-.24.12a1.42,1.42,0,0,1-.51-.11,1.7,1.7,0,0,1-.51-.36.85.85,0,0,1-.23-.61.6.6,0,0,1,.09-.27c.05-.12.12-.24.19-.37s.14-.24.2-.35a.58.58,0,0,0,.09-.25c0-.07.08-.1.22-.1a1.35,1.35,0,0,1,1,.47.84.84,0,0,1,.22.6.51.51,0,0,1-.08.25l-.17.34a3,3,0,0,0-.18.36.63.63,0,0,0-.08.28Zm1.06,3.63a.19.19,0,0,0,0-.19.27.27,0,0,0-.14-.12.31.31,0,0,0-.19,0,.22.22,0,0,0-.15.15,4.77,4.77,0,0,1-.3.63c-.14.26-.29.53-.47.81s-.36.57-.56.86-.39.54-.58.78a4.16,4.16,0,0,1-.51.56.71.71,0,0,1-.37.24q-.35,0-.3-.27a2.47,2.47,0,0,1,.28-.82c.16-.33.36-.72.6-1.15s.47-.87.68-1.32a7.83,7.83,0,0,0,.49-1.27,1.83,1.83,0,0,0,0-1.05.91.91,0,0,0-.45-.59,1.4,1.4,0,0,0-.61-.13,1.18,1.18,0,0,0-.5.13q-.19.12-.09.21a.42.42,0,0,1,0,.38,4.66,4.66,0,0,1-.23.7l-.4.92c-.15.34-.3.69-.45,1.06A10.9,10.9,0,0,0,377,148a5.36,5.36,0,0,0-.23,1,3.13,3.13,0,0,0,0,.75,1.87,1.87,0,0,0,.17.59,1,1,0,0,0,.35.37.84.84,0,0,0,.51.12,1.36,1.36,0,0,0,.74-.26,4.71,4.71,0,0,0,.76-.68A10.19,10.19,0,0,0,380,149q.36-.5.66-1c.2-.33.37-.64.52-.93s.26-.52.34-.69Zm3.26-1.71a.34.34,0,0,1,.07-.22.58.58,0,0,1,.17-.18.25.25,0,0,0-.24-.18.66.66,0,0,0-.46.19,3.35,3.35,0,0,0-.53.57,7.18,7.18,0,0,0-.6.93c-.21.37-.41.78-.62,1.23a5.36,5.36,0,0,0-.32.93,4.65,4.65,0,0,0-.14.94,2.39,2.39,0,0,0,.09.79.6.6,0,0,0,.37.44.45.45,0,0,0,.43,0,1.72,1.72,0,0,0,.46-.41A7.2,7.2,0,0,0,384,149c.17-.27.32-.55.48-.84s.3-.58.44-.87.28-.56.4-.8.28-.63.41-.92.24-.56.33-.79a3.16,3.16,0,0,0,.18-.59.4.4,0,0,0,0-.33q-.11-.09.09-.21a1.18,1.18,0,0,1,.5-.13,1.4,1.4,0,0,1,.61.13.91.91,0,0,1,.45.59,1.83,1.83,0,0,1-.05,1.05,7.83,7.83,0,0,1-.49,1.27c-.21.45-.44.88-.68,1.32s-.44.82-.6,1.15a2.47,2.47,0,0,0-.28.82q0,.3.3.27a.79.79,0,0,0,.37-.24,5,5,0,0,0,.51-.56c.19-.24.39-.49.59-.78s.39-.57.56-.86.33-.55.46-.81a4.77,4.77,0,0,0,.3-.63.22.22,0,0,1,.15-.15.31.31,0,0,1,.19,0,.27.27,0,0,1,.14.12.19.19,0,0,1,0,.19c-.08.17-.19.4-.34.69s-.32.6-.52.93-.42.66-.66,1a10.19,10.19,0,0,1-.73.92,5.17,5.17,0,0,1-.76.68,1.36,1.36,0,0,1-.74.26.85.85,0,0,1-.84-.46,2,2,0,0,1-.21-1.24,6,6,0,0,1-.59.84,2.68,2.68,0,0,1-.67.6,2,2,0,0,1-.77.26,1.76,1.76,0,0,1-.89-.16,1.66,1.66,0,0,1-.85-.69,2.48,2.48,0,0,1-.3-1,3.61,3.61,0,0,1,.09-1.12,7.12,7.12,0,0,1,.32-1.07,7.88,7.88,0,0,1,.79-1.54,5.08,5.08,0,0,1,.92-1.05,3.29,3.29,0,0,1,1-.59,3.11,3.11,0,0,1,1.05-.16,1.84,1.84,0,0,1,.37.07,1,1,0,0,1,.37.17,1,1,0,0,1,.29.32.91.91,0,0,1,.12.49.53.53,0,0,1-.15.44.4.4,0,0,1-.31.14A.49.49,0,0,1,385,145a.4.4,0,0,1-.14-.31Zm7.86,1.71-.34.69c-.15.29-.33.6-.53.93s-.42.66-.66,1a7.57,7.57,0,0,1-.73.92,4.71,4.71,0,0,1-.76.68,1.33,1.33,0,0,1-.73.26.84.84,0,0,1-.51-.12.9.9,0,0,1-.35-.37,1.64,1.64,0,0,1-.18-.59,3.13,3.13,0,0,1,0-.75,7.8,7.8,0,0,1,.37-1.37c.21-.59.45-1.24.74-1.94s.59-1.42.9-2.16.6-1.4.85-2,.44-1.13.58-1.54.17-.66.11-.72,0-.13.09-.21a1.05,1.05,0,0,1,.5-.13,1.27,1.27,0,0,1,.61.13.88.88,0,0,1,.45.59,1.79,1.79,0,0,1-.06.95,13.34,13.34,0,0,1-.48,1.43c-.21.53-.46,1.1-.75,1.72s-.57,1.22-.86,1.82l-.83,1.73c-.26.56-.47,1-.63,1.46a4,4,0,0,0-.28,1c0,.25.05.36.21.34a.73.73,0,0,0,.38-.24,6.12,6.12,0,0,0,.51-.56c.19-.24.38-.49.57-.78s.39-.57.57-.86.33-.55.47-.81a4.51,4.51,0,0,0,.29-.63.22.22,0,0,1,.15-.15.31.31,0,0,1,.19,0,.24.24,0,0,1,.14.12.18.18,0,0,1,0,.19Zm7.2-1.71a.4.4,0,0,1,.06-.22,1,1,0,0,1,.17-.18.23.23,0,0,0-.23-.18.66.66,0,0,0-.46.19,3,3,0,0,0-.54.57,8.42,8.42,0,0,0-.6.93c-.2.37-.41.78-.62,1.23a6.34,6.34,0,0,0-.31.93,4,4,0,0,0-.14.94,2.39,2.39,0,0,0,.09.79.59.59,0,0,0,.36.44.47.47,0,0,0,.44,0,2.09,2.09,0,0,0,.46-.41A7.2,7.2,0,0,0,399,149c.16-.27.32-.55.47-.84s.3-.58.44-.87.28-.56.41-.8.27-.63.41-.92.24-.56.33-.79a3.16,3.16,0,0,0,.18-.59.36.36,0,0,0-.05-.33c-.07-.06,0-.13.1-.21a1.18,1.18,0,0,1,.49-.13,1.37,1.37,0,0,1,.61.13.85.85,0,0,1,.45.59,1.82,1.82,0,0,1,0,1.05,8.88,8.88,0,0,1-.49,1.27c-.22.45-.44.88-.68,1.32s-.45.82-.61,1.15a3,3,0,0,0-.28.82q0,.3.3.27a.75.75,0,0,0,.37-.24,4.93,4.93,0,0,0,.52-.56c.19-.24.38-.49.58-.78s.39-.57.56-.86.33-.55.47-.81a4.51,4.51,0,0,0,.29-.63.22.22,0,0,1,.15-.15.31.31,0,0,1,.19,0,.24.24,0,0,1,.14.12.17.17,0,0,1,0,.19l-.34.69c-.15.29-.33.6-.53.93s-.42.66-.65,1a10.19,10.19,0,0,1-.73.92,5.74,5.74,0,0,1-.76.68,1.38,1.38,0,0,1-.74.26.83.83,0,0,1-.84-.46,2,2,0,0,1-.21-1.24,6.91,6.91,0,0,1-.59.84,2.87,2.87,0,0,1-.67.6,2,2,0,0,1-.77.26,1.74,1.74,0,0,1-.89-.16,1.62,1.62,0,0,1-.85-.69,2.33,2.33,0,0,1-.3-1,3.92,3.92,0,0,1,.08-1.12,7.1,7.1,0,0,1,.33-1.07,7.37,7.37,0,0,1,.79-1.54,5.08,5.08,0,0,1,.92-1.05,3.37,3.37,0,0,1,1-.59,3.19,3.19,0,0,1,1.05-.16,1.8,1.8,0,0,1,.38.07,1.12,1.12,0,0,1,.37.17,1,1,0,0,1,.29.32,1,1,0,0,1,.11.49.56.56,0,0,1-.14.44.41.41,0,0,1-.31.14A.47.47,0,0,1,400,145a.4.4,0,0,1-.14-.31Zm9.68,5.87v0a4.23,4.23,0,0,1-.62.25,1.83,1.83,0,0,1-.51.09,1.22,1.22,0,0,1-.9-.31,1.48,1.48,0,0,1-.42-.71,1.94,1.94,0,0,1,0-.83,1.19,1.19,0,0,1,.28-.63,1.67,1.67,0,0,1,.53-.42.69.69,0,0,1,.4-.07.51.51,0,0,1,.3.13.39.39,0,0,1,.14.3.43.43,0,0,1-.14.32.45.45,0,0,1-.32.14.4.4,0,0,1-.25-.09.37.37,0,0,1-.16-.21,1.21,1.21,0,0,0-.27.53,1.49,1.49,0,0,0,0,.59.9.9,0,0,0,.23.48.75.75,0,0,0,.51.22.92.92,0,0,0,.34-.11,1.63,1.63,0,0,0,.45-.37,2.84,2.84,0,0,0,.41-.67,2.78,2.78,0,0,0,.21-1,5.11,5.11,0,0,0-.12-1.34,8.32,8.32,0,0,0-.62-1.73c-.1.19-.21.39-.34.61l-.33.63a.27.27,0,0,1-.18.12.41.41,0,0,1-.19,0,.23.23,0,0,1-.12-.12.19.19,0,0,1,0-.19l.22-.45c.07-.13.14-.26.21-.37s.13-.24.19-.37l.19-.39a1.86,1.86,0,0,1-.25-.51,2,2,0,0,1-.09-.59,1.74,1.74,0,0,1,.05-.34,1.7,1.7,0,0,1,.18-.39,1,1,0,0,1,.35-.34,1,1,0,0,1,.57-.14.74.74,0,0,1,.54.16.57.57,0,0,1,.19.41,1.35,1.35,0,0,1-.11.56,3,3,0,0,1-.31.59l0,.09a8.35,8.35,0,0,1,.92,1.27,6.43,6.43,0,0,1,.53,1.15,4.11,4.11,0,0,1,.19,1,2.87,2.87,0,0,1-.08.89,13.09,13.09,0,0,0,.87-1.11,8.85,8.85,0,0,0,.64-1,.22.22,0,0,1,.35-.11.27.27,0,0,1,.13.17.31.31,0,0,1,0,.19,9.82,9.82,0,0,1-.82,1.36c-.31.42-.65.84-1,1.26a6.23,6.23,0,0,1-.83.8,4.19,4.19,0,0,1-1,.59Z"/><path class="cls-6" d="M420,146.41c-.08.17-.19.4-.34.69s-.32.6-.52.93-.42.66-.66,1a8.69,8.69,0,0,1-.73.92,4.71,4.71,0,0,1-.76.68,1.36,1.36,0,0,1-.74.26.88.88,0,0,1-.51-.12.94.94,0,0,1-.34-.37,1.64,1.64,0,0,1-.18-.59,3.13,3.13,0,0,1,0-.75.66.66,0,0,1,0-.14l0-.14a9.46,9.46,0,0,1-.58.79,6.77,6.77,0,0,1-.61.67,3.59,3.59,0,0,1-.62.48,1.3,1.3,0,0,1-.59.17.84.84,0,0,1-.51-.12,1,1,0,0,1-.35-.37,1.64,1.64,0,0,1-.18-.59,3.13,3.13,0,0,1,0-.75,6.23,6.23,0,0,1,.23-1c.12-.37.25-.73.39-1.09s.3-.72.45-1.06.29-.65.4-.92a4.88,4.88,0,0,0,.24-.7c0-.18,0-.31,0-.38s0-.13.1-.21a1.18,1.18,0,0,1,.49-.13,1.44,1.44,0,0,1,.62.13.91.91,0,0,1,.45.59,1.92,1.92,0,0,1-.05,1.05,8.88,8.88,0,0,1-.49,1.27c-.21.45-.44.88-.68,1.32s-.45.82-.61,1.15a3,3,0,0,0-.28.82q0,.3.3.27c.12,0,.29-.13.52-.37a7.93,7.93,0,0,0,.72-.88c.25-.35.49-.72.74-1.1s.44-.74.59-1.05l.44-1,.37-.87a5.22,5.22,0,0,0,.21-.65c0-.18,0-.3,0-.36s0-.13.09-.21a1.23,1.23,0,0,1,.5-.13,1.4,1.4,0,0,1,.61.13.91.91,0,0,1,.45.59,1.91,1.91,0,0,1,0,1.05,9,9,0,0,1-.5,1.27c-.21.45-.44.88-.68,1.32s-.44.82-.6,1.15a2.73,2.73,0,0,0-.28.82q0,.3.3.27a.79.79,0,0,0,.37-.24,4.93,4.93,0,0,0,.52-.56c.18-.24.37-.49.57-.78s.38-.57.56-.86a8.8,8.8,0,0,0,.47-.81,4.77,4.77,0,0,0,.3-.63.22.22,0,0,1,.15-.15.31.31,0,0,1,.19,0,.27.27,0,0,1,.14.12.19.19,0,0,1,0,.19Zm5.21,4.16v0a4.23,4.23,0,0,1-.62.25,1.83,1.83,0,0,1-.5.09,1.23,1.23,0,0,1-.91-.31,1.48,1.48,0,0,1-.42-.71,1.94,1.94,0,0,1,0-.83,1.19,1.19,0,0,1,.28-.63,1.67,1.67,0,0,1,.53-.42.69.69,0,0,1,.4-.07.51.51,0,0,1,.3.13.39.39,0,0,1,.14.3.43.43,0,0,1-.14.32.45.45,0,0,1-.32.14.4.4,0,0,1-.25-.09.37.37,0,0,1-.16-.21,1.21,1.21,0,0,0-.27.53,2,2,0,0,0,0,.59.9.9,0,0,0,.23.48.75.75,0,0,0,.51.22.92.92,0,0,0,.34-.11,1.63,1.63,0,0,0,.45-.37,2.84,2.84,0,0,0,.41-.67,2.78,2.78,0,0,0,.21-1,4.71,4.71,0,0,0-.12-1.34,8.32,8.32,0,0,0-.62-1.73c-.1.19-.21.39-.34.61l-.33.63a.27.27,0,0,1-.17.12.44.44,0,0,1-.2,0,.23.23,0,0,1-.12-.12.19.19,0,0,1,0-.19l.22-.45c.07-.13.14-.26.21-.37s.13-.24.19-.37l.19-.39a1.86,1.86,0,0,1-.25-.51,2,2,0,0,1-.09-.59,1.74,1.74,0,0,1,0-.34,1.7,1.7,0,0,1,.18-.39,1,1,0,0,1,.35-.34,1,1,0,0,1,.57-.14.74.74,0,0,1,.54.16.57.57,0,0,1,.19.41,1.35,1.35,0,0,1-.11.56,2.57,2.57,0,0,1-.31.59l0,.09a8.35,8.35,0,0,1,.92,1.27,6.43,6.43,0,0,1,.53,1.15,4.69,4.69,0,0,1,.2,1,3.2,3.2,0,0,1-.09.89c.33-.38.62-.75.88-1.11a10.24,10.24,0,0,0,.63-1,.22.22,0,0,1,.35-.11.24.24,0,0,1,.13.17.31.31,0,0,1,0,.19,9.82,9.82,0,0,1-.82,1.36c-.31.42-.65.84-1,1.26a6.23,6.23,0,0,1-.83.8,4.19,4.19,0,0,1-1,.59Zm9.07-4.46a.25.25,0,0,1,.08.33,11,11,0,0,1-.59,1.11,10.57,10.57,0,0,1-.79,1.14,9,9,0,0,1-.92,1,5,5,0,0,1-1,.76,3.2,3.2,0,0,1-1.07.38,1.93,1.93,0,0,1-1.08-.13,1.7,1.7,0,0,1-.85-.69,2.38,2.38,0,0,1-.3-1,3.65,3.65,0,0,1,.09-1.13,8.52,8.52,0,0,1,.32-1.07,7.78,7.78,0,0,1,.79-1.53,4.94,4.94,0,0,1,.93-1,3.7,3.7,0,0,1,1-.59,3.14,3.14,0,0,1,1-.19,1.06,1.06,0,0,1,.8.27.91.91,0,0,1,.26.69,2.43,2.43,0,0,1-.23.95,4.37,4.37,0,0,1-.68,1,5.17,5.17,0,0,1-1.05.9,5,5,0,0,1-1.39.61,5.37,5.37,0,0,0-.15.76,3.22,3.22,0,0,0,0,.69,1.23,1.23,0,0,0,.14.51.45.45,0,0,0,.33.25,1.25,1.25,0,0,0,.7-.09,3.39,3.39,0,0,0,.77-.47,5.68,5.68,0,0,0,.77-.72c.25-.28.48-.57.71-.87s.41-.61.59-.91a6.82,6.82,0,0,0,.4-.83.23.23,0,0,1,.16-.16.27.27,0,0,1,.23,0ZM430,147a3.11,3.11,0,0,0-.12.3,4.08,4.08,0,0,0,1.46-.85,4.34,4.34,0,0,0,.85-1.06,2.08,2.08,0,0,0,.28-.91c0-.26-.08-.39-.26-.4s-.6.25-1,.77A10.53,10.53,0,0,0,430,147Zm4.37-.48a.24.24,0,0,1-.14.12.28.28,0,0,1-.18,0,.25.25,0,0,1-.13-.12.21.21,0,0,1,0-.19c0-.09.09-.23.16-.41s.16-.37.24-.58l.24-.59a3,3,0,0,0,.16-.48,1.41,1.41,0,0,1-.58-.51,1.23,1.23,0,0,1-.25-.71,1.25,1.25,0,0,1,.24-.78.81.81,0,0,1,.71-.33.66.66,0,0,1,.51.25.91.91,0,0,1,.23.58c0,.13,0,.3,0,.53a2.58,2.58,0,0,1-.08.56.4.4,0,0,0,.2.07l.27,0a1.64,1.64,0,0,0,.51-.07,2.38,2.38,0,0,0,.32-.16l.27-.15a.7.7,0,0,1,.35-.08,1.29,1.29,0,0,1,.59.15.9.9,0,0,1,.43.57,1.91,1.91,0,0,1,0,1.05,9,9,0,0,1-.5,1.27c-.21.45-.44.88-.68,1.32s-.44.82-.6,1.15a2.47,2.47,0,0,0-.28.82q0,.3.3.27a.79.79,0,0,0,.37-.24,4.16,4.16,0,0,0,.51-.56c.19-.24.38-.49.58-.78s.38-.57.56-.86a8.8,8.8,0,0,0,.47-.81,4.77,4.77,0,0,0,.3-.63.22.22,0,0,1,.15-.15.31.31,0,0,1,.19,0,.27.27,0,0,1,.14.12.19.19,0,0,1,0,.19c-.08.17-.19.4-.34.69s-.32.6-.52.93-.42.66-.66,1a10.19,10.19,0,0,1-.73.92,4.71,4.71,0,0,1-.76.68,1.36,1.36,0,0,1-.74.26.86.86,0,0,1-.51-.12.87.87,0,0,1-.34-.37,1.64,1.64,0,0,1-.18-.59,3.13,3.13,0,0,1,0-.75,5.45,5.45,0,0,1,.28-1.22c.15-.44.31-.86.49-1.28s.35-.81.51-1.17a8.41,8.41,0,0,0,.37-.93,2.41,2.41,0,0,1-.7.14,2.84,2.84,0,0,1-.77-.08c0,.06-.09.19-.16.37s-.15.38-.24.59l-.27.62c-.09.2-.16.36-.22.47Zm10.47-2.29a3.07,3.07,0,0,1,0,1.09,8.49,8.49,0,0,1-.39,1.4,9.3,9.3,0,0,1-.73,1.49,7.87,7.87,0,0,1-1,1.34,4.74,4.74,0,0,1-1.21,1,2.73,2.73,0,0,1-1.35.36,1.69,1.69,0,0,1-1.07-.28,1.29,1.29,0,0,1-.45-.74,2.86,2.86,0,0,1,0-1,8.52,8.52,0,0,1,.31-1.23c.14-.42.29-.83.46-1.25s.31-.8.44-1.14.22-.63.29-.87.06-.4,0-.46,0-.13.09-.21a1.09,1.09,0,0,1,.5-.13,1.27,1.27,0,0,1,.61.13.88.88,0,0,1,.45.59,1.91,1.91,0,0,1,0,1,9.08,9.08,0,0,1-.49,1.29c-.21.45-.43.89-.66,1.33a11.45,11.45,0,0,0-.54,1.2,1.93,1.93,0,0,0-.17.86c0,.21.19.32.5.32a1.17,1.17,0,0,0,.85-.45,5.12,5.12,0,0,0,.75-1.14,10.76,10.76,0,0,0,.61-1.49,15.64,15.64,0,0,0,.44-1.52,9.38,9.38,0,0,0,.24-1.23,1.32,1.32,0,0,0,0-.6c0-.06,0-.13.13-.21a1,1,0,0,1,.48-.13,1.07,1.07,0,0,1,.56.13.89.89,0,0,1,.4.59Zm3.6-1.49q0,.12-.24.12a1.42,1.42,0,0,1-.51-.11,1.7,1.7,0,0,1-.51-.36.81.81,0,0,1-.23-.61.72.72,0,0,1,.08-.27l.2-.37c.08-.12.14-.24.2-.35a.58.58,0,0,0,.09-.25c0-.07.08-.1.22-.1a1.42,1.42,0,0,1,.5.11,1.51,1.51,0,0,1,.49.36.84.84,0,0,1,.22.6.51.51,0,0,1-.08.25l-.17.34a3,3,0,0,0-.18.36.63.63,0,0,0-.08.28Zm1.06,3.63a.19.19,0,0,0,0-.19.27.27,0,0,0-.14-.12.31.31,0,0,0-.19,0,.22.22,0,0,0-.15.15,4.77,4.77,0,0,1-.3.63c-.14.26-.29.53-.47.81s-.36.57-.56.86-.39.54-.58.78a4.16,4.16,0,0,1-.51.56.71.71,0,0,1-.37.24c-.23,0-.33-.07-.31-.27a2.8,2.8,0,0,1,.29-.82c.16-.33.36-.72.6-1.15s.47-.87.68-1.32a7.83,7.83,0,0,0,.49-1.27,1.83,1.83,0,0,0,0-1.05.91.91,0,0,0-.45-.59,1.4,1.4,0,0,0-.61-.13,1.18,1.18,0,0,0-.5.13q-.19.12-.09.21a.42.42,0,0,1,0,.38,4.66,4.66,0,0,1-.23.7l-.4.92c-.16.34-.31.69-.45,1.06a10.9,10.9,0,0,0-.39,1.09,5.36,5.36,0,0,0-.23,1,3.13,3.13,0,0,0,0,.75,1.87,1.87,0,0,0,.17.59,1,1,0,0,0,.35.37.84.84,0,0,0,.51.12,1.36,1.36,0,0,0,.74-.26,5.17,5.17,0,0,0,.76-.68A10.19,10.19,0,0,0,448,149c.24-.33.45-.66.66-1s.37-.64.52-.93.26-.52.34-.69Zm3.31-1.71a.4.4,0,0,1,.06-.22.73.73,0,0,1,.17-.18.25.25,0,0,0-.23-.18.66.66,0,0,0-.46.19,3,3,0,0,0-.54.57,8.42,8.42,0,0,0-.6.93c-.2.37-.41.78-.62,1.23a5.87,5.87,0,0,0-.32,1,5,5,0,0,0-.14,1,2.14,2.14,0,0,0,.08.79.52.52,0,0,0,.38.39,1.25,1.25,0,0,0,.7-.09,3.39,3.39,0,0,0,.77-.47,5.68,5.68,0,0,0,.77-.72c.25-.28.49-.57.71-.87a10.74,10.74,0,0,0,.59-.91,6.82,6.82,0,0,0,.4-.83.26.26,0,0,1,.15-.16.34.34,0,0,1,.22,0,.23.23,0,0,1,.11.31,10.93,10.93,0,0,1-.59,1.1,10.72,10.72,0,0,1-.77,1.13,10.17,10.17,0,0,1-.93,1,4.81,4.81,0,0,1-1,.78,3.2,3.2,0,0,1-1.08.39,2,2,0,0,1-1.09-.13,1.63,1.63,0,0,1-.84-.69,2.34,2.34,0,0,1-.31-1,3.61,3.61,0,0,1,.09-1.12,7.1,7.1,0,0,1,.33-1.07,7.37,7.37,0,0,1,.79-1.54,4.81,4.81,0,0,1,.92-1.05,3.25,3.25,0,0,1,1-.59,3.19,3.19,0,0,1,1.05-.16,1.92,1.92,0,0,1,.38.07,1.12,1.12,0,0,1,.37.17,1,1,0,0,1,.28.32.91.91,0,0,1,.12.49.58.58,0,0,1-.13.43.4.4,0,0,1-.33.15.47.47,0,0,1-.31-.12.37.37,0,0,1-.14-.31Zm4.53-1.92q0,.12-.24.12a1.42,1.42,0,0,1-.51-.11,1.7,1.7,0,0,1-.51-.36.85.85,0,0,1-.23-.61.6.6,0,0,1,.09-.27c.05-.12.12-.24.19-.37a2.57,2.57,0,0,0,.2-.35.58.58,0,0,0,.09-.25c0-.07.08-.1.22-.1a1.35,1.35,0,0,1,1,.47.84.84,0,0,1,.22.6.51.51,0,0,1-.08.25l-.17.34a3,3,0,0,0-.18.36.63.63,0,0,0-.08.28Zm1.06,3.63a.19.19,0,0,0,0-.19.27.27,0,0,0-.14-.12.31.31,0,0,0-.19,0,.22.22,0,0,0-.15.15,4.77,4.77,0,0,1-.3.63,8.8,8.8,0,0,1-.47.81c-.18.29-.36.57-.56.86s-.39.54-.58.78a4.16,4.16,0,0,1-.51.56.71.71,0,0,1-.37.24q-.35,0-.3-.27a2.47,2.47,0,0,1,.28-.82c.16-.33.36-.72.6-1.15s.47-.87.68-1.32a9,9,0,0,0,.5-1.27,1.91,1.91,0,0,0,0-1.05.91.91,0,0,0-.45-.59,1.4,1.4,0,0,0-.61-.13,1.18,1.18,0,0,0-.5.13q-.19.12-.09.21a.42.42,0,0,1,0,.38,4.66,4.66,0,0,1-.23.7l-.4.92c-.15.34-.3.69-.45,1.06a10.9,10.9,0,0,0-.39,1.09,5.36,5.36,0,0,0-.23,1,3.13,3.13,0,0,0,0,.75,1.64,1.64,0,0,0,.18.59.87.87,0,0,0,.34.37.84.84,0,0,0,.51.12,1.36,1.36,0,0,0,.74-.26,4.71,4.71,0,0,0,.76-.68,10.19,10.19,0,0,0,.73-.92q.36-.5.66-1c.2-.33.37-.64.52-.93s.26-.52.34-.69Zm4.22-1.85a.5.5,0,0,1-.09.34.39.39,0,0,1-.37.23.47.47,0,0,1-.31-.12.37.37,0,0,1-.14-.31.4.4,0,0,1,.06-.22.73.73,0,0,1,.17-.18q-.12-.21-.27-.21a.56.56,0,0,0-.33.13,1.61,1.61,0,0,0-.36.34c-.13.14-.25.29-.37.43a7.88,7.88,0,0,0-.59.93,8.08,8.08,0,0,0-.51,1.07,8.29,8.29,0,0,0-.36,1.1,4.53,4.53,0,0,0-.14,1,1.73,1.73,0,0,0,.13.73.57.57,0,0,0,.44.34.59.59,0,0,0,.5-.2,3.81,3.81,0,0,0,.54-.62c.18-.26.36-.54.53-.84a8.81,8.81,0,0,0,.45-.83.73.73,0,0,1-.42-.44,1.16,1.16,0,0,1-.08-.61,1.06,1.06,0,0,1,.24-.54.6.6,0,0,1,.49-.24h.26a.43.43,0,0,1,.28.16.73.73,0,0,1,.13.45,2.83,2.83,0,0,1-.16.9,2.67,2.67,0,0,0,.95-.16,2,2,0,0,0,.55-.33,1.11,1.11,0,0,0,.27-.34,1.11,1.11,0,0,1,.09-.22.19.19,0,0,1,.14-.12.25.25,0,0,1,.19,0,.27.27,0,0,1,.13.35,1.51,1.51,0,0,1-.37.52,2.39,2.39,0,0,1-.58.4,3.34,3.34,0,0,1-1.56.32c-.14.31-.31.65-.52,1a7.15,7.15,0,0,1-.73,1,4.2,4.2,0,0,1-.91.79,1.67,1.67,0,0,1-1.06.27,1.62,1.62,0,0,1-1.16-.62,2.29,2.29,0,0,1-.45-1.33,5.28,5.28,0,0,1,.12-1.23,6.62,6.62,0,0,1,1.05-2.44,5,5,0,0,1,.86-1,3.76,3.76,0,0,1,1.05-.63,2.84,2.84,0,0,1,1.19-.19,1,1,0,0,1,.46.12,1.18,1.18,0,0,1,.31.27,1,1,0,0,1,.17.34,2.9,2.9,0,0,1,.09.34Zm2.79,2.23a1.76,1.76,0,0,1,.08-1,10.55,10.55,0,0,1,.53-1.46c.22-.53.47-1.07.75-1.63s.52-1.08.75-1.56a11.75,11.75,0,0,0,.5-1.21c.12-.34.14-.55.06-.62s0-.13.1-.21a1.05,1.05,0,0,1,.5-.13,1.22,1.22,0,0,1,.61.13.88.88,0,0,1,.45.59,1.75,1.75,0,0,1-.09,1,11,11,0,0,1-.57,1.41q-.36.76-.81,1.56t-.81,1.5a12.59,12.59,0,0,0-.57,1.24,1,1,0,0,0-.09.76c0,.08,0,.16-.1.24a.62.62,0,0,1-.4.13.85.85,0,0,1-.5-.15,1,1,0,0,1-.39-.61Zm.11,4c0,.07-.07.11-.2.11a1.07,1.07,0,0,1-.44-.1,1.12,1.12,0,0,1-.43-.3.72.72,0,0,1-.2-.53.56.56,0,0,1,.07-.24l.17-.31.17-.3a.49.49,0,0,0,.07-.22c0-.05.07-.08.2-.08a1.06,1.06,0,0,1,.42.1,1.34,1.34,0,0,1,.42.31.77.77,0,0,1,.19.52.46.46,0,0,1-.07.21l-.15.3c-.06.1-.11.2-.16.3a.7.7,0,0,0-.06.23Z"/><path class="cls-7" d="M420,146.41c-.08.17-.19.4-.34.69s-.32.6-.52.93-.42.66-.66,1a8.69,8.69,0,0,1-.73.92,4.71,4.71,0,0,1-.76.68,1.36,1.36,0,0,1-.74.26.88.88,0,0,1-.51-.12.94.94,0,0,1-.34-.37,1.64,1.64,0,0,1-.18-.59,3.13,3.13,0,0,1,0-.75.66.66,0,0,1,0-.14l0-.14a9.46,9.46,0,0,1-.58.79,6.77,6.77,0,0,1-.61.67,3.59,3.59,0,0,1-.62.48,1.3,1.3,0,0,1-.59.17.84.84,0,0,1-.51-.12,1,1,0,0,1-.35-.37,1.64,1.64,0,0,1-.18-.59,3.13,3.13,0,0,1,0-.75,6.23,6.23,0,0,1,.23-1c.12-.37.25-.73.39-1.09s.3-.72.45-1.06.29-.65.4-.92a4.88,4.88,0,0,0,.24-.7c0-.18,0-.31,0-.38s0-.13.1-.21a1.18,1.18,0,0,1,.49-.13,1.44,1.44,0,0,1,.62.13.91.91,0,0,1,.45.59,1.92,1.92,0,0,1-.05,1.05,8.88,8.88,0,0,1-.49,1.27c-.21.45-.44.88-.68,1.32s-.45.82-.61,1.15a3,3,0,0,0-.28.82q0,.3.3.27c.12,0,.29-.13.52-.37a7.93,7.93,0,0,0,.72-.88c.25-.35.49-.72.74-1.1s.44-.74.59-1.05l.44-1,.37-.87a5.22,5.22,0,0,0,.21-.65c0-.18,0-.3,0-.36s0-.13.09-.21a1.23,1.23,0,0,1,.5-.13,1.4,1.4,0,0,1,.61.13.91.91,0,0,1,.45.59,1.91,1.91,0,0,1,0,1.05,9,9,0,0,1-.5,1.27c-.21.45-.44.88-.68,1.32s-.44.82-.6,1.15a2.73,2.73,0,0,0-.28.82q0,.3.3.27a.79.79,0,0,0,.37-.24,4.93,4.93,0,0,0,.52-.56c.18-.24.37-.49.57-.78s.38-.57.56-.86a8.8,8.8,0,0,0,.47-.81,4.77,4.77,0,0,0,.3-.63.22.22,0,0,1,.15-.15.31.31,0,0,1,.19,0,.27.27,0,0,1,.14.12.19.19,0,0,1,0,.19Zm5.21,4.16v0a4.23,4.23,0,0,1-.62.25,1.83,1.83,0,0,1-.5.09,1.23,1.23,0,0,1-.91-.31,1.48,1.48,0,0,1-.42-.71,1.94,1.94,0,0,1,0-.83,1.19,1.19,0,0,1,.28-.63,1.67,1.67,0,0,1,.53-.42.69.69,0,0,1,.4-.07.51.51,0,0,1,.3.13.39.39,0,0,1,.14.3.43.43,0,0,1-.14.32.45.45,0,0,1-.32.14.4.4,0,0,1-.25-.09.37.37,0,0,1-.16-.21,1.21,1.21,0,0,0-.27.53,2,2,0,0,0,0,.59.9.9,0,0,0,.23.48.75.75,0,0,0,.51.22.92.92,0,0,0,.34-.11,1.63,1.63,0,0,0,.45-.37,2.84,2.84,0,0,0,.41-.67,2.78,2.78,0,0,0,.21-1,4.71,4.71,0,0,0-.12-1.34,8.32,8.32,0,0,0-.62-1.73c-.1.19-.21.39-.34.61l-.33.63a.27.27,0,0,1-.17.12.44.44,0,0,1-.2,0,.23.23,0,0,1-.12-.12.19.19,0,0,1,0-.19l.22-.45c.07-.13.14-.26.21-.37s.13-.24.19-.37l.19-.39a1.86,1.86,0,0,1-.25-.51,2,2,0,0,1-.09-.59,1.74,1.74,0,0,1,0-.34,1.7,1.7,0,0,1,.18-.39,1,1,0,0,1,.35-.34,1,1,0,0,1,.57-.14.74.74,0,0,1,.54.16.57.57,0,0,1,.19.41,1.35,1.35,0,0,1-.11.56,2.57,2.57,0,0,1-.31.59l0,.09a8.35,8.35,0,0,1,.92,1.27,6.43,6.43,0,0,1,.53,1.15,4.69,4.69,0,0,1,.2,1,3.2,3.2,0,0,1-.09.89c.33-.38.62-.75.88-1.11a10.24,10.24,0,0,0,.63-1,.22.22,0,0,1,.35-.11.24.24,0,0,1,.13.17.31.31,0,0,1,0,.19,9.82,9.82,0,0,1-.82,1.36c-.31.42-.65.84-1,1.26a6.23,6.23,0,0,1-.83.8,4.19,4.19,0,0,1-1,.59Zm9.07-4.46a.25.25,0,0,1,.08.33,11,11,0,0,1-.59,1.11,10.57,10.57,0,0,1-.79,1.14,9,9,0,0,1-.92,1,5,5,0,0,1-1,.76,3.2,3.2,0,0,1-1.07.38,1.93,1.93,0,0,1-1.08-.13,1.7,1.7,0,0,1-.85-.69,2.38,2.38,0,0,1-.3-1,3.65,3.65,0,0,1,.09-1.13,8.52,8.52,0,0,1,.32-1.07,7.78,7.78,0,0,1,.79-1.53,4.94,4.94,0,0,1,.93-1,3.7,3.7,0,0,1,1-.59,3.14,3.14,0,0,1,1-.19,1.06,1.06,0,0,1,.8.27.91.91,0,0,1,.26.69,2.43,2.43,0,0,1-.23.95,4.37,4.37,0,0,1-.68,1,5.17,5.17,0,0,1-1.05.9,5,5,0,0,1-1.39.61,5.37,5.37,0,0,0-.15.76,3.22,3.22,0,0,0,0,.69,1.23,1.23,0,0,0,.14.51.45.45,0,0,0,.33.25,1.25,1.25,0,0,0,.7-.09,3.39,3.39,0,0,0,.77-.47,5.68,5.68,0,0,0,.77-.72c.25-.28.48-.57.71-.87s.41-.61.59-.91a6.82,6.82,0,0,0,.4-.83.23.23,0,0,1,.16-.16.27.27,0,0,1,.23,0ZM430,147a3.11,3.11,0,0,0-.12.3,4.08,4.08,0,0,0,1.46-.85,4.34,4.34,0,0,0,.85-1.06,2.08,2.08,0,0,0,.28-.91c0-.26-.08-.39-.26-.4s-.6.25-1,.77A10.53,10.53,0,0,0,430,147Zm4.37-.48a.24.24,0,0,1-.14.12.28.28,0,0,1-.18,0,.25.25,0,0,1-.13-.12.21.21,0,0,1,0-.19c0-.09.09-.23.16-.41s.16-.37.24-.58l.24-.59a3,3,0,0,0,.16-.48,1.41,1.41,0,0,1-.58-.51,1.23,1.23,0,0,1-.25-.71,1.25,1.25,0,0,1,.24-.78.81.81,0,0,1,.71-.33.66.66,0,0,1,.51.25.91.91,0,0,1,.23.58c0,.13,0,.3,0,.53a2.58,2.58,0,0,1-.08.56.4.4,0,0,0,.2.07l.27,0a1.64,1.64,0,0,0,.51-.07,2.38,2.38,0,0,0,.32-.16l.27-.15a.7.7,0,0,1,.35-.08,1.29,1.29,0,0,1,.59.15.9.9,0,0,1,.43.57,1.91,1.91,0,0,1,0,1.05,9,9,0,0,1-.5,1.27c-.21.45-.44.88-.68,1.32s-.44.82-.6,1.15a2.47,2.47,0,0,0-.28.82q0,.3.3.27a.79.79,0,0,0,.37-.24,4.16,4.16,0,0,0,.51-.56c.19-.24.38-.49.58-.78s.38-.57.56-.86a8.8,8.8,0,0,0,.47-.81,4.77,4.77,0,0,0,.3-.63.22.22,0,0,1,.15-.15.31.31,0,0,1,.19,0,.27.27,0,0,1,.14.12.19.19,0,0,1,0,.19c-.08.17-.19.4-.34.69s-.32.6-.52.93-.42.66-.66,1a10.19,10.19,0,0,1-.73.92,4.71,4.71,0,0,1-.76.68,1.36,1.36,0,0,1-.74.26.86.86,0,0,1-.51-.12.87.87,0,0,1-.34-.37,1.64,1.64,0,0,1-.18-.59,3.13,3.13,0,0,1,0-.75,5.45,5.45,0,0,1,.28-1.22c.15-.44.31-.86.49-1.28s.35-.81.51-1.17a8.41,8.41,0,0,0,.37-.93,2.41,2.41,0,0,1-.7.14,2.84,2.84,0,0,1-.77-.08c0,.06-.09.19-.16.37s-.15.38-.24.59l-.27.62c-.09.2-.16.36-.22.47Zm10.47-2.29a3.07,3.07,0,0,1,0,1.09,8.49,8.49,0,0,1-.39,1.4,9.3,9.3,0,0,1-.73,1.49,7.87,7.87,0,0,1-1,1.34,4.74,4.74,0,0,1-1.21,1,2.73,2.73,0,0,1-1.35.36,1.69,1.69,0,0,1-1.07-.28,1.29,1.29,0,0,1-.45-.74,2.86,2.86,0,0,1,0-1,8.52,8.52,0,0,1,.31-1.23c.14-.42.29-.83.46-1.25s.31-.8.44-1.14.22-.63.29-.87.06-.4,0-.46,0-.13.09-.21a1.09,1.09,0,0,1,.5-.13,1.27,1.27,0,0,1,.61.13.88.88,0,0,1,.45.59,1.91,1.91,0,0,1,0,1,9.08,9.08,0,0,1-.49,1.29c-.21.45-.43.89-.66,1.33a11.45,11.45,0,0,0-.54,1.2,1.93,1.93,0,0,0-.17.86c0,.21.19.32.5.32a1.17,1.17,0,0,0,.85-.45,5.12,5.12,0,0,0,.75-1.14,10.76,10.76,0,0,0,.61-1.49,15.64,15.64,0,0,0,.44-1.52,9.38,9.38,0,0,0,.24-1.23,1.32,1.32,0,0,0,0-.6c0-.06,0-.13.13-.21a1,1,0,0,1,.48-.13,1.07,1.07,0,0,1,.56.13.89.89,0,0,1,.4.59Zm3.6-1.49q0,.12-.24.12a1.42,1.42,0,0,1-.51-.11,1.7,1.7,0,0,1-.51-.36.81.81,0,0,1-.23-.61.72.72,0,0,1,.08-.27l.2-.37c.08-.12.14-.24.2-.35a.58.58,0,0,0,.09-.25c0-.07.08-.1.22-.1a1.42,1.42,0,0,1,.5.11,1.51,1.51,0,0,1,.49.36.84.84,0,0,1,.22.6.51.51,0,0,1-.08.25l-.17.34a3,3,0,0,0-.18.36.63.63,0,0,0-.08.28Zm1.06,3.63a.19.19,0,0,0,0-.19.27.27,0,0,0-.14-.12.31.31,0,0,0-.19,0,.22.22,0,0,0-.15.15,4.77,4.77,0,0,1-.3.63c-.14.26-.29.53-.47.81s-.36.57-.56.86-.39.54-.58.78a4.16,4.16,0,0,1-.51.56.71.71,0,0,1-.37.24c-.23,0-.33-.07-.31-.27a2.8,2.8,0,0,1,.29-.82c.16-.33.36-.72.6-1.15s.47-.87.68-1.32a7.83,7.83,0,0,0,.49-1.27,1.83,1.83,0,0,0,0-1.05.91.91,0,0,0-.45-.59,1.4,1.4,0,0,0-.61-.13,1.18,1.18,0,0,0-.5.13q-.19.12-.09.21a.42.42,0,0,1,0,.38,4.66,4.66,0,0,1-.23.7l-.4.92c-.16.34-.31.69-.45,1.06a10.9,10.9,0,0,0-.39,1.09,5.36,5.36,0,0,0-.23,1,3.13,3.13,0,0,0,0,.75,1.87,1.87,0,0,0,.17.59,1,1,0,0,0,.35.37.84.84,0,0,0,.51.12,1.36,1.36,0,0,0,.74-.26,5.17,5.17,0,0,0,.76-.68A10.19,10.19,0,0,0,448,149c.24-.33.45-.66.66-1s.37-.64.52-.93.26-.52.34-.69Zm3.31-1.71a.4.4,0,0,1,.06-.22.73.73,0,0,1,.17-.18.25.25,0,0,0-.23-.18.66.66,0,0,0-.46.19,3,3,0,0,0-.54.57,8.42,8.42,0,0,0-.6.93c-.2.37-.41.78-.62,1.23a5.87,5.87,0,0,0-.32,1,5,5,0,0,0-.14,1,2.14,2.14,0,0,0,.08.79.52.52,0,0,0,.38.39,1.25,1.25,0,0,0,.7-.09,3.39,3.39,0,0,0,.77-.47,5.68,5.68,0,0,0,.77-.72c.25-.28.49-.57.71-.87a10.74,10.74,0,0,0,.59-.91,6.82,6.82,0,0,0,.4-.83.26.26,0,0,1,.15-.16.34.34,0,0,1,.22,0,.23.23,0,0,1,.11.31,10.93,10.93,0,0,1-.59,1.1,10.72,10.72,0,0,1-.77,1.13,10.17,10.17,0,0,1-.93,1,4.81,4.81,0,0,1-1,.78,3.2,3.2,0,0,1-1.08.39,2,2,0,0,1-1.09-.13,1.63,1.63,0,0,1-.84-.69,2.34,2.34,0,0,1-.31-1,3.61,3.61,0,0,1,.09-1.12,7.1,7.1,0,0,1,.33-1.07,7.37,7.37,0,0,1,.79-1.54,4.81,4.81,0,0,1,.92-1.05,3.25,3.25,0,0,1,1-.59,3.19,3.19,0,0,1,1.05-.16,1.92,1.92,0,0,1,.38.07,1.12,1.12,0,0,1,.37.17,1,1,0,0,1,.28.32.91.91,0,0,1,.12.49.58.58,0,0,1-.13.43.4.4,0,0,1-.33.15.47.47,0,0,1-.31-.12.37.37,0,0,1-.14-.31Zm4.53-1.92q0,.12-.24.12a1.42,1.42,0,0,1-.51-.11,1.7,1.7,0,0,1-.51-.36.85.85,0,0,1-.23-.61.6.6,0,0,1,.09-.27c.05-.12.12-.24.19-.37a2.57,2.57,0,0,0,.2-.35.58.58,0,0,0,.09-.25c0-.07.08-.1.22-.1a1.35,1.35,0,0,1,1,.47.84.84,0,0,1,.22.6.51.51,0,0,1-.08.25l-.17.34a3,3,0,0,0-.18.36.63.63,0,0,0-.08.28Zm1.06,3.63a.19.19,0,0,0,0-.19.27.27,0,0,0-.14-.12.31.31,0,0,0-.19,0,.22.22,0,0,0-.15.15,4.77,4.77,0,0,1-.3.63,8.8,8.8,0,0,1-.47.81c-.18.29-.36.57-.56.86s-.39.54-.58.78a4.16,4.16,0,0,1-.51.56.71.71,0,0,1-.37.24q-.35,0-.3-.27a2.47,2.47,0,0,1,.28-.82c.16-.33.36-.72.6-1.15s.47-.87.68-1.32a9,9,0,0,0,.5-1.27,1.91,1.91,0,0,0,0-1.05.91.91,0,0,0-.45-.59,1.4,1.4,0,0,0-.61-.13,1.18,1.18,0,0,0-.5.13q-.19.12-.09.21a.42.42,0,0,1,0,.38,4.66,4.66,0,0,1-.23.7l-.4.92c-.15.34-.3.69-.45,1.06a10.9,10.9,0,0,0-.39,1.09,5.36,5.36,0,0,0-.23,1,3.13,3.13,0,0,0,0,.75,1.64,1.64,0,0,0,.18.59.87.87,0,0,0,.34.37.84.84,0,0,0,.51.12,1.36,1.36,0,0,0,.74-.26,4.71,4.71,0,0,0,.76-.68,10.19,10.19,0,0,0,.73-.92q.36-.5.66-1c.2-.33.37-.64.52-.93s.26-.52.34-.69Zm4.22-1.85a.5.5,0,0,1-.09.34.39.39,0,0,1-.37.23.47.47,0,0,1-.31-.12.37.37,0,0,1-.14-.31.4.4,0,0,1,.06-.22.73.73,0,0,1,.17-.18q-.12-.21-.27-.21a.56.56,0,0,0-.33.13,1.61,1.61,0,0,0-.36.34c-.13.14-.25.29-.37.43a7.88,7.88,0,0,0-.59.93,8.08,8.08,0,0,0-.51,1.07,8.29,8.29,0,0,0-.36,1.1,4.53,4.53,0,0,0-.14,1,1.73,1.73,0,0,0,.13.73.57.57,0,0,0,.44.34.59.59,0,0,0,.5-.2,3.81,3.81,0,0,0,.54-.62c.18-.26.36-.54.53-.84a8.81,8.81,0,0,0,.45-.83.73.73,0,0,1-.42-.44,1.16,1.16,0,0,1-.08-.61,1.06,1.06,0,0,1,.24-.54.6.6,0,0,1,.49-.24h.26a.43.43,0,0,1,.28.16.73.73,0,0,1,.13.45,2.83,2.83,0,0,1-.16.9,2.67,2.67,0,0,0,.95-.16,2,2,0,0,0,.55-.33,1.11,1.11,0,0,0,.27-.34,1.11,1.11,0,0,1,.09-.22.19.19,0,0,1,.14-.12.25.25,0,0,1,.19,0,.27.27,0,0,1,.13.35,1.51,1.51,0,0,1-.37.52,2.39,2.39,0,0,1-.58.4,3.34,3.34,0,0,1-1.56.32c-.14.31-.31.65-.52,1a7.15,7.15,0,0,1-.73,1,4.2,4.2,0,0,1-.91.79,1.67,1.67,0,0,1-1.06.27,1.62,1.62,0,0,1-1.16-.62,2.29,2.29,0,0,1-.45-1.33,5.28,5.28,0,0,1,.12-1.23,6.62,6.62,0,0,1,1.05-2.44,5,5,0,0,1,.86-1,3.76,3.76,0,0,1,1.05-.63,2.84,2.84,0,0,1,1.19-.19,1,1,0,0,1,.46.12,1.18,1.18,0,0,1,.31.27,1,1,0,0,1,.17.34,2.9,2.9,0,0,1,.09.34Zm2.79,2.23a1.76,1.76,0,0,1,.08-1,10.55,10.55,0,0,1,.53-1.46c.22-.53.47-1.07.75-1.63s.52-1.08.75-1.56a11.75,11.75,0,0,0,.5-1.21c.12-.34.14-.55.06-.62s0-.13.1-.21a1.05,1.05,0,0,1,.5-.13,1.22,1.22,0,0,1,.61.13.88.88,0,0,1,.45.59,1.75,1.75,0,0,1-.09,1,11,11,0,0,1-.57,1.41q-.36.76-.81,1.56t-.81,1.5a12.59,12.59,0,0,0-.57,1.24,1,1,0,0,0-.09.76c0,.08,0,.16-.1.24a.62.62,0,0,1-.4.13.85.85,0,0,1-.5-.15,1,1,0,0,1-.39-.61Zm.11,4c0,.07-.07.11-.2.11a1.07,1.07,0,0,1-.44-.1,1.12,1.12,0,0,1-.43-.3.72.72,0,0,1-.2-.53.56.56,0,0,1,.07-.24l.17-.31.17-.3a.49.49,0,0,0,.07-.22c0-.05.07-.08.2-.08a1.06,1.06,0,0,1,.42.1,1.34,1.34,0,0,1,.42.31.77.77,0,0,1,.19.52.46.46,0,0,1-.07.21l-.15.3c-.06.1-.11.2-.16.3a.7.7,0,0,0-.06.23Z"/><path class="cls-8" d="M168,131.23l2.65-.33q.45,3.16,3,3.16a2.82,2.82,0,0,0,2-.64,2.1,2.1,0,0,0,.71-1.61,1.7,1.7,0,0,0-.25-.95,1.83,1.83,0,0,0-.76-.65,20.88,20.88,0,0,0-2.46-.85,8.15,8.15,0,0,1-2.56-1.15,4.34,4.34,0,0,1-1.29-1.62,5,5,0,0,1-.48-2.17,4.83,4.83,0,0,1,.62-2.43,4,4,0,0,1,1.7-1.64,5.93,5.93,0,0,1,2.67-.55,4.72,4.72,0,0,1,5.17,5l-2.75.14a2.93,2.93,0,0,0-.78-1.85,2.52,2.52,0,0,0-1.71-.53,2.81,2.81,0,0,0-1.71.46,1.37,1.37,0,0,0-.6,1.13,1.41,1.41,0,0,0,.55,1.13,8.17,8.17,0,0,0,2.5,1,10.41,10.41,0,0,1,3,1.26,4.3,4.3,0,0,1,1.4,1.7,6,6,0,0,1,.48,2.53,5.18,5.18,0,0,1-1.32,3.61,5.3,5.3,0,0,1-4.14,1.47q-5,0-5.54-5.65Zm19.75,5.37v-1.79a4.09,4.09,0,0,1-1.42,1.52,3.4,3.4,0,0,1-1.84.55,3,3,0,0,1-2.87-1.95,7.64,7.64,0,0,1-.38-2.72v-7.58h2.61v5.5a21.75,21.75,0,0,0,.12,3,1.59,1.59,0,0,0,.52,1,1.44,1.44,0,0,0,1,.35,1.89,1.89,0,0,0,1.21-.46,2.2,2.2,0,0,0,.72-1.17,17,17,0,0,0,.17-3.15v-5.05h2.61v12Zm7.59,0H192.7v-12h2.43v1.7a5,5,0,0,1,1.11-1.59,1.74,1.74,0,0,1,1.13-.39,2.82,2.82,0,0,1,1.7.6l-.81,2.76a2,2,0,0,0-1.22-.52,1.34,1.34,0,0,0-1,.4,2.7,2.7,0,0,0-.59,1.45,27.13,27.13,0,0,0-.18,3.86v3.7Zm13.43-8.42-2.56.55c-.19-1.26-.78-1.89-1.78-1.89a1.83,1.83,0,0,0-1.56.81,4.88,4.88,0,0,0-.59,2.75,5.68,5.68,0,0,0,.59,3,1.8,1.8,0,0,0,1.57.89,1.55,1.55,0,0,0,1.2-.51,3.32,3.32,0,0,0,.68-1.78l2.56.53q-.78,4.34-4.54,4.34a3.91,3.91,0,0,1-3.55-1.83,8.09,8.09,0,0,1-1.16-4.4,7.3,7.3,0,0,1,1.31-4.69,4.62,4.62,0,0,1,6.27-.69,5.32,5.32,0,0,1,1.56,2.91Zm1.34,2.27a7.2,7.2,0,0,1,.7-3.21,5.13,5.13,0,0,1,1.82-2.17,4.62,4.62,0,0,1,2.54-.72,4.33,4.33,0,0,1,3.71,1.86,7.12,7.12,0,0,1,1.36,4.34,7.72,7.72,0,0,1-.71,3.34,5.27,5.27,0,0,1-1.85,2.24,4.45,4.45,0,0,1-2.5.75,4.6,4.6,0,0,1-3.63-1.67,7.07,7.07,0,0,1-1.44-4.76Zm2.65.16a4.49,4.49,0,0,0,.71,2.75,2.13,2.13,0,0,0,1.73.94,2.08,2.08,0,0,0,1.68-.94,4.58,4.58,0,0,0,.7-2.77,4.41,4.41,0,0,0-.71-2.72,2,2,0,0,0-3.4,0,4.52,4.52,0,0,0-.71,2.74Zm9.53,6V120.08h2.61V136.6Zm4.64-6.15a7.34,7.34,0,0,1,.7-3.21,5.2,5.2,0,0,1,1.82-2.17,4.64,4.64,0,0,1,2.54-.72,4.34,4.34,0,0,1,3.72,1.86,7.18,7.18,0,0,1,1.35,4.34,7.71,7.71,0,0,1-.7,3.34,5.34,5.34,0,0,1-1.85,2.24,4.48,4.48,0,0,1-2.51.75,4.61,4.61,0,0,1-3.63-1.67,7.07,7.07,0,0,1-1.44-4.76Zm2.65.16a4.43,4.43,0,0,0,.72,2.75,2.12,2.12,0,0,0,1.72.94,2.08,2.08,0,0,0,1.69-.94,4.65,4.65,0,0,0,.7-2.77,4.48,4.48,0,0,0-.71-2.72,2.13,2.13,0,0,0-1.72-.94,2.11,2.11,0,0,0-1.69.94,4.52,4.52,0,0,0-.71,2.74Zm9.33-6h2.42v1.63a4.69,4.69,0,0,1,1.41-1.43,3.06,3.06,0,0,1,1.66-.48,2.9,2.9,0,0,1,1.64.47,3.39,3.39,0,0,1,1.13,1.43,5,5,0,0,1,1.4-1.43,3,3,0,0,1,1.6-.47,3.08,3.08,0,0,1,1.73.48,3,3,0,0,1,1.1,1.37,7.5,7.5,0,0,1,.38,2.74v7.66h-2.61v-6.85a5.92,5.92,0,0,0-.32-2.39,1.11,1.11,0,0,0-1.06-.59,1.63,1.63,0,0,0-1.41.83,6.63,6.63,0,0,0-.53,3.25v5.75h-2.61V130a8.55,8.55,0,0,0-.22-2.51,1.09,1.09,0,0,0-1.13-.75,1.66,1.66,0,0,0-1.06.39,2.06,2.06,0,0,0-.7,1.12,10.3,10.3,0,0,0-.21,2.5v5.82h-2.61v-12Zm16.91,12V120.08h2.61V126a4.56,4.56,0,0,1,1.31-1.26,3.09,3.09,0,0,1,1.54-.41,3.58,3.58,0,0,1,2.93,1.57,7.6,7.6,0,0,1,1.19,4.63,7.8,7.8,0,0,1-1.22,4.69,3.56,3.56,0,0,1-2.88,1.64,3.05,3.05,0,0,1-1.66-.52,4.25,4.25,0,0,1-1.39-1.51v1.75Zm2.59-6.24a7.15,7.15,0,0,0,.3,2.36,2.59,2.59,0,0,0,.83,1.24,1.78,1.78,0,0,0,1.14.43,1.75,1.75,0,0,0,1.46-.9,5.25,5.25,0,0,0,.61-2.85,5.46,5.46,0,0,0-.62-3,1.81,1.81,0,0,0-1.55-.91,1.85,1.85,0,0,0-1.54.88,4.71,4.71,0,0,0-.63,2.71Zm9.09-7.35v-2.93h2.61V123Zm0,13.59v-12h2.61v12Zm7.23-8.33-2.36-.48a4.71,4.71,0,0,1,1.41-2.64,4.42,4.42,0,0,1,2.83-.8,5.42,5.42,0,0,1,2.51.46,2.74,2.74,0,0,1,1.24,1.26,7.82,7.82,0,0,1,.37,2.89l0,3.7a15.88,15.88,0,0,0,.13,2.32,7.94,7.94,0,0,0,.45,1.62h-2.56l-.34-1.3a4.71,4.71,0,0,1-1.43,1.18,3.35,3.35,0,0,1-1.62.4,3.06,3.06,0,0,1-2.34-1,3.57,3.57,0,0,1-.92-2.56,4,4,0,0,1,.38-1.78,3,3,0,0,1,1.05-1.21,6.84,6.84,0,0,1,2.17-.8,12.79,12.79,0,0,0,2.52-.78,3.87,3.87,0,0,0-.14-1.3,1.12,1.12,0,0,0-.52-.51,2.32,2.32,0,0,0-1.06-.2,1.73,1.73,0,0,0-1.1.32,2.27,2.27,0,0,0-.64,1.18Zm3.46,2.56a12,12,0,0,1-1.55.48,3.71,3.71,0,0,0-1.59.7,1.37,1.37,0,0,0-.37,1,1.71,1.71,0,0,0,.41,1.16,1.34,1.34,0,0,0,1,.47,2,2,0,0,0,1.1-.38,2,2,0,0,0,.75-.9,5.77,5.77,0,0,0,.21-1.89v-.64Zm14,5.77h-2.61v-6.12a12.48,12.48,0,0,0-.15-2.44,1.66,1.66,0,0,0-.54-.94,1.4,1.4,0,0,0-.91-.33,1.79,1.79,0,0,0-1.18.43,2.17,2.17,0,0,0-.74,1.16,11.59,11.59,0,0,0-.22,2.81v5.43h-2.61v-12h2.43v1.75a4.7,4.7,0,0,1,1.44-1.52,3.28,3.28,0,0,1,1.79-.51,3,3,0,0,1,3,2.11,9.28,9.28,0,0,1,.3,2.7v7.44Zm4.61-8.33-2.35-.48a4.6,4.6,0,0,1,1.41-2.64,4.4,4.4,0,0,1,2.83-.8,5.38,5.38,0,0,1,2.5.46,2.74,2.74,0,0,1,1.24,1.26,7.61,7.61,0,0,1,.37,2.89l0,3.7a16.21,16.21,0,0,0,.12,2.32,7.4,7.4,0,0,0,.46,1.62h-2.57l-.33-1.3a4.83,4.83,0,0,1-1.43,1.18,3.41,3.41,0,0,1-1.62.4,3.09,3.09,0,0,1-2.35-1,3.56,3.56,0,0,1-.91-2.56,4,4,0,0,1,.37-1.78,3,3,0,0,1,1.05-1.21,7,7,0,0,1,2.17-.8,12.34,12.34,0,0,0,2.52-.78,3.61,3.61,0,0,0-.14-1.3,1.05,1.05,0,0,0-.51-.51,2.37,2.37,0,0,0-1.07-.2,1.7,1.7,0,0,0-1.09.32,2.27,2.27,0,0,0-.65,1.18Zm3.46,2.56a12,12,0,0,1-1.55.48,3.72,3.72,0,0,0-1.58.7,1.37,1.37,0,0,0-.37,1,1.66,1.66,0,0,0,.41,1.16,1.33,1.33,0,0,0,1,.47,1.9,1.9,0,0,0,1.09-.38,2.1,2.1,0,0,0,.76-.9,6.14,6.14,0,0,0,.2-1.89v-.64Zm19.37,5.77h-2.43v-1.75a4.31,4.31,0,0,1-1.4,1.52,3.1,3.1,0,0,1-1.67.51,3.53,3.53,0,0,1-2.86-1.64,7.8,7.8,0,0,1-1.22-4.69,7.61,7.61,0,0,1,1.19-4.64,3.57,3.57,0,0,1,2.94-1.56,3.08,3.08,0,0,1,1.53.41A4.56,4.56,0,0,1,317,126v-5.94h2.61V136.6Zm-6.93-6.24a8.08,8.08,0,0,0,.28,2.43,2.52,2.52,0,0,0,.78,1.2,1.9,1.9,0,0,0,1.16.4,1.79,1.79,0,0,0,1.48-.93,5,5,0,0,0,.63-2.8,5.5,5.5,0,0,0-.61-3,1.78,1.78,0,0,0-3.09,0,4.72,4.72,0,0,0-.63,2.7Zm15.19,2.44,2.58.53a5.12,5.12,0,0,1-1.61,2.68,4.16,4.16,0,0,1-2.67.87,4.06,4.06,0,0,1-3.36-1.46,7.19,7.19,0,0,1-1.4-4.74,7.68,7.68,0,0,1,1.4-4.81,3.77,3.77,0,0,1,3.09-1.52,3.91,3.91,0,0,1,3.3,1.56,8.47,8.47,0,0,1,1.38,5.25v.37h-6.51a3.62,3.62,0,0,0,.64,2.2,1.84,1.84,0,0,0,1.49.77c.84,0,1.4-.57,1.68-1.7Zm.14-3.21a3.56,3.56,0,0,0-.6-2.11,1.66,1.66,0,0,0-2.74,0,3.28,3.28,0,0,0-.56,2.08Zm16.27.94v-2.79h5.91v6.58a7.39,7.39,0,0,1-2.53,1.81,7.79,7.79,0,0,1-3.28.75,6.45,6.45,0,0,1-3.54-1,6.76,6.76,0,0,1-2.43-3,11.17,11.17,0,0,1-.89-4.62,11,11,0,0,1,.9-4.66,6.81,6.81,0,0,1,2.36-2.9,6.11,6.11,0,0,1,3.46-1,5.76,5.76,0,0,1,3.88,1.24,5.87,5.87,0,0,1,1.88,3.63l-2.7.63a3.55,3.55,0,0,0-1.11-2,3,3,0,0,0-1.95-.68,3.44,3.44,0,0,0-2.83,1.36,6.56,6.56,0,0,0-1.08,4.13,7.42,7.42,0,0,0,1.17,4.53,3.23,3.23,0,0,0,2.72,1.34,4.19,4.19,0,0,0,1.66-.38,5.3,5.3,0,0,0,1.54-1v-2.09Zm10.36-2.26-2.35-.48a4.6,4.6,0,0,1,1.41-2.64,4.4,4.4,0,0,1,2.83-.8,5.45,5.45,0,0,1,2.51.46,2.77,2.77,0,0,1,1.23,1.26,7.61,7.61,0,0,1,.37,2.89l0,3.7a16.21,16.21,0,0,0,.12,2.32,7.4,7.4,0,0,0,.46,1.62h-2.56l-.34-1.3a4.83,4.83,0,0,1-1.43,1.18,3.41,3.41,0,0,1-1.62.4,3.09,3.09,0,0,1-2.35-1,3.56,3.56,0,0,1-.91-2.56,4,4,0,0,1,.37-1.78,3,3,0,0,1,1.05-1.21,7,7,0,0,1,2.18-.8,12.41,12.41,0,0,0,2.51-.78,3.61,3.61,0,0,0-.14-1.3,1.05,1.05,0,0,0-.51-.51,2.35,2.35,0,0,0-1.06-.2,1.72,1.72,0,0,0-1.1.32,2.27,2.27,0,0,0-.65,1.18Zm3.46,2.56a12,12,0,0,1-1.55.48,3.72,3.72,0,0,0-1.58.7,1.37,1.37,0,0,0-.37,1,1.71,1.71,0,0,0,.41,1.16,1.34,1.34,0,0,0,1,.47,1.9,1.9,0,0,0,1.09-.38,2.1,2.1,0,0,0,.76-.9,5.84,5.84,0,0,0,.2-1.89v-.64Zm4.2,2.36,2.61-.49a2,2,0,0,0,2.1,1.9,2.2,2.2,0,0,0,1.39-.37,1.12,1.12,0,0,0,.46-.94.88.88,0,0,0-.21-.62,1.87,1.87,0,0,0-.84-.39,11.49,11.49,0,0,1-4.08-1.62,3.33,3.33,0,0,1-1.08-2.63,3.57,3.57,0,0,1,1.06-2.68,4.34,4.34,0,0,1,3.09-1,4.85,4.85,0,0,1,2.93.75,4.1,4.1,0,0,1,1.41,2.43l-2.44.56a1.71,1.71,0,0,0-1.85-1.46,2.57,2.57,0,0,0-1.37.28.86.86,0,0,0-.41.73.79.79,0,0,0,.37.66,10,10,0,0,0,2.3.81,6.21,6.21,0,0,1,3,1.47,3.37,3.37,0,0,1,.77,2.31,3.77,3.77,0,0,1-1.19,2.86,4.58,4.58,0,0,1-3.28,1.13,4.94,4.94,0,0,1-3.11-.94,4.57,4.57,0,0,1-1.59-2.75Zm16-2,2.66-.33c.3,2.11,1.28,3.16,3,3.16a2.78,2.78,0,0,0,1.95-.64,2.08,2.08,0,0,0,.72-1.61,1.79,1.79,0,0,0-.25-.95,1.89,1.89,0,0,0-.76-.65,21.63,21.63,0,0,0-2.46-.85,8,8,0,0,1-2.56-1.15,4.34,4.34,0,0,1-1.29-1.62,5,5,0,0,1-.48-2.17,4.82,4.82,0,0,1,.61-2.43,4.07,4.07,0,0,1,1.7-1.64,6,6,0,0,1,2.68-.55,4.7,4.7,0,0,1,5.16,5l-2.75.14a2.88,2.88,0,0,0-.78-1.85,2.52,2.52,0,0,0-1.71-.53A2.81,2.81,0,0,0,382,123a1.37,1.37,0,0,0-.6,1.13,1.44,1.44,0,0,0,.55,1.13,8.29,8.29,0,0,0,2.5,1,10.16,10.16,0,0,1,3,1.26,4.4,4.4,0,0,1,1.41,1.7,6,6,0,0,1,.48,2.53,5.18,5.18,0,0,1-1.32,3.61,5.34,5.34,0,0,1-4.15,1.47c-3.32,0-5.16-1.88-5.54-5.65Zm13.27,5.37v-3.16h2.58v3.16Zm17.51,0h-3L405,132.86h-5.44l-1.12,3.74h-2.91l5.27-16.52h2.91l5.41,16.52Zm-5-6.53-1.87-6.13-1.84,6.13Zm6.42,6.53v-3.16h2.58v3.16Zm10.57,0V120.08h10v2.79H423.8v3.65h6.81v2.79H423.8v4.5h7.57v2.79Zm12.57,0v-3.16h2.59v3.16Zm4.62-5.37,2.65-.33q.45,3.16,3,3.16a2.82,2.82,0,0,0,2-.64,2.1,2.1,0,0,0,.71-1.61,1.7,1.7,0,0,0-.25-.95,1.83,1.83,0,0,0-.76-.65,20.88,20.88,0,0,0-2.46-.85,8.15,8.15,0,0,1-2.56-1.15,4.34,4.34,0,0,1-1.29-1.62,5,5,0,0,1-.48-2.17,4.83,4.83,0,0,1,.62-2.43,4,4,0,0,1,1.7-1.64,5.93,5.93,0,0,1,2.67-.55,4.72,4.72,0,0,1,5.17,5l-2.75.14a2.93,2.93,0,0,0-.78-1.85,2.52,2.52,0,0,0-1.71-.53A2.81,2.81,0,0,0,442,123a1.37,1.37,0,0,0-.6,1.13,1.41,1.41,0,0,0,.55,1.13,8.29,8.29,0,0,0,2.5,1,10.29,10.29,0,0,1,3,1.26,4.3,4.3,0,0,1,1.4,1.7,6,6,0,0,1,.49,2.53,5.19,5.19,0,0,1-1.33,3.61,5.3,5.3,0,0,1-4.14,1.47q-5,0-5.54-5.65Zm13.26,5.37v-3.16h2.59v3.16Zm5.31,0V120.08h4.4a13.21,13.21,0,0,1,3.21.24,3.6,3.6,0,0,1,2,1.63,5.92,5.92,0,0,1,.79,3.23,6.1,6.1,0,0,1-.68,3,4,4,0,0,1-1.69,1.7,8.78,8.78,0,0,1-3.5.49h-1.8v6.23Zm2.72-13.73v4.71h1.52a6.36,6.36,0,0,0,2.08-.22,1.81,1.81,0,0,0,.9-.77,2.51,2.51,0,0,0,.35-1.38,2.54,2.54,0,0,0-.36-1.39,1.82,1.82,0,0,0-.9-.76,8.51,8.51,0,0,0-2.25-.19ZM467,136.6v-3.16h2.59v3.16Z"/><path class="cls-7" d="M168,131.23l2.65-.33q.45,3.16,3,3.16a2.82,2.82,0,0,0,2-.64,2.1,2.1,0,0,0,.71-1.61,1.7,1.7,0,0,0-.25-.95,1.83,1.83,0,0,0-.76-.65,20.88,20.88,0,0,0-2.46-.85,8.15,8.15,0,0,1-2.56-1.15,4.34,4.34,0,0,1-1.29-1.62,5,5,0,0,1-.48-2.17,4.83,4.83,0,0,1,.62-2.43,4,4,0,0,1,1.7-1.64,5.93,5.93,0,0,1,2.67-.55,4.72,4.72,0,0,1,5.17,5l-2.75.14a2.93,2.93,0,0,0-.78-1.85,2.52,2.52,0,0,0-1.71-.53,2.81,2.81,0,0,0-1.71.46,1.37,1.37,0,0,0-.6,1.13,1.41,1.41,0,0,0,.55,1.13,8.17,8.17,0,0,0,2.5,1,10.41,10.41,0,0,1,3,1.26,4.3,4.3,0,0,1,1.4,1.7,6,6,0,0,1,.48,2.53,5.18,5.18,0,0,1-1.32,3.61,5.3,5.3,0,0,1-4.14,1.47q-5,0-5.54-5.65Zm19.75,5.37v-1.79a4.09,4.09,0,0,1-1.42,1.52,3.4,3.4,0,0,1-1.84.55,3,3,0,0,1-2.87-1.95,7.64,7.64,0,0,1-.38-2.72v-7.58h2.61v5.5a21.75,21.75,0,0,0,.12,3,1.59,1.59,0,0,0,.52,1,1.44,1.44,0,0,0,1,.35,1.89,1.89,0,0,0,1.21-.46,2.2,2.2,0,0,0,.72-1.17,17,17,0,0,0,.17-3.15v-5.05h2.61v12Zm7.59,0H192.7v-12h2.43v1.7a5,5,0,0,1,1.11-1.59,1.74,1.74,0,0,1,1.13-.39,2.82,2.82,0,0,1,1.7.6l-.81,2.76a2,2,0,0,0-1.22-.52,1.34,1.34,0,0,0-1,.4,2.7,2.7,0,0,0-.59,1.45,27.13,27.13,0,0,0-.18,3.86v3.7Zm13.43-8.42-2.56.55c-.19-1.26-.78-1.89-1.78-1.89a1.83,1.83,0,0,0-1.56.81,4.88,4.88,0,0,0-.59,2.75,5.68,5.68,0,0,0,.59,3,1.8,1.8,0,0,0,1.57.89,1.55,1.55,0,0,0,1.2-.51,3.32,3.32,0,0,0,.68-1.78l2.56.53q-.78,4.34-4.54,4.34a3.91,3.91,0,0,1-3.55-1.83,8.09,8.09,0,0,1-1.16-4.4,7.3,7.3,0,0,1,1.31-4.69,4.62,4.62,0,0,1,6.27-.69,5.32,5.32,0,0,1,1.56,2.91Zm1.34,2.27a7.2,7.2,0,0,1,.7-3.21,5.13,5.13,0,0,1,1.82-2.17,4.62,4.62,0,0,1,2.54-.72,4.33,4.33,0,0,1,3.71,1.86,7.12,7.12,0,0,1,1.36,4.34,7.72,7.72,0,0,1-.71,3.34,5.27,5.27,0,0,1-1.85,2.24,4.45,4.45,0,0,1-2.5.75,4.6,4.6,0,0,1-3.63-1.67,7.07,7.07,0,0,1-1.44-4.76Zm2.65.16a4.49,4.49,0,0,0,.71,2.75,2.13,2.13,0,0,0,1.73.94,2.08,2.08,0,0,0,1.68-.94,4.58,4.58,0,0,0,.7-2.77,4.41,4.41,0,0,0-.71-2.72,2,2,0,0,0-3.4,0,4.52,4.52,0,0,0-.71,2.74Zm9.53,6V120.08h2.61V136.6Zm4.64-6.15a7.34,7.34,0,0,1,.7-3.21,5.2,5.2,0,0,1,1.82-2.17,4.64,4.64,0,0,1,2.54-.72,4.34,4.34,0,0,1,3.72,1.86,7.18,7.18,0,0,1,1.35,4.34,7.71,7.71,0,0,1-.7,3.34,5.34,5.34,0,0,1-1.85,2.24,4.48,4.48,0,0,1-2.51.75,4.61,4.61,0,0,1-3.63-1.67,7.07,7.07,0,0,1-1.44-4.76Zm2.65.16a4.43,4.43,0,0,0,.72,2.75,2.12,2.12,0,0,0,1.72.94,2.08,2.08,0,0,0,1.69-.94,4.65,4.65,0,0,0,.7-2.77,4.48,4.48,0,0,0-.71-2.72,2.13,2.13,0,0,0-1.72-.94,2.11,2.11,0,0,0-1.69.94,4.52,4.52,0,0,0-.71,2.74Zm9.33-6h2.42v1.63a4.69,4.69,0,0,1,1.41-1.43,3.06,3.06,0,0,1,1.66-.48,2.9,2.9,0,0,1,1.64.47,3.39,3.39,0,0,1,1.13,1.43,5,5,0,0,1,1.4-1.43,3,3,0,0,1,1.6-.47,3.08,3.08,0,0,1,1.73.48,3,3,0,0,1,1.1,1.37,7.5,7.5,0,0,1,.38,2.74v7.66h-2.61v-6.85a5.92,5.92,0,0,0-.32-2.39,1.11,1.11,0,0,0-1.06-.59,1.63,1.63,0,0,0-1.41.83,6.63,6.63,0,0,0-.53,3.25v5.75h-2.61V130a8.55,8.55,0,0,0-.22-2.51,1.09,1.09,0,0,0-1.13-.75,1.66,1.66,0,0,0-1.06.39,2.06,2.06,0,0,0-.7,1.12,10.3,10.3,0,0,0-.21,2.5v5.82h-2.61v-12Zm16.91,12V120.08h2.61V126a4.56,4.56,0,0,1,1.31-1.26,3.09,3.09,0,0,1,1.54-.41,3.58,3.58,0,0,1,2.93,1.57,7.6,7.6,0,0,1,1.19,4.63,7.8,7.8,0,0,1-1.22,4.69,3.56,3.56,0,0,1-2.88,1.64,3.05,3.05,0,0,1-1.66-.52,4.25,4.25,0,0,1-1.39-1.51v1.75Zm2.59-6.24a7.15,7.15,0,0,0,.3,2.36,2.59,2.59,0,0,0,.83,1.24,1.78,1.78,0,0,0,1.14.43,1.75,1.75,0,0,0,1.46-.9,5.25,5.25,0,0,0,.61-2.85,5.46,5.46,0,0,0-.62-3,1.81,1.81,0,0,0-1.55-.91,1.85,1.85,0,0,0-1.54.88,4.71,4.71,0,0,0-.63,2.71Zm9.09-7.35v-2.93h2.61V123Zm0,13.59v-12h2.61v12Zm7.23-8.33-2.36-.48a4.71,4.71,0,0,1,1.41-2.64,4.42,4.42,0,0,1,2.83-.8,5.42,5.42,0,0,1,2.51.46,2.74,2.74,0,0,1,1.24,1.26,7.82,7.82,0,0,1,.37,2.89l0,3.7a15.88,15.88,0,0,0,.13,2.32,7.94,7.94,0,0,0,.45,1.62h-2.56l-.34-1.3a4.71,4.71,0,0,1-1.43,1.18,3.35,3.35,0,0,1-1.62.4,3.06,3.06,0,0,1-2.34-1,3.57,3.57,0,0,1-.92-2.56,4,4,0,0,1,.38-1.78,3,3,0,0,1,1.05-1.21,6.84,6.84,0,0,1,2.17-.8,12.79,12.79,0,0,0,2.52-.78,3.87,3.87,0,0,0-.14-1.3,1.12,1.12,0,0,0-.52-.51,2.32,2.32,0,0,0-1.06-.2,1.73,1.73,0,0,0-1.1.32,2.27,2.27,0,0,0-.64,1.18Zm3.46,2.56a12,12,0,0,1-1.55.48,3.71,3.71,0,0,0-1.59.7,1.37,1.37,0,0,0-.37,1,1.71,1.71,0,0,0,.41,1.16,1.34,1.34,0,0,0,1,.47,2,2,0,0,0,1.1-.38,2,2,0,0,0,.75-.9,5.77,5.77,0,0,0,.21-1.89v-.64Zm14,5.77h-2.61v-6.12a12.48,12.48,0,0,0-.15-2.44,1.66,1.66,0,0,0-.54-.94,1.4,1.4,0,0,0-.91-.33,1.79,1.79,0,0,0-1.18.43,2.17,2.17,0,0,0-.74,1.16,11.59,11.59,0,0,0-.22,2.81v5.43h-2.61v-12h2.43v1.75a4.7,4.7,0,0,1,1.44-1.52,3.28,3.28,0,0,1,1.79-.51,3,3,0,0,1,3,2.11,9.28,9.28,0,0,1,.3,2.7v7.44Zm4.61-8.33-2.35-.48a4.6,4.6,0,0,1,1.41-2.64,4.4,4.4,0,0,1,2.83-.8,5.38,5.38,0,0,1,2.5.46,2.74,2.74,0,0,1,1.24,1.26,7.61,7.61,0,0,1,.37,2.89l0,3.7a16.21,16.21,0,0,0,.12,2.32,7.4,7.4,0,0,0,.46,1.62h-2.57l-.33-1.3a4.83,4.83,0,0,1-1.43,1.18,3.41,3.41,0,0,1-1.62.4,3.09,3.09,0,0,1-2.35-1,3.56,3.56,0,0,1-.91-2.56,4,4,0,0,1,.37-1.78,3,3,0,0,1,1.05-1.21,7,7,0,0,1,2.17-.8,12.34,12.34,0,0,0,2.52-.78,3.61,3.61,0,0,0-.14-1.3,1.05,1.05,0,0,0-.51-.51,2.37,2.37,0,0,0-1.07-.2,1.7,1.7,0,0,0-1.09.32,2.27,2.27,0,0,0-.65,1.18Zm3.46,2.56a12,12,0,0,1-1.55.48,3.72,3.72,0,0,0-1.58.7,1.37,1.37,0,0,0-.37,1,1.66,1.66,0,0,0,.41,1.16,1.33,1.33,0,0,0,1,.47,1.9,1.9,0,0,0,1.09-.38,2.1,2.1,0,0,0,.76-.9,6.14,6.14,0,0,0,.2-1.89v-.64Zm19.37,5.77h-2.43v-1.75a4.31,4.31,0,0,1-1.4,1.52,3.1,3.1,0,0,1-1.67.51,3.53,3.53,0,0,1-2.86-1.64,7.8,7.8,0,0,1-1.22-4.69,7.61,7.61,0,0,1,1.19-4.64,3.57,3.57,0,0,1,2.94-1.56,3.08,3.08,0,0,1,1.53.41A4.56,4.56,0,0,1,317,126v-5.94h2.61V136.6Zm-6.93-6.24a8.08,8.08,0,0,0,.28,2.43,2.52,2.52,0,0,0,.78,1.2,1.9,1.9,0,0,0,1.16.4,1.79,1.79,0,0,0,1.48-.93,5,5,0,0,0,.63-2.8,5.5,5.5,0,0,0-.61-3,1.78,1.78,0,0,0-3.09,0,4.72,4.72,0,0,0-.63,2.7Zm15.19,2.44,2.58.53a5.12,5.12,0,0,1-1.61,2.68,4.16,4.16,0,0,1-2.67.87,4.06,4.06,0,0,1-3.36-1.46,7.19,7.19,0,0,1-1.4-4.74,7.68,7.68,0,0,1,1.4-4.81,3.77,3.77,0,0,1,3.09-1.52,3.91,3.91,0,0,1,3.3,1.56,8.47,8.47,0,0,1,1.38,5.25v.37h-6.51a3.62,3.62,0,0,0,.64,2.2,1.84,1.84,0,0,0,1.49.77c.84,0,1.4-.57,1.68-1.7Zm.14-3.21a3.56,3.56,0,0,0-.6-2.11,1.66,1.66,0,0,0-2.74,0,3.28,3.28,0,0,0-.56,2.08Zm16.27.94v-2.79h5.91v6.58a7.39,7.39,0,0,1-2.53,1.81,7.79,7.79,0,0,1-3.28.75,6.45,6.45,0,0,1-3.54-1,6.76,6.76,0,0,1-2.43-3,11.17,11.17,0,0,1-.89-4.62,11,11,0,0,1,.9-4.66,6.81,6.81,0,0,1,2.36-2.9,6.11,6.11,0,0,1,3.46-1,5.76,5.76,0,0,1,3.88,1.24,5.87,5.87,0,0,1,1.88,3.63l-2.7.63a3.55,3.55,0,0,0-1.11-2,3,3,0,0,0-1.95-.68,3.44,3.44,0,0,0-2.83,1.36,6.56,6.56,0,0,0-1.08,4.13,7.42,7.42,0,0,0,1.17,4.53,3.23,3.23,0,0,0,2.72,1.34,4.19,4.19,0,0,0,1.66-.38,5.3,5.3,0,0,0,1.54-1v-2.09Zm10.36-2.26-2.35-.48a4.6,4.6,0,0,1,1.41-2.64,4.4,4.4,0,0,1,2.83-.8,5.45,5.45,0,0,1,2.51.46,2.77,2.77,0,0,1,1.23,1.26,7.61,7.61,0,0,1,.37,2.89l0,3.7a16.21,16.21,0,0,0,.12,2.32,7.4,7.4,0,0,0,.46,1.62h-2.56l-.34-1.3a4.83,4.83,0,0,1-1.43,1.18,3.41,3.41,0,0,1-1.62.4,3.09,3.09,0,0,1-2.35-1,3.56,3.56,0,0,1-.91-2.56,4,4,0,0,1,.37-1.78,3,3,0,0,1,1.05-1.21,7,7,0,0,1,2.18-.8,12.41,12.41,0,0,0,2.51-.78,3.61,3.61,0,0,0-.14-1.3,1.05,1.05,0,0,0-.51-.51,2.35,2.35,0,0,0-1.06-.2,1.72,1.72,0,0,0-1.1.32,2.27,2.27,0,0,0-.65,1.18Zm3.46,2.56a12,12,0,0,1-1.55.48,3.72,3.72,0,0,0-1.58.7,1.37,1.37,0,0,0-.37,1,1.71,1.71,0,0,0,.41,1.16,1.34,1.34,0,0,0,1,.47,1.9,1.9,0,0,0,1.09-.38,2.1,2.1,0,0,0,.76-.9,5.84,5.84,0,0,0,.2-1.89v-.64Zm4.2,2.36,2.61-.49a2,2,0,0,0,2.1,1.9,2.2,2.2,0,0,0,1.39-.37,1.12,1.12,0,0,0,.46-.94.88.88,0,0,0-.21-.62,1.87,1.87,0,0,0-.84-.39,11.49,11.49,0,0,1-4.08-1.62,3.33,3.33,0,0,1-1.08-2.63,3.57,3.57,0,0,1,1.06-2.68,4.34,4.34,0,0,1,3.09-1,4.85,4.85,0,0,1,2.93.75,4.1,4.1,0,0,1,1.41,2.43l-2.44.56a1.71,1.71,0,0,0-1.85-1.46,2.57,2.57,0,0,0-1.37.28.86.86,0,0,0-.41.73.79.79,0,0,0,.37.66,10,10,0,0,0,2.3.81,6.21,6.21,0,0,1,3,1.47,3.37,3.37,0,0,1,.77,2.31,3.77,3.77,0,0,1-1.19,2.86,4.58,4.58,0,0,1-3.28,1.13,4.94,4.94,0,0,1-3.11-.94,4.57,4.57,0,0,1-1.59-2.75Zm16-2,2.66-.33c.3,2.11,1.28,3.16,3,3.16a2.78,2.78,0,0,0,1.95-.64,2.08,2.08,0,0,0,.72-1.61,1.79,1.79,0,0,0-.25-.95,1.89,1.89,0,0,0-.76-.65,21.63,21.63,0,0,0-2.46-.85,8,8,0,0,1-2.56-1.15,4.34,4.34,0,0,1-1.29-1.62,5,5,0,0,1-.48-2.17,4.82,4.82,0,0,1,.61-2.43,4.07,4.07,0,0,1,1.7-1.64,6,6,0,0,1,2.68-.55,4.7,4.7,0,0,1,5.16,5l-2.75.14a2.88,2.88,0,0,0-.78-1.85,2.52,2.52,0,0,0-1.71-.53A2.81,2.81,0,0,0,382,123a1.37,1.37,0,0,0-.6,1.13,1.44,1.44,0,0,0,.55,1.13,8.29,8.29,0,0,0,2.5,1,10.16,10.16,0,0,1,3,1.26,4.4,4.4,0,0,1,1.41,1.7,6,6,0,0,1,.48,2.53,5.18,5.18,0,0,1-1.32,3.61,5.34,5.34,0,0,1-4.15,1.47c-3.32,0-5.16-1.88-5.54-5.65Zm13.27,5.37v-3.16h2.58v3.16Zm17.51,0h-3L405,132.86h-5.44l-1.12,3.74h-2.91l5.27-16.52h2.91l5.41,16.52Zm-5-6.53-1.87-6.13-1.84,6.13Zm6.42,6.53v-3.16h2.58v3.16Zm10.57,0V120.08h10v2.79H423.8v3.65h6.81v2.79H423.8v4.5h7.57v2.79Zm12.57,0v-3.16h2.59v3.16Zm4.62-5.37,2.65-.33q.45,3.16,3,3.16a2.82,2.82,0,0,0,2-.64,2.1,2.1,0,0,0,.71-1.61,1.7,1.7,0,0,0-.25-.95,1.83,1.83,0,0,0-.76-.65,20.88,20.88,0,0,0-2.46-.85,8.15,8.15,0,0,1-2.56-1.15,4.34,4.34,0,0,1-1.29-1.62,5,5,0,0,1-.48-2.17,4.83,4.83,0,0,1,.62-2.43,4,4,0,0,1,1.7-1.64,5.93,5.93,0,0,1,2.67-.55,4.72,4.72,0,0,1,5.17,5l-2.75.14a2.93,2.93,0,0,0-.78-1.85,2.52,2.52,0,0,0-1.71-.53A2.81,2.81,0,0,0,442,123a1.37,1.37,0,0,0-.6,1.13,1.41,1.41,0,0,0,.55,1.13,8.29,8.29,0,0,0,2.5,1,10.29,10.29,0,0,1,3,1.26,4.3,4.3,0,0,1,1.4,1.7,6,6,0,0,1,.49,2.53,5.19,5.19,0,0,1-1.33,3.61,5.3,5.3,0,0,1-4.14,1.47q-5,0-5.54-5.65Zm13.26,5.37v-3.16h2.59v3.16Zm5.31,0V120.08h4.4a13.21,13.21,0,0,1,3.21.24,3.6,3.6,0,0,1,2,1.63,5.92,5.92,0,0,1,.79,3.23,6.1,6.1,0,0,1-.68,3,4,4,0,0,1-1.69,1.7,8.78,8.78,0,0,1-3.5.49h-1.8v6.23Zm2.72-13.73v4.71h1.52a6.36,6.36,0,0,0,2.08-.22,1.81,1.81,0,0,0,.9-.77,2.51,2.51,0,0,0,.35-1.38,2.54,2.54,0,0,0-.36-1.39,1.82,1.82,0,0,0-.9-.76,8.51,8.51,0,0,0-2.25-.19ZM467,136.6v-3.16h2.59v3.16Z"/><path class="cls-9" d="M163.89,102.92l27.74.23s5,.69,6.91-1.26c0,0,2.3-1.39,2.42-3.34l-.12-3.46s.23-2.53-7.25-2.53l-16.23.23s-14.49-1.15-16-9.44V73.91s.2-7,12.29-8.4H217s3.57-.7,3.8,3.44L221,98.2a7.73,7.73,0,0,0,7.37,4.38l17,.11s6-.46,6.8-4.37l.11-31.55s-.23-1.39,3.22-1.28h35s8.29.81,9.9,8.07l.35,9.09S302,91.59,283,92.28l16.32,11c2.25,1.51,1.5,3.11.12,5.75,0,0-1.85,2.77-5.07.35,0,0-22.68-13.82-25.56-16.23,0,0-4.14-1.73-3.33-6,0,0,.69-2.88,4.71-2.88l16.24.12s5.41-1.15,5.87-4.49l.23-3.23s.11-3.22-6.45-3H260.82l.12,25s.1,10.36-13.83,12.78h-21.4s-13-2.19-13.13-12l-.46-26-39.83.23s-2.76.69-2.76,2.88l.23,3.8s.46,2.53,6.44,2.88,21.53.57,21.53.57,10.82-.34,11.86,6.68l-.12,13s-1.84,6.79-10.13,7.94H163.66c-.47,0-2.29-.1-2.27-3.22v-3.39a2.42,2.42,0,0,1,2.51-1.91Z"/><path class="cls-10" d="M163.89,102.92l27.74.23s5,.69,6.91-1.26c0,0,2.3-1.39,2.42-3.34l-.12-3.46s.23-2.53-7.25-2.53l-16.23.23s-14.49-1.15-16-9.44V73.91s.2-7,12.29-8.4H217s3.57-.7,3.8,3.44L221,98.2a7.73,7.73,0,0,0,7.37,4.38l17,.11s6-.46,6.8-4.37l.11-31.55s-.23-1.39,3.22-1.28h35s8.29.81,9.9,8.07l.35,9.09S302,91.59,283,92.28l16.32,11c2.25,1.51,1.5,3.11.12,5.75,0,0-1.85,2.77-5.07.35,0,0-22.68-13.82-25.56-16.23,0,0-4.14-1.73-3.33-6,0,0,.69-2.88,4.71-2.88l16.24.12s5.41-1.15,5.87-4.49l.23-3.23s.11-3.22-6.45-3H260.82l.12,25s.1,10.36-13.83,12.78h-21.4s-13-2.19-13.13-12l-.46-26-39.83.23s-2.76.69-2.76,2.88l.23,3.8s.46,2.53,6.44,2.88,21.53.57,21.53.57,10.82-.34,11.86,6.68l-.12,13s-1.84,6.79-10.13,7.94H163.66c-.47,0-2.29-.1-2.27-3.22v-3.39a2.42,2.42,0,0,1,2.51-1.91Z"/><path class="cls-9" d="M304.07,74.16l-.3,25.12s-.59,12.15,12,12.2l24,.11c.21,0,16.44-.1,19-9.75l.3-12.81s-3.67-9-15.93-8.89H324.65l.07,8.2,20.61.11s5,1.09,5.41,3.65l.16,7.11c0,.51-2.91,3.62-9.11,3.62l-25.41.1s-4.53-1.38-4.43-4.83l.19-20.38s1.28-5.32,10.05-4.43l75-.2s5.32.39,6,6.89l-28.17.2s-11.91,2.56-12.41,10v10.63S364,111.29,377,111.49l76.51,0c.83,0,9-3.55,9.37-9.6a81,81,0,0,0,0-10.25c-.09-2.54-2.76-8.17-13.59-8.27l-21-.19s-4.16-.79-5-3.06a21.75,21.75,0,0,1,0-3.95c.07-.8,1.62-2.65,7.34-2.65h28.75A3.65,3.65,0,0,0,463.12,70l-.05-2.81c0-.52-1.38-1.84-5-1.74l-29.38.07s-10.5-.9-13.26,7.47l0,10.24a12.34,12.34,0,0,0,11.58,8.57l24.13.3s3.05.88,3.35,3.64l-.4,4s.89,1.77-5.41,2.66l-70.61.39s-6.31-1.28-6.9-4.23V92.38s.89-2.85,6.5-3l33.27-.1,0-14.38s-2.27-8.2-14.87-9.38l-76,0s-15.36-.29-16.05,8.67Z"/><path class="cls-7" d="M304.07,74.16l-.3,25.12s-.59,12.15,12,12.2l24,.11c.21,0,16.44-.1,19-9.75l.3-12.81s-3.67-9-15.93-8.89H324.65l.07,8.2,20.61.11s5,1.09,5.41,3.65l.16,7.11c0,.51-2.91,3.62-9.11,3.62l-25.41.1s-4.53-1.38-4.43-4.83l.19-20.38s1.28-5.32,10.05-4.43l75-.2s5.32.39,6,6.89l-28.17.2s-11.91,2.56-12.41,10v10.63S364,111.29,377,111.49l76.51,0c.83,0,9-3.55,9.37-9.6a81,81,0,0,0,0-10.25c-.09-2.54-2.76-8.17-13.59-8.27l-21-.19s-4.16-.79-5-3.06a21.75,21.75,0,0,1,0-3.95c.07-.8,1.62-2.65,7.34-2.65h28.75A3.65,3.65,0,0,0,463.12,70l-.05-2.81c0-.52-1.38-1.84-5-1.74l-29.38.07s-10.5-.9-13.26,7.47l0,10.24a12.34,12.34,0,0,0,11.58,8.57l24.13.3s3.05.88,3.35,3.64l-.4,4s.89,1.77-5.41,2.66l-70.61.39s-6.31-1.28-6.9-4.23V92.38s.89-2.85,6.5-3l33.27-.1,0-14.38s-2.27-8.2-14.87-9.38l-76,0s-15.36-.29-16.05,8.67Z"/></svg>